#N canvas 223 69 1649 876 12;
#X obj 429 -17 metro;
#X obj 429 -58 tgl 15 0 empty empty empty 17 7 0 10 -262144 -1 -1 1
1;
#X obj 429 31 int 1;
#X obj 493 30 + 1;
#X msg 429 155 36;
#X obj 43 31 int 1;
#X obj 107 31 + 1;
#X obj 43 181 sel 0 1 2 3;
#X obj 411 297 +;
#X obj 43 111 i;
#X msg 43 224 0;
#X msg 77 224 5;
#X msg 111 224 7;
#X msg 145 224 12;
#X msg 463 155 48;
#X msg 490 -32 190;
#X msg 490 -58 220;
#X msg 490 -84 250;
#X obj 429 112 sel 0 1 2 3 4 5 6 7;
#X obj 429 57 % 8;
#X obj 43 57 % 64;
#X obj 43 84 / 16;
#X msg 531 155 60;
#X msg 600 155 60;
#X msg 634 155 48;
#X msg 497 155 52;
#X msg 566 155 52;
#X msg 668 155 35;
#X text 444 86 Our sliders \, set to 8 notes;
#X text 55 155 The 'key' knob moves once every 8 notes;
#X obj 580 -60 loadbang;
#X obj 811 35 hsl 128 32 25 3000 0 0 empty empty Release 6 -8 0 10
-204786 -1 -1 11500 1;
#X obj 808 -53 loadbang;
#X obj 808 87 s release;
#X msg 808 -14 500;
#X obj 811 269 hsl 128 32 25 6000 0 0 empty empty Cutoff 6 -8 0 10
-204786 -1 -1 700 1;
#X obj 808 181 loadbang;
#X msg 808 220 800;
#X obj 808 321 s cutoff;
#X obj 971 269 hsl 128 32 1 8 0 0 empty empty Resonance 6 -8 0 10 -204786
-1 -1 2000 1;
#X obj 968 181 loadbang;
#X obj 968 321 s resonance;
#X msg 968 220 1;
#X obj 970 513 hsl 128 32 0 1000 0 0 empty empty LFO_gain -2 -8 0 10
-204786 -1 -1 6013 1;
#X obj 811 514 hsl 128 32 0.1 1200 0 0 empty empty LFO_freq -2 -8 0
10 -204786 -1 -1 10000 1;
#X obj 808 426 loadbang;
#X obj 967 426 loadbang;
#X msg 967 465 1;
#X obj 808 565 s lfo_freq;
#X obj 967 565 s lfo_gain;
#X msg 808 465 0.1;
#X obj 411 629 dac~;
#X obj 411 580 *~;
#X floatatom 459 544 5 0 1 1 Gain - -;
#X obj 459 466 loadbang;
#X msg 459 505 0.2;
#X msg 411 352 next \$1;
#X obj 411 401 clone seq_01_synth.cl 16;
#X connect 0 0 2 0;
#X connect 0 0 5 0;
#X connect 1 0 0 0;
#X connect 2 0 3 0;
#X connect 2 0 19 0;
#X connect 3 0 2 1;
#X connect 4 0 8 1;
#X connect 5 0 6 0;
#X connect 5 0 20 0;
#X connect 6 0 5 1;
#X connect 7 0 10 0;
#X connect 7 1 11 0;
#X connect 7 2 12 0;
#X connect 7 3 13 0;
#X connect 8 0 56 0;
#X connect 9 0 7 0;
#X connect 10 0 8 0;
#X connect 11 0 8 0;
#X connect 12 0 8 0;
#X connect 13 0 8 0;
#X connect 14 0 8 1;
#X connect 15 0 0 1;
#X connect 16 0 0 1;
#X connect 17 0 0 1;
#X connect 18 0 4 0;
#X connect 18 1 14 0;
#X connect 18 2 25 0;
#X connect 18 3 22 0;
#X connect 18 4 26 0;
#X connect 18 5 23 0;
#X connect 18 6 24 0;
#X connect 18 7 27 0;
#X connect 19 0 18 0;
#X connect 20 0 21 0;
#X connect 21 0 9 0;
#X connect 22 0 8 1;
#X connect 23 0 8 1;
#X connect 24 0 8 1;
#X connect 25 0 8 1;
#X connect 26 0 8 1;
#X connect 27 0 8 1;
#X connect 30 0 15 0;
#X connect 31 0 33 0;
#X connect 32 0 34 0;
#X connect 34 0 31 0;
#X connect 35 0 38 0;
#X connect 36 0 37 0;
#X connect 37 0 35 0;
#X connect 39 0 41 0;
#X connect 40 0 42 0;
#X connect 42 0 39 0;
#X connect 43 0 49 0;
#X connect 44 0 48 0;
#X connect 45 0 50 0;
#X connect 46 0 47 0;
#X connect 47 0 43 0;
#X connect 50 0 44 0;
#X connect 52 0 51 0;
#X connect 52 0 51 1;
#X connect 53 0 52 1;
#X connect 54 0 55 0;
#X connect 55 0 53 0;
#X connect 56 0 57 0;
#X connect 57 0 52 0;
