#N canvas 274 80 1789 896 12;
#X obj 408 119 metro;
#X obj 408 49 tgl 15 0 empty empty empty 17 7 0 10 -262144 -1 -1 1
1;
#X obj 408 167 int 1;
#X obj 472 166 + 1;
#X obj 391 764 dac~;
#X msg 408 291 36;
#X obj 391 715 *~;
#X obj 22 167 int 1;
#X obj 86 167 + 1;
#X obj 22 317 sel 0 1 2 3;
#X obj 390 433 +;
#X obj 22 247 i;
#X msg 442 291 48;
#X obj 408 248 sel 0 1 2 3 4 5 6 7;
#X obj 408 193 % 8;
#X obj 22 193 % 64;
#X obj 22 220 / 16;
#X msg 510 291 60;
#X msg 579 291 60;
#X msg 613 291 48;
#X msg 476 291 52;
#X msg 545 291 52;
#X msg 647 291 35;
#X text 423 222 Our sliders \, set to 8 notes;
#X text 34 291 The 'key' knob moves once every 8 notes;
#X floatatom 439 679 5 0 1 1 Gain - -;
#X obj 86 463;
#X msg 86 495;
#X symbolatom 87 567 10 0 0 0 - - -;
#X text 191 531 comment;
#X msg 469 104 200;
#X msg 449 26 400;
#X msg 459 65 300;
#X obj 527 46 loadbang;
#X obj 439 601 loadbang;
#X obj 778 346 hsl 128 32 25 6000 0 0 empty empty Cutoff 6 -8 0 10
-204786 -1 -1 1274 1;
#X obj 775 258 loadbang;
#X obj 775 408 s cutoff;
#X msg 22 360 0;
#X msg 56 360 5;
#X msg 90 360 7;
#X msg 124 360 12;
#X obj 938 346 hsl 128 32 1 8 0 0 empty empty Resonance 6 -8 0 10 -204786
-1 -1 4900 1;
#X obj 935 258 loadbang;
#X obj 935 408 s resonance;
#X msg 935 297 1;
#X floatatom 87 531 5 0 0 0 - - -;
#X msg 775 297 5000;
#X msg 439 640 0.5;
#X obj 778 137 hsl 128 32 25 3000 0 0 empty empty Release 6 -8 0 10
-204786 -1 -1 4300 1;
#X obj 775 49 loadbang;
#X obj 775 199 s release;
#X msg 775 88 1500;
#X msg 390 494 next \$1;
#X obj 390 543 clone seq_04_synth.cl 16;
#X connect 0 0 2 0;
#X connect 0 0 7 0;
#X connect 1 0 0 0;
#X connect 2 0 3 0;
#X connect 2 0 14 0;
#X connect 3 0 2 1;
#X connect 5 0 10 1;
#X connect 6 0 4 0;
#X connect 6 0 4 1;
#X connect 7 0 8 0;
#X connect 7 0 15 0;
#X connect 8 0 7 1;
#X connect 9 0 38 0;
#X connect 9 1 39 0;
#X connect 9 2 40 0;
#X connect 9 3 41 0;
#X connect 10 0 53 0;
#X connect 11 0 9 0;
#X connect 12 0 10 1;
#X connect 13 0 5 0;
#X connect 13 1 12 0;
#X connect 13 2 20 0;
#X connect 13 3 17 0;
#X connect 13 4 21 0;
#X connect 13 5 18 0;
#X connect 13 6 19 0;
#X connect 13 7 22 0;
#X connect 14 0 13 0;
#X connect 15 0 16 0;
#X connect 16 0 11 0;
#X connect 17 0 10 1;
#X connect 18 0 10 1;
#X connect 19 0 10 1;
#X connect 20 0 10 1;
#X connect 21 0 10 1;
#X connect 22 0 10 1;
#X connect 25 0 6 1;
#X connect 30 0 0 1;
#X connect 31 0 0 1;
#X connect 32 0 0 1;
#X connect 33 0 30 0;
#X connect 34 0 48 0;
#X connect 35 0 37 0;
#X connect 36 0 47 0;
#X connect 38 0 10 0;
#X connect 39 0 10 0;
#X connect 40 0 10 0;
#X connect 41 0 10 0;
#X connect 42 0 44 0;
#X connect 43 0 45 0;
#X connect 45 0 42 0;
#X connect 47 0 35 0;
#X connect 48 0 25 0;
#X connect 49 0 51 0;
#X connect 50 0 52 0;
#X connect 52 0 49 0;
#X connect 53 0 54 0;
#X connect 54 0 6 0;
