#N canvas 272 85 1149 896 12;
#X obj 408 119 metro;
#X obj 408 48 tgl 15 0 empty empty empty 17 7 0 10 -262144 -1 -1 1
1;
#X obj 408 167 int 1;
#X obj 472 166 + 1;
#X obj 390 771 dac~;
#X obj 778 137 hsl 128 32 25 3000 0 0 empty empty Release 6 -8 0 10
-204786 -1 -1 6328 1;
#X obj 390 722 *~;
#X obj 22 167 int 1;
#X obj 86 167 + 1;
#X obj 22 317 sel 0 1 2 3;
#X obj 390 433 +;
#X obj 22 247 i;
#X obj 408 248 sel 0 1 2 3 4 5 6 7;
#X obj 408 193 % 8;
#X obj 22 193 % 64;
#X obj 22 220 / 16;
#X text 423 222 Our sliders \, set to 8 notes;
#X text 34 291 The 'key' knob moves once every 8 notes;
#X floatatom 438 686 5 0 1 1 Gain - -;
#X obj 84 645;
#X msg 83 700;
#X floatatom 181 648 5 0 0 0 - - -;
#X symbolatom 183 704 10 0 0 0 - - -;
#X text 80 573 comment;
#X msg 469 104 200;
#X msg 459 65 300;
#X obj 527 46 loadbang;
#X obj 438 608 loadbang;
#X msg 438 647 0.2;
#X msg 390 494 next \$1;
#X obj 775 49 loadbang;
#X obj 775 199 s release;
#X msg 775 88 500;
#X obj 778 346 hsl 128 32 25 6000 0 0 empty empty Cutoff 6 -8 0 10
-204786 -1 -1 1447 1;
#X obj 775 258 loadbang;
#X msg 775 297 800;
#X obj 775 408 s cutoff;
#X msg 22 360 0;
#X msg 56 360 5;
#X msg 90 360 7;
#X msg 124 360 12;
#X obj 938 346 hsl 128 32 1 8 0 0 empty empty Resonance 6 -8 0 10 -204786
-1 -1 1200 1;
#X obj 935 258 loadbang;
#X obj 935 408 s resonance;
#X msg 935 297 1;
#X obj 778 556 hsl 128 32 0 1000 0 0 empty empty Ring 6 -8 0 10 -204786
-1 -1 0 1;
#X obj 775 468 loadbang;
#X obj 938 556 hsl 128 32 1 64 1 0 empty empty Fuzz 6 -8 0 10 -204786
-1 -1 12000 1;
#X obj 935 468 loadbang;
#X msg 935 507 1;
#X msg 408 291 36;
#X msg 545 291 36;
#X msg 442 291 43;
#X msg 510 291 43;
#X msg 579 291 43;
#X msg 647 291 43;
#X obj 935 618 s fuzz;
#X obj 775 618 s ring;
#X msg 775 507 0;
#X obj 390 543 clone seq_02_synth.cl 16;
#X msg 476 291 48;
#X msg 613 291 48;
#X msg 449 26 500;
#X connect 0 0 2 0;
#X connect 0 0 7 0;
#X connect 1 0 0 0;
#X connect 2 0 3 0;
#X connect 2 0 13 0;
#X connect 3 0 2 1;
#X connect 5 0 31 0;
#X connect 6 0 4 0;
#X connect 6 0 4 1;
#X connect 7 0 8 0;
#X connect 7 0 14 0;
#X connect 8 0 7 1;
#X connect 9 0 37 0;
#X connect 9 1 38 0;
#X connect 9 2 39 0;
#X connect 9 3 40 0;
#X connect 10 0 29 0;
#X connect 11 0 9 0;
#X connect 12 0 50 0;
#X connect 12 1 52 0;
#X connect 12 2 60 0;
#X connect 12 3 53 0;
#X connect 12 4 51 0;
#X connect 12 5 54 0;
#X connect 12 6 61 0;
#X connect 12 7 55 0;
#X connect 13 0 12 0;
#X connect 14 0 15 0;
#X connect 15 0 11 0;
#X connect 18 0 6 1;
#X connect 24 0 0 1;
#X connect 25 0 0 1;
#X connect 26 0 24 0;
#X connect 27 0 28 0;
#X connect 28 0 18 0;
#X connect 29 0 59 0;
#X connect 30 0 32 0;
#X connect 32 0 5 0;
#X connect 33 0 36 0;
#X connect 34 0 35 0;
#X connect 35 0 33 0;
#X connect 37 0 10 0;
#X connect 38 0 10 0;
#X connect 39 0 10 0;
#X connect 40 0 10 0;
#X connect 41 0 43 0;
#X connect 42 0 44 0;
#X connect 44 0 41 0;
#X connect 45 0 57 0;
#X connect 46 0 58 0;
#X connect 47 0 56 0;
#X connect 48 0 49 0;
#X connect 49 0 47 0;
#X connect 50 0 10 1;
#X connect 51 0 10 1;
#X connect 52 0 10 1;
#X connect 53 0 10 1;
#X connect 54 0 10 1;
#X connect 55 0 10 1;
#X connect 58 0 45 0;
#X connect 59 0 6 0;
#X connect 60 0 10 1;
#X connect 61 0 10 1;
#X connect 62 0 0 1;
