#N canvas 585 125 1180 926 12;
#X obj 64 26 inlet;
#X obj 232 746 outlet~;
#X obj 370 111 bng 15 250 50 0 empty empty empty 17 7 0 10 -262144
-1 -1;
#X obj 369 371 line~;
#X obj 433 281 pack 0 500;
#X obj 369 420 *~;
#X obj 369 469 *~;
#X obj 433 220 del 25;
#X obj 232 600 *~;
#X obj 500 143 r release;
#X obj 64 469 vcf~ 1;
#X obj 150 384 r cutoff;
#X msg 369 281 1 15;
#X obj 150 419 r resonance;
#X obj 64 399 osc~;
#X obj 64 92 mtof;
#X obj 64 369 +~;
#X obj 150 209 *~;
#X obj 150 279 *~;
#X obj 196 248 *~;
#X obj 99 248 osc~;
#X obj 168 131 r harmon;
#X obj 214 170 r mod;
#X obj 168 170 i;
#X obj 214 209 i;
#X connect 0 0 15 0;
#X connect 2 0 12 0;
#X connect 2 0 7 0;
#X connect 3 0 5 0;
#X connect 3 0 5 1;
#X connect 4 0 3 0;
#X connect 5 0 6 0;
#X connect 5 0 6 1;
#X connect 6 0 8 1;
#X connect 7 0 4 0;
#X connect 8 0 1 0;
#X connect 9 0 4 1;
#X connect 10 0 8 0;
#X connect 10 1 8 0;
#X connect 11 0 10 1;
#X connect 12 0 3 0;
#X connect 13 0 10 2;
#X connect 14 0 10 0;
#X connect 15 0 16 0;
#X connect 15 0 17 0;
#X connect 15 0 2 0;
#X connect 16 0 14 0;
#X connect 17 0 19 0;
#X connect 17 0 20 0;
#X connect 18 0 16 1;
#X connect 19 0 18 1;
#X connect 20 0 18 0;
#X connect 21 0 23 0;
#X connect 22 0 24 0;
#X connect 23 0 17 1;
#X connect 24 0 19 1;
