#N canvas 200 122 1649 876 12;
#X obj 429 -17 metro;
#X obj 831 34 bng 15 250 50 0 empty empty empty 17 7 0 10 -262144 -1
-1;
#X obj 429 -58 tgl 15 0 empty empty empty 17 7 0 10 -262144 -1 -1 1
1;
#X obj 429 31 int 1;
#X obj 493 30 + 1;
#X obj 411 413 mtof;
#X obj 488 494 phasor~;
#X obj 411 624 vcf~;
#X obj 411 727 dac~;
#X msg 429 155 36;
#X obj 411 491 phasor~;
#X obj 411 544 +~;
#X obj 411 460 * 2.01;
#X obj 676 381 hsl 128 32 0 1000 0 0 empty empty LFO_gain -2 -8 0 10
-204786 -1 -1 0 1;
#X obj 676 324 hsl 128 32 0.1 1200 0 0 empty empty LFO_freq -2 -8 0
10 -204786 -1 -1 0 1;
#X obj 584 367 osc~;
#X obj 584 422 *~;
#X obj 488 463 +~;
#X obj 411 686 *~;
#X obj 43 31 int 1;
#X obj 107 31 + 1;
#X obj 43 181 sel 0 1 2 3;
#X obj 411 297 +;
#X obj 43 111 i;
#X msg 43 224 0;
#X msg 77 224 5;
#X msg 111 224 7;
#X msg 145 224 12;
#X msg 463 155 48;
#X msg 490 -32 190;
#X msg 490 -58 220;
#X msg 490 -84 250;
#X obj 429 112 sel 0 1 2 3 4 5 6 7;
#X obj 429 57 % 8;
#X obj 43 57 % 64;
#X obj 43 84 / 16;
#X msg 531 155 60;
#X msg 600 155 60;
#X msg 634 155 48;
#X msg 497 155 52;
#X msg 566 155 52;
#X msg 668 155 35;
#X text 444 86 Our sliders \, set to 8 notes;
#X text 55 155 The 'key' knob moves once every 8 notes;
#X obj 580 -60 loadbang;
#X obj 831 508 line~;
#X obj 895 463 pack 0 500;
#X obj 831 557 *~;
#X obj 831 606 *~;
#X obj 895 402 del 25;
#X obj 962 402 r release;
#X msg 831 463 1 15;
#X obj 965 35 hsl 128 32 25 3000 0 0 empty empty Release 6 -8 0 10
-204786 -1 -1 2028 1;
#X obj 962 -53 loadbang;
#X obj 962 97 s release;
#X msg 962 -14 500;
#X obj 965 269 hsl 128 32 25 6000 0 0 empty empty Cutoff 6 -8 0 10
-204786 -1 -1 5200 1;
#X obj 962 181 loadbang;
#X msg 962 220 800;
#X obj 962 331 s cutoff;
#X obj 1125 269 hsl 128 32 1 8 0 0 empty empty Resonance 6 -8 0 10
-204786 -1 -1 12300 1;
#X obj 1122 181 loadbang;
#X obj 1122 331 s resonance;
#X msg 1122 220 1;
#X obj 492 546 r cutoff;
#X obj 513 578 r resonance;
#X connect 0 0 1 0;
#X connect 0 0 3 0;
#X connect 0 0 19 0;
#X connect 1 0 49 0;
#X connect 1 0 51 0;
#X connect 2 0 0 0;
#X connect 3 0 4 0;
#X connect 3 0 33 0;
#X connect 4 0 3 1;
#X connect 5 0 17 0;
#X connect 5 0 12 0;
#X connect 6 0 11 1;
#X connect 7 0 18 0;
#X connect 7 1 18 0;
#X connect 9 0 22 1;
#X connect 10 0 11 0;
#X connect 11 0 7 0;
#X connect 12 0 10 0;
#X connect 13 0 16 1;
#X connect 14 0 15 0;
#X connect 15 0 16 0;
#X connect 16 0 17 1;
#X connect 17 0 6 0;
#X connect 18 0 8 0;
#X connect 18 0 8 1;
#X connect 19 0 20 0;
#X connect 19 0 34 0;
#X connect 20 0 19 1;
#X connect 21 0 24 0;
#X connect 21 1 25 0;
#X connect 21 2 26 0;
#X connect 21 3 27 0;
#X connect 22 0 5 0;
#X connect 23 0 21 0;
#X connect 24 0 22 0;
#X connect 25 0 22 0;
#X connect 26 0 22 0;
#X connect 27 0 22 0;
#X connect 28 0 22 1;
#X connect 29 0 0 1;
#X connect 30 0 0 1;
#X connect 31 0 0 1;
#X connect 32 0 9 0;
#X connect 32 1 28 0;
#X connect 32 2 39 0;
#X connect 32 3 36 0;
#X connect 32 4 40 0;
#X connect 32 5 37 0;
#X connect 32 6 38 0;
#X connect 32 7 41 0;
#X connect 33 0 32 0;
#X connect 34 0 35 0;
#X connect 35 0 23 0;
#X connect 36 0 22 1;
#X connect 37 0 22 1;
#X connect 38 0 22 1;
#X connect 39 0 22 1;
#X connect 40 0 22 1;
#X connect 41 0 22 1;
#X connect 44 0 29 0;
#X connect 45 0 47 0;
#X connect 45 0 47 1;
#X connect 46 0 45 0;
#X connect 47 0 48 0;
#X connect 47 0 48 1;
#X connect 48 0 18 1;
#X connect 49 0 46 0;
#X connect 50 0 46 1;
#X connect 51 0 45 0;
#X connect 52 0 54 0;
#X connect 53 0 55 0;
#X connect 55 0 52 0;
#X connect 56 0 59 0;
#X connect 57 0 58 0;
#X connect 58 0 56 0;
#X connect 60 0 62 0;
#X connect 61 0 63 0;
#X connect 63 0 60 0;
#X connect 64 0 7 1;
#X connect 65 0 7 2;
