#N canvas 315 127 1472 928 12;
#X obj 549 -17 metro;
#X obj 1131 34 bng 15 250 50 0 empty empty empty 17 7 0 10 -262144
-1 -1;
#X obj 549 -58 tgl 15 0 empty empty empty 17 7 0 10 -262144 -1 -1 1
1;
#X obj 549 31 int 1;
#X obj 613 30 + 1;
#X obj 531 413 mtof;
#X obj 608 494 phasor~;
#X obj 531 624 vcf~;
#X obj 531 772 dac~;
#X obj 895 494 hsl 128 32 15 127 0 0 empty empty Cutoff -2 -8 0 10
-204786 -1 -1 9900 1;
#X obj 627 559 mtof~;
#X obj 895 552 hsl 128 32 0 6 0 0 empty empty Resonance -2 -8 0 10
-204786 -1 -1 2400 1;
#X msg 549 155 36;
#X obj 531 491 phasor~;
#X obj 531 544 +~;
#X obj 531 460 * 2.01;
#X obj 895 381 hsl 128 32 0 1000 0 0 empty empty LFO_gain -2 -8 0 10
-204786 -1 -1 0 1;
#X obj 895 324 hsl 128 32 0.1 1200 0 0 empty empty LFO_freq -2 -8 0
10 -204786 -1 -1 0 1;
#X obj 803 367 osc~;
#X obj 803 422 *~;
#X obj 608 463 +~;
#X obj 531 731 *~;
#X obj 626 692 vline~;
#X obj 163 31 int 1;
#X obj 227 31 + 1;
#X obj 163 181 sel 0 1 2 3;
#X obj 531 297 +;
#X obj 163 111 i;
#X msg 163 224 0;
#X msg 197 224 5;
#X msg 231 224 7;
#X msg 265 224 12;
#X msg 583 155 48;
#X msg 610 -32 190;
#X msg 610 -58 220;
#X msg 610 -84 250;
#X obj 549 112 sel 0 1 2 3 4 5 6 7;
#X obj 549 57 % 8;
#X msg 1131 611 1 15 \, 0 60 80;
#X obj 163 57 % 64;
#X obj 163 84 / 16;
#X msg 651 155 60;
#X msg 720 155 60;
#X msg 754 155 48;
#X msg 617 155 52;
#X msg 686 155 52;
#X msg 788 155 35;
#X text 564 86 Our sliders \, set to 8 notes;
#X text 175 155 The 'key' knob moves once every 8 notes;
#X obj 700 -60 loadbang;
#X connect 0 0 1 0;
#X connect 0 0 3 0;
#X connect 0 0 23 0;
#X connect 1 0 38 0;
#X connect 2 0 0 0;
#X connect 3 0 4 0;
#X connect 3 0 37 0;
#X connect 4 0 3 1;
#X connect 5 0 20 0;
#X connect 5 0 15 0;
#X connect 6 0 14 1;
#X connect 7 1 21 0;
#X connect 9 0 10 0;
#X connect 10 0 7 1;
#X connect 11 0 7 2;
#X connect 12 0 26 1;
#X connect 13 0 14 0;
#X connect 14 0 7 0;
#X connect 15 0 13 0;
#X connect 16 0 19 1;
#X connect 17 0 18 0;
#X connect 18 0 19 0;
#X connect 19 0 20 1;
#X connect 20 0 6 0;
#X connect 21 0 8 0;
#X connect 22 0 21 1;
#X connect 23 0 24 0;
#X connect 23 0 39 0;
#X connect 24 0 23 1;
#X connect 25 0 28 0;
#X connect 25 1 29 0;
#X connect 25 2 30 0;
#X connect 25 3 31 0;
#X connect 26 0 5 0;
#X connect 27 0 25 0;
#X connect 28 0 26 0;
#X connect 29 0 26 0;
#X connect 30 0 26 0;
#X connect 31 0 26 0;
#X connect 32 0 26 1;
#X connect 33 0 0 1;
#X connect 34 0 0 1;
#X connect 35 0 0 1;
#X connect 36 0 12 0;
#X connect 36 1 32 0;
#X connect 36 2 44 0;
#X connect 36 3 41 0;
#X connect 36 4 45 0;
#X connect 36 5 42 0;
#X connect 36 6 43 0;
#X connect 36 7 46 0;
#X connect 37 0 36 0;
#X connect 38 0 22 0;
#X connect 39 0 40 0;
#X connect 40 0 27 0;
#X connect 41 0 26 1;
#X connect 42 0 26 1;
#X connect 43 0 26 1;
#X connect 44 0 26 1;
#X connect 45 0 26 1;
#X connect 46 0 26 1;
#X connect 49 0 33 0;
