#N canvas 976 118 943 878 12;
#X obj 273 84 mtof;
#X obj 273 36 inlet;
#X obj 272 656 outlet~;
#X obj 163 255 osc~;
#X obj 223 255 osc~;
#X obj 420 119 bng 15 250 50 0 empty empty empty 17 7 0 10 -262144
-1 -1;
#X obj 420 347 line~;
#X obj 484 257 pack 0 500;
#X obj 420 396 *~;
#X obj 420 445 *~;
#X obj 484 196 del 25;
#X obj 272 510 *~;
#X obj 551 119 r release;
#X obj 163 217 * 1.02;
#X obj 103 217 * 2.01;
#X obj 163 404 vcf~ 1;
#X obj 285 255 r cutoff;
#X obj 103 255 phasor~;
#X msg 420 257 1 15;
#X obj 273 350 *~ 5000;
#X obj 285 284 r resonance;
#X connect 0 0 4 0;
#X connect 0 0 5 0;
#X connect 0 0 13 0;
#X connect 0 0 14 0;
#X connect 1 0 0 0;
#X connect 3 0 15 0;
#X connect 4 0 15 0;
#X connect 5 0 18 0;
#X connect 5 0 10 0;
#X connect 6 0 8 0;
#X connect 6 0 8 1;
#X connect 7 0 6 0;
#X connect 8 0 9 0;
#X connect 8 0 9 1;
#X connect 9 0 11 1;
#X connect 10 0 7 0;
#X connect 11 0 2 0;
#X connect 12 0 7 1;
#X connect 13 0 3 0;
#X connect 14 0 17 0;
#X connect 15 1 11 0;
#X connect 16 0 15 1;
#X connect 17 0 15 0;
#X connect 18 0 6 0;
#X connect 20 0 15 2;
