#N canvas 0 50 450 300 12;
#X obj 93 36 inlet;
#X obj 93 60 route 0;
#X obj 70 101 nbx 5 14 -1e+037 1e+037 0 0 empty empty empty 0 -8 0
10 -262144 -1 -1 -1 256;
#X obj 116 168 outlet;
#X connect 0 0 1 0;
#X connect 1 0 2 0;
#X connect 1 1 3 0;
#X connect 2 0 3 0;
