#N canvas 139 227 1248 615 12;
#X obj 253 256 phasor~;
#X obj 176 386 vcf~;
#X obj 176 253 phasor~;
#X obj 176 306 +~;
#X obj 176 222 * 2.01;
#X obj 398 145 hsl 128 32 0 1000 0 0 empty empty LFO_gain -2 -8 0 10
-204786 -1 -1 0 1;
#X obj 398 88 hsl 128 32 0.1 1200 0 0 empty empty LFO_freq -2 -8 0
10 -204786 -1 -1 0 1;
#X obj 306 131 osc~;
#X obj 306 186 *~;
#X obj 253 225 +~;
#X obj 176 132 inlet;
#X obj 201 427 outlet~;
#X obj 820 232 switch~;
#X obj 828 147 inlet;
#X msg 758 118 0;
#X msg 826 184 1;
#X obj 757 75 r stopAll;
#X obj 306 294 r cutoff;
#X obj 305 326 r resonance;
#X connect 0 0 3 1;
#X connect 1 1 11 0;
#X connect 2 0 3 0;
#X connect 3 0 1 0;
#X connect 4 0 2 0;
#X connect 5 0 8 1;
#X connect 6 0 7 0;
#X connect 7 0 8 0;
#X connect 8 0 9 1;
#X connect 9 0 0 0;
#X connect 10 0 9 0;
#X connect 10 0 4 0;
#X connect 13 0 15 0;
#X connect 14 0 12 0;
#X connect 15 0 12 0;
#X connect 16 0 14 0;
#X connect 17 0 1 1;
#X connect 18 0 1 2;
