#N canvas 482 23 958 721 12;
#X obj 85 820 mod 8;
#X obj 85 878 hradio 15 1 0 8 empty empty empty 0 -8 0 10 -262144 -1
-1 1;
#X obj 85 904 select 0 1 2 3 4 5 6 7;
#X obj 769 1060 vsl 15 128 0 12 0 0 empty empty empty 0 -9 0 10 -4034
-1 -1 1100 1;
#X obj 800 1061 vsl 15 128 0 12 0 0 empty empty empty 0 -9 0 10 -4034
-1 -1 9600 1;
#X obj 830 1061 vsl 15 128 0 12 0 0 empty empty empty 0 -9 0 10 -4034
-1 -1 1200 1;
#X obj 861 1061 vsl 15 128 0 12 0 0 empty empty empty 0 -9 0 10 -4034
-1 -1 1100 1;
#X obj 892 1061 vsl 15 128 0 12 0 0 empty empty empty 0 -9 0 10 -4034
-1 -1 1200 1;
#X obj 923 1060 vsl 15 128 0 12 0 0 empty empty empty 0 -9 0 10 -4034
-1 -1 9600 1;
#X obj 952 1061 vsl 15 128 0 12 0 0 empty empty empty 0 -9 0 10 -4034
-1 -1 1300 1;
#X obj 982 1060 vsl 15 128 0 12 0 0 empty empty empty 0 -9 0 10 -4034
-1 -1 1100 1;
#X obj 1708 117 oscparse;
#X obj 1708 146 list trim;
#X obj 1155 1476 *~;
#X obj 1448 1215 vsl 15 128 0 1 0 0 empty empty empty 0 -9 0 10 -258113
-1 -1 2600 1;
#X msg 1445 1364 \$1 100;
#X obj 1445 1401 line~;
#X text 1395 1213 Volume;
#X text 56 545 BPM;
#X obj 14 543 nbx 3 20 0 400 0 1 empty empty empty 0 -8 0 10 -262144
-1 -1 121 256;
#X obj 160 551 hsl 128 15 0 0.33 0 0 feel empty 16th-note-feel 20 8
0 10 -262144 -260097 -1 0 0;
#N canvas 526 170 191 127 time-signature 0;
#X obj 19 16 inlet;
#X obj 19 50 == 0;
#X obj 62 50 s signature12/16;
#X obj 19 77 s signature16/16;
#X connect 0 0 1 0;
#X connect 0 0 2 0;
#X connect 1 0 3 0;
#X restore 160 624 pd time-signature;
#X obj 160 581 vradio 15 1 1 2 empty empty empty 0 -8 0 10 -262144
-260097 -1 1;
#X text 179 581 4/4;
#X floatatom 14 632 5 0 0 0 - - -;
#X floatatom 71 632 5 0 0 0 - - -;
#X obj 14 661 s ticks;
#N canvas 472 450 176 55 sixteenths 0;
#X obj 20 24 r ticks;
#X obj 20 57 outlet;
#X connect 0 0 1 0;
#X restore 162 697 pd sixteenths;
#X obj 162 723 bng 15 50 50 0 empty empty empty 17 7 0 10 -262144 -1
-1;
#N canvas 472 450 140 141 eighths 0;
#X obj 20 24 r ticks;
#X obj 20 103 outlet;
#X obj 20 51 >> 1;
#X obj 20 77 change;
#X connect 0 0 2 0;
#X connect 2 0 3 0;
#X connect 3 0 1 0;
#X restore 85 697 pd eighths;
#X obj 85 723 bng 15 50 50 0 empty empty empty 17 7 0 10 -262144 -1
-1;
#N canvas 472 450 140 141 quarts 0;
#X obj 20 24 r ticks;
#X obj 20 103 outlet;
#X obj 20 77 change;
#X obj 20 51 >> 2;
#X connect 0 0 3 0;
#X connect 2 0 1 0;
#X connect 3 0 2 0;
#X restore 16 697 pd quarts;
#X obj 16 723 bng 15 50 50 0 empty empty empty 17 7 0 10 -262144 -1
-1;
#X text 179 596 12/16;
#N canvas 476 430 171 317 12/16 0;
#X obj 42 41 inlet;
#X obj 15 275 outlet;
#X obj 15 42 tgl 15 0 empty empty empty 17 7 0 10 -262144 -1 -1 1 1
;
#X obj 15 92 metro;
#X obj 15 197 +;
#X obj 15 172 f 1;
#N canvas 0 22 141 214 skipticks 0;
#X obj 26 47 inlet;
#X obj 26 161 outlet;
#X obj 26 79 & 3;
#X obj 26 106 sel 2;
#X msg 26 131 2;
#X msg 55 131 1;
#X connect 0 0 2 0;
#X connect 2 0 3 0;
#X connect 3 0 4 0;
#X connect 3 1 5 0;
#X connect 4 0 1 0;
#X connect 5 0 1 0;
#X restore 30 145 pd skipticks;
#X obj 15 223 & 255;
#N canvas 934 142 156 171 milliseconds 0;
#X obj 19 18 inlet;
#X obj 19 127 outlet;
#X obj 19 46 t b f;
#X obj 19 94 /;
#X text 18 150 1/12 note;
#X msg 19 70 20000;
#X connect 0 0 2 0;
#X connect 2 0 5 0;
#X connect 2 1 3 1;
#X connect 3 0 1 0;
#X connect 5 0 3 0;
#X restore 42 67 pd milliseconds;
#X text 80 41 BPM;
#X floatatom 42 116 5 0 0 0 - - -;
#X obj 15 11 r signature12/16;
#X floatatom 67 250 5 0 0 0 - - -;
#N canvas 197 486 215 265 feel 0;
#X obj 21 86 & 1;
#X obj 21 58 t f f;
#X obj 21 25 inlet;
#X obj 21 221 outlet;
#X obj 21 126 pack;
#X obj 21 152 route 0 1;
#X text 16 170 even;
#X text 56 170 odd;
#X obj 89 152 *;
#X obj 99 125 t b f;
#X floatatom 89 192 5 0 0 0 - - -;
#X obj 46 191 pipe;
#X text 127 192 milliseconds;
#X obj 89 26 inlet;
#X text 19 4 ticks;
#X text 87 5 feel;
#X obj 99 96 r ticklength12;
#X connect 0 0 4 0;
#X connect 1 0 0 0;
#X connect 1 1 4 1;
#X connect 2 0 1 0;
#X connect 4 0 5 0;
#X connect 5 0 3 0;
#X connect 5 1 11 0;
#X connect 8 0 10 0;
#X connect 8 0 11 1;
#X connect 9 0 8 0;
#X connect 9 1 8 1;
#X connect 11 0 3 0;
#X connect 13 0 8 0;
#X connect 16 0 9 0;
#X restore 15 249 pd feel;
#X obj 54 223 r feel;
#X obj 54 92 s ticklength12;
#X connect 0 0 8 0;
#X connect 2 0 3 0;
#X connect 3 0 5 0;
#X connect 4 0 7 0;
#X connect 5 0 4 0;
#X connect 6 0 5 1;
#X connect 7 0 4 1;
#X connect 7 0 6 0;
#X connect 7 0 13 0;
#X connect 8 0 3 1;
#X connect 8 0 10 0;
#X connect 8 0 15 0;
#X connect 11 0 2 0;
#X connect 13 0 1 0;
#X connect 14 0 13 1;
#X connect 14 0 12 0;
#X restore 71 602 pd 12/16;
#N canvas 653 431 199 282 16/16 0;
#X obj 46 45 inlet;
#X obj 19 251 outlet;
#X obj 19 143 f;
#X obj 19 168 + 1;
#X obj 19 46 tgl 15 0 empty empty empty 17 7 0 10 -262144 -1 -1 0 1
;
#X obj 19 118 metro;
#X floatatom 71 223 5 0 0 0 - - -;
#N canvas 813 182 215 265 feel 0;
#X obj 21 86 & 1;
#X obj 21 58 t f f;
#X obj 21 25 inlet;
#X obj 21 221 outlet;
#X obj 21 126 pack;
#X obj 21 152 route 0 1;
#X text 16 170 even;
#X text 56 170 odd;
#X obj 89 152 *;
#X obj 99 125 t b f;
#X floatatom 89 192 5 0 0 0 - - -;
#X obj 46 191 pipe;
#X text 127 192 milliseconds;
#X obj 89 26 inlet;
#X text 19 4 ticks;
#X text 87 5 feel;
#X obj 99 91 r ticklength16;
#X connect 0 0 4 0;
#X connect 1 0 0 0;
#X connect 1 1 4 1;
#X connect 2 0 1 0;
#X connect 4 0 5 0;
#X connect 5 0 3 0;
#X connect 5 1 11 0;
#X connect 8 0 10 0;
#X connect 8 0 11 1;
#X connect 9 0 8 0;
#X connect 9 1 8 1;
#X connect 11 0 3 0;
#X connect 13 0 8 0;
#X connect 16 0 9 0;
#X restore 19 222 pd feel;
#X obj 58 196 r feel;
#X obj 19 196 & 255;
#N canvas 934 142 164 180 milliseconds 0;
#X obj 19 18 inlet;
#X obj 19 123 outlet;
#X obj 19 46 t b f;
#X obj 19 94 /;
#X text 18 150 1/16 note;
#X msg 19 70 15000;
#X connect 0 0 2 0;
#X connect 2 0 5 0;
#X connect 2 1 3 1;
#X connect 3 0 1 0;
#X connect 5 0 3 0;
#X restore 46 69 pd milliseconds;
#X text 85 46 BPM;
#X obj 60 118 s ticklength16;
#X text 58 140 1/16 note tick length;
#X floatatom 63 93 5 0 0 0 - - -;
#X obj 19 16 r signature16/16;
#X connect 0 0 10 0;
#X connect 2 0 3 0;
#X connect 3 0 9 0;
#X connect 4 0 5 0;
#X connect 5 0 2 0;
#X connect 7 0 1 0;
#X connect 8 0 7 1;
#X connect 8 0 6 0;
#X connect 9 0 2 1;
#X connect 9 0 7 0;
#X connect 10 0 5 1;
#X connect 10 0 12 0;
#X connect 10 0 14 0;
#X connect 15 0 4 0;
#X restore 14 602 pd 16/16;
#X obj 1144 1510 dac~ 1 2;
#X obj 85 790 float;
#X obj 159 788 + 1;
#X msg 1708 59 listen 10000;
#X obj 1708 88 netreceive -u -b 10000;
#X floatatom 1863 759 5 0 0 0 - - -;
#X obj 2107 178 netsend -u -b;
#X obj 2182 143 list trim;
#X obj 2182 116 list prepend send;
#X obj 2182 68 bng 15 250 50 0 empty empty empty 17 7 0 10 -262144
-1 -1;
#X obj 1708 175 route smc8;
#X obj 515 698 *;
#X obj 403 515 bng 15 250 50 0 empty empty empty 17 7 0 10 -262144
-1 -1;
#X obj 457 583 t b f;
#X obj 427 583 f;
#X obj 446 611 /;
#X obj 515 727 i;
#X obj 618 700 *;
#X obj 618 729 i;
#X obj 716 698 *;
#X obj 716 727 i;
#X obj 818 697 *;
#X obj 818 726 i;
#X obj 920 694 *;
#X obj 920 723 i;
#X obj 1020 694 *;
#X obj 1020 723 i;
#X obj 1121 692 *;
#X obj 1121 721 i;
#X obj 1219 690 *;
#X obj 1219 719 i;
#X obj 2117 581 bng 15 250 50 0 empty empty empty 17 7 0 10 -262144
-1 -1;
#X obj 2109 652 t b f;
#X obj 2079 652 f;
#X obj 2098 680 /;
#X obj 2054 729 *;
#X floatatom 2045 1094 5 0 0 0 - - -;
#X obj 2054 758 f;
#X obj 416 548 nbx 3 20 0 400 0 1 empty empty empty 0 -8 0 10 -262144
-1 -1 13 256;
#X obj 465 549 nbx 4 20 0 1023 0 1 empty empty empty 0 -8 0 10 -262144
-1 -1 1023 256;
#X obj 2076 615 nbx 4 20 0 1023 0 1 empty empty empty 0 -8 0 10 -262144
-1 -1 1 256;
#X obj 2131 617 nbx 4 20 0 1023 0 1 empty empty empty 0 -8 0 10 -262144
-1 -1 1023 256;
#X obj 1846 453 bng 15 250 50 0 empty empty empty 17 7 0 10 -262144
-1 -1;
#X obj 1879 523 t b f;
#X obj 1849 523 f;
#X obj 1868 551 /;
#X obj 1798 594 *;
#X obj 1798 623 i;
#X obj 1877 487 nbx 4 20 0 1023 0 1 empty empty empty 0 -8 0 10 -262144
-1 -1 1023 256;
#X obj 1823 484 nbx 4 20 0 1023 0 1 empty empty empty 0 -8 0 10 -262144
-1 -1 6 256;
#X obj 1798 662 route 0 1 2 3 4 5 6;
#X msg 1740 710 -12;
#X msg 1779 709 -7;
#X msg 1820 709 -3;
#X msg 1855 709 0;
#X msg 1893 709 3;
#X msg 1929 710 7;
#X msg 1966 710 12;
#X msg 2022 110 disconnect;
#X obj 1794 412 route Knob5;
#X obj 2182 90 oscformat /smc8/connect;
#X obj 1935 -89 bng 50 250 50 0 empty empty empty 17 7 0 10 -262144
-1 -1;
#X obj 1935 -21 delay 100;
#X obj 1935 3 delay 100;
#X text 1749 -74 TURN ON AND CONNECT PATCH;
#X obj 2359 91 oscformat /smc8/disconnect;
#X obj 752 1254 i;
#X obj 782 1254 i;
#X obj 812 1254 i;
#X obj 843 1254 i;
#X obj 874 1254 i;
#X obj 904 1254 i;
#X obj 933 1254 i;
#X obj 964 1254 i;
#X obj 744 289 route Sequencer2;
#X obj 1710 205 route Rhythm2;
#X obj 515 483 route Slider8;
#X obj 615 483 route Slider9;
#X obj 716 483 route Slider10;
#X obj 823 484 route Slider11;
#X obj 928 485 route Slider12;
#X obj 1044 484 route Slider13;
#X obj 1150 485 route Slider14;
#X obj 1259 484 route Slider15;
#X msg 2106 33 connect 192.168.1.81 11000;
#X obj 2054 403 route LDR2;
#X obj 2054 533 route Knob11;
#N canvas 647 73 793 596 silenceeeeeeeeeeeeeeee 1;
#X floatatom 142 55 5 -1 0 0 - - -;
#X obj 142 78 >= 0;
#X floatatom 142 102 5 0 0 0 - - -;
#X obj 59 181 bng 15 250 50 0 empty empty empty 17 7 0 10 -262144 -1
-1;
#X obj 59 144 spigot 0;
#X obj 34 61 bng 15 250 50 0 empty empty empty 17 7 0 10 -262144 -1
-1;
#X obj 34 33 inlet;
#X obj 142 31 inlet;
#X obj 59 214 outlet;
#X floatatom 302 56 5 -1 0 0 - - -;
#X obj 302 79 >= 0;
#X floatatom 302 103 5 0 0 0 - - -;
#X obj 219 182 bng 15 250 50 0 empty empty empty 17 7 0 10 -262144
-1 -1;
#X obj 219 145 spigot 0;
#X obj 194 62 bng 15 250 50 0 empty empty empty 17 7 0 10 -262144 -1
-1;
#X obj 194 34 inlet;
#X obj 302 32 inlet;
#X obj 219 215 outlet;
#X floatatom 474 54 5 -1 0 0 - - -;
#X obj 474 77 >= 0;
#X floatatom 474 101 5 0 0 0 - - -;
#X obj 391 180 bng 15 250 50 0 empty empty empty 17 7 0 10 -262144
-1 -1;
#X obj 391 143 spigot 0;
#X obj 366 60 bng 15 250 50 0 empty empty empty 17 7 0 10 -262144 -1
-1;
#X obj 366 32 inlet;
#X obj 474 30 inlet;
#X obj 391 213 outlet;
#X floatatom 634 52 5 -1 0 0 - - -;
#X obj 634 75 >= 0;
#X floatatom 634 99 5 0 0 0 - - -;
#X obj 551 178 bng 15 250 50 0 empty empty empty 17 7 0 10 -262144
-1 -1;
#X obj 551 141 spigot 0;
#X obj 526 58 bng 15 250 50 0 empty empty empty 17 7 0 10 -262144 -1
-1;
#X obj 526 30 inlet;
#X obj 634 28 inlet;
#X obj 551 211 outlet;
#X floatatom 792 51 5 -1 0 0 - - -;
#X obj 792 74 >= 0;
#X floatatom 792 98 5 0 0 0 - - -;
#X obj 709 177 bng 15 250 50 0 empty empty empty 17 7 0 10 -262144
-1 -1;
#X obj 709 140 spigot 0;
#X obj 684 57 bng 15 250 50 0 empty empty empty 17 7 0 10 -262144 -1
-1;
#X obj 684 29 inlet;
#X obj 792 27 inlet;
#X obj 709 210 outlet;
#X floatatom 953 51 5 -1 0 0 - - -;
#X obj 953 74 >= 0;
#X floatatom 953 98 5 0 0 0 - - -;
#X obj 870 177 bng 15 250 50 0 empty empty empty 17 7 0 10 -262144
-1 -1;
#X obj 870 140 spigot 0;
#X obj 845 57 bng 15 250 50 0 empty empty empty 17 7 0 10 -262144 -1
-1;
#X obj 845 29 inlet;
#X obj 953 27 inlet;
#X obj 870 210 outlet;
#X floatatom 1113 50 5 -1 0 0 - - -;
#X obj 1113 73 >= 0;
#X floatatom 1113 97 5 0 0 0 - - -;
#X obj 1030 176 bng 15 250 50 0 empty empty empty 17 7 0 10 -262144
-1 -1;
#X obj 1030 139 spigot 0;
#X obj 1005 56 bng 15 250 50 0 empty empty empty 17 7 0 10 -262144
-1 -1;
#X obj 1005 28 inlet;
#X obj 1113 26 inlet;
#X obj 1030 209 outlet;
#X floatatom 1276 48 5 -1 0 0 - - -;
#X obj 1276 71 >= 0;
#X floatatom 1276 95 5 0 0 0 - - -;
#X obj 1193 174 bng 15 250 50 0 empty empty empty 17 7 0 10 -262144
-1 -1;
#X obj 1193 137 spigot 0;
#X obj 1168 54 bng 15 250 50 0 empty empty empty 17 7 0 10 -262144
-1 -1;
#X obj 1168 26 inlet;
#X obj 1276 24 inlet;
#X obj 1193 207 outlet;
#X connect 0 0 1 0;
#X connect 1 0 2 0;
#X connect 2 0 4 1;
#X connect 3 0 8 0;
#X connect 4 0 3 0;
#X connect 5 0 4 0;
#X connect 6 0 5 0;
#X connect 7 0 0 0;
#X connect 9 0 10 0;
#X connect 10 0 11 0;
#X connect 11 0 13 1;
#X connect 12 0 17 0;
#X connect 13 0 12 0;
#X connect 14 0 13 0;
#X connect 15 0 14 0;
#X connect 16 0 9 0;
#X connect 18 0 19 0;
#X connect 19 0 20 0;
#X connect 20 0 22 1;
#X connect 21 0 26 0;
#X connect 22 0 21 0;
#X connect 23 0 22 0;
#X connect 24 0 23 0;
#X connect 25 0 18 0;
#X connect 27 0 28 0;
#X connect 28 0 29 0;
#X connect 29 0 31 1;
#X connect 30 0 35 0;
#X connect 31 0 30 0;
#X connect 32 0 31 0;
#X connect 33 0 32 0;
#X connect 34 0 27 0;
#X connect 36 0 37 0;
#X connect 37 0 38 0;
#X connect 38 0 40 1;
#X connect 39 0 44 0;
#X connect 40 0 39 0;
#X connect 41 0 40 0;
#X connect 42 0 41 0;
#X connect 43 0 36 0;
#X connect 45 0 46 0;
#X connect 46 0 47 0;
#X connect 47 0 49 1;
#X connect 48 0 53 0;
#X connect 49 0 48 0;
#X connect 50 0 49 0;
#X connect 51 0 50 0;
#X connect 52 0 45 0;
#X connect 54 0 55 0;
#X connect 55 0 56 0;
#X connect 56 0 58 1;
#X connect 57 0 62 0;
#X connect 58 0 57 0;
#X connect 59 0 58 0;
#X connect 60 0 59 0;
#X connect 61 0 54 0;
#X connect 63 0 64 0;
#X connect 64 0 65 0;
#X connect 65 0 67 1;
#X connect 66 0 71 0;
#X connect 67 0 66 0;
#X connect 68 0 67 0;
#X connect 69 0 68 0;
#X connect 70 0 63 0;
#X restore 50 1028 pd silenceeeeeeeeeeeeeeee;
#X obj 846 1364 drum_synth 1;
#X obj 333 1404 drum_synth 2;
#X obj 966 1426 +~;
#X floatatom 139 1300 5 0 0 0 - - -;
#X floatatom 185 1297 5 0 0 0 - - -;
#X floatatom 234 1297 5 0 0 0 - - -;
#X floatatom 281 1296 5 0 0 0 - - -;
#X floatatom 330 1297 5 0 0 0 - - -;
#X floatatom 380 1296 5 0 0 0 - - -;
#X floatatom 427 1295 5 0 0 0 - - -;
#X floatatom 477 1296 5 0 0 0 - - -;
#X obj 1156 1256 *~;
#X obj 1177 1142 change;
#X obj 1177 1169 sel 1;
#X obj 1176 1200 f 0;
#X obj 1227 1200 == 0;
#X floatatom 1175 1228 5 0 0 0 - - -;
#X obj 1176 1098 tgl 15 0 empty empty empty 17 7 0 10 -262144 -1 -1
1 1;
#X obj 1173 1060 bng 15 250 50 0 empty empty empty 17 7 0 10 -262144
-1 -1;
#X obj 1683 282 route Mixed2;
#X obj 1521 421 route Toggle2;
#X connect 0 0 1 0;
#X connect 1 0 2 0;
#X connect 2 0 123 0;
#X connect 2 1 123 2;
#X connect 2 2 123 4;
#X connect 2 3 123 6;
#X connect 2 4 123 8;
#X connect 2 5 123 10;
#X connect 2 6 123 12;
#X connect 2 7 123 14;
#X connect 3 0 102 1;
#X connect 4 0 103 1;
#X connect 5 0 104 1;
#X connect 6 0 105 1;
#X connect 7 0 106 1;
#X connect 8 0 107 1;
#X connect 9 0 108 1;
#X connect 10 0 109 1;
#X connect 11 0 12 0;
#X connect 12 0 46 0;
#X connect 13 0 36 0;
#X connect 13 0 36 1;
#X connect 14 0 15 0;
#X connect 15 0 16 0;
#X connect 16 0 13 1;
#X connect 19 0 35 0;
#X connect 19 0 34 0;
#X connect 22 0 21 0;
#X connect 27 0 28 0;
#X connect 29 0 30 0;
#X connect 30 0 37 0;
#X connect 31 0 32 0;
#X connect 34 0 25 0;
#X connect 34 0 26 0;
#X connect 35 0 24 0;
#X connect 35 0 26 0;
#X connect 37 0 0 0;
#X connect 37 0 38 0;
#X connect 38 0 37 1;
#X connect 39 0 40 0;
#X connect 40 0 11 0;
#X connect 43 0 42 0;
#X connect 44 0 43 0;
#X connect 45 0 96 0;
#X connect 46 0 111 0;
#X connect 47 0 52 0;
#X connect 48 0 74 0;
#X connect 48 0 75 0;
#X connect 49 0 50 0;
#X connect 49 1 51 1;
#X connect 50 0 51 0;
#X connect 51 0 47 1;
#X connect 51 0 53 1;
#X connect 51 0 55 1;
#X connect 51 0 57 1;
#X connect 51 0 59 1;
#X connect 51 0 61 1;
#X connect 51 0 63 1;
#X connect 51 0 65 1;
#X connect 52 0 3 0;
#X connect 53 0 54 0;
#X connect 54 0 4 0;
#X connect 55 0 56 0;
#X connect 56 0 5 0;
#X connect 57 0 58 0;
#X connect 58 0 6 0;
#X connect 59 0 60 0;
#X connect 60 0 7 0;
#X connect 61 0 62 0;
#X connect 62 0 8 0;
#X connect 63 0 64 0;
#X connect 64 0 9 0;
#X connect 65 0 66 0;
#X connect 66 0 10 0;
#X connect 67 0 76 0;
#X connect 67 0 77 0;
#X connect 68 0 69 0;
#X connect 68 1 70 1;
#X connect 69 0 70 0;
#X connect 70 0 71 1;
#X connect 71 0 73 0;
#X connect 72 0 14 0;
#X connect 73 0 72 0;
#X connect 74 0 50 0;
#X connect 75 0 49 0;
#X connect 76 0 69 0;
#X connect 77 0 68 0;
#X connect 78 0 85 0;
#X connect 78 0 84 0;
#X connect 79 0 80 0;
#X connect 79 1 81 1;
#X connect 80 0 81 0;
#X connect 81 0 82 1;
#X connect 82 0 83 0;
#X connect 83 0 86 0;
#X connect 84 0 79 0;
#X connect 85 0 80 0;
#X connect 86 0 87 0;
#X connect 86 1 88 0;
#X connect 86 2 89 0;
#X connect 86 3 90 0;
#X connect 86 4 91 0;
#X connect 86 5 92 0;
#X connect 86 6 93 0;
#X connect 87 0 41 0;
#X connect 88 0 41 0;
#X connect 89 0 41 0;
#X connect 90 0 41 0;
#X connect 91 0 41 0;
#X connect 92 0 41 0;
#X connect 93 0 41 0;
#X connect 94 0 42 0;
#X connect 95 0 82 0;
#X connect 95 0 78 0;
#X connect 96 0 44 0;
#X connect 97 0 98 0;
#X connect 97 0 120 0;
#X connect 98 0 45 0;
#X connect 98 0 99 0;
#X connect 99 0 39 0;
#X connect 101 0 44 0;
#X connect 102 0 124 0;
#X connect 103 0 124 0;
#X connect 104 0 124 0;
#X connect 105 0 124 0;
#X connect 106 0 124 0;
#X connect 107 0 124 0;
#X connect 108 0 124 0;
#X connect 109 0 124 0;
#X connect 110 0 48 0;
#X connect 110 0 112 0;
#X connect 110 0 113 0;
#X connect 110 0 114 0;
#X connect 110 0 115 0;
#X connect 110 0 116 0;
#X connect 110 0 117 0;
#X connect 110 0 118 0;
#X connect 110 0 119 0;
#X connect 111 0 110 0;
#X connect 111 0 121 0;
#X connect 111 0 143 0;
#X connect 112 0 47 0;
#X connect 113 0 53 0;
#X connect 114 0 55 0;
#X connect 115 0 57 0;
#X connect 116 0 59 0;
#X connect 117 0 61 0;
#X connect 118 0 63 0;
#X connect 119 0 65 0;
#X connect 120 0 42 0;
#X connect 121 0 122 0;
#X connect 122 0 67 0;
#X connect 122 0 71 0;
#X connect 123 0 102 0;
#X connect 123 0 127 0;
#X connect 123 1 103 0;
#X connect 123 1 128 0;
#X connect 123 2 104 0;
#X connect 123 2 129 0;
#X connect 123 3 105 0;
#X connect 123 3 130 0;
#X connect 123 4 106 0;
#X connect 123 4 131 0;
#X connect 123 5 107 0;
#X connect 123 5 132 0;
#X connect 123 6 108 0;
#X connect 123 6 133 0;
#X connect 123 7 109 0;
#X connect 123 7 134 0;
#X connect 124 0 126 1;
#X connect 125 0 135 0;
#X connect 126 0 13 0;
#X connect 127 0 125 0;
#X connect 128 0 125 0;
#X connect 129 0 125 0;
#X connect 130 0 125 0;
#X connect 131 0 125 0;
#X connect 132 0 125 0;
#X connect 133 0 125 0;
#X connect 134 0 125 0;
#X connect 135 0 126 0;
#X connect 136 0 137 0;
#X connect 137 0 138 0;
#X connect 138 0 139 0;
#X connect 138 0 140 0;
#X connect 139 0 138 1;
#X connect 140 0 135 1;
#X connect 141 0 136 0;
#X connect 142 0 141 0;
#X connect 143 0 95 0;
#X connect 143 0 144 0;
#X connect 144 0 142 0;
