#N canvas 138 109 1141 692 12;
#X obj 1142 58 inlet;
#X obj 336 587 outlet~;
#X obj 369 448 readsf~;
#X msg 1392 305 open Cabasa.wav \, 1;
#X msg 1214 305 open Snaredrum.wav \, 1;
#X msg 1065 305 open Clap.wav \, 1;
#X msg 921 305 open Ssth.wav \, 1;
#X msg 793 307 open Chh.wav \, 1;
#X msg 1704 305 open Crash.wav \, 1;
#X msg 386 308 open Tom.wav \, 1;
#X msg 507 306 open Ride.wav \, 1;
#X msg 243 307 open Tomh.wav \, 1;
#X msg 92 307 open Kickme.wav \, 1;
#X msg 660 305 open Tamb.wav \, 1;
#X msg 1548 304 open Congah.wav \, 1;
#X obj 1144 108 route 0 1 2 3 4 5 6 7 8 9 10 11 12;
#X connect 0 0 15 0;
#X connect 2 0 1 0;
#X connect 3 0 2 0;
#X connect 4 0 2 0;
#X connect 5 0 2 0;
#X connect 6 0 2 0;
#X connect 7 0 2 0;
#X connect 8 0 2 0;
#X connect 9 0 2 0;
#X connect 10 0 2 0;
#X connect 11 0 2 0;
#X connect 12 0 2 0;
#X connect 13 0 2 0;
#X connect 14 0 2 0;
#X connect 15 1 12 0;
#X connect 15 2 11 0;
#X connect 15 3 9 0;
#X connect 15 4 10 0;
#X connect 15 5 13 0;
#X connect 15 6 7 0;
#X connect 15 7 6 0;
#X connect 15 8 5 0;
#X connect 15 9 4 0;
#X connect 15 10 3 0;
#X connect 15 11 14 0;
#X connect 15 12 8 0;
