#N canvas 827 7 1080 966 12;
#X obj 169 512 drum_machine;
#X obj 324 724 dac~;
#X obj 321 330 oscparse;
#X obj 321 359 list trim;
#X msg 321 272 listen 10000;
#X obj 321 301 netreceive -u -b 10000;
#X obj 507 246 netsend -u -b;
#X obj 582 211 list trim;
#X obj 582 184 list prepend send;
#X obj 582 136 bng 15 250 50 0 empty empty empty 17 7 0 10 -262144
-1 -1;
#X msg 430 173 disconnect;
#X obj 582 158 oscformat /smc8/connect;
#X obj 321 49 bng 50 250 50 0 empty empty empty 17 7 0 10 -262144 -1
-1;
#X obj 321 117 delay 100;
#X obj 321 141 delay 100;
#X text 135 64 TURN ON AND CONNECT PATCH;
#X obj 759 159 oscformat /smc8/disconnect;
#X obj 273 513 seq_with_messages;
#X msg 508 99 connect 192.168.1.44 11000;
#N canvas -85 92 1524 817 tempo_and_swing 0;
#X obj 458 60 route smc8;
#X obj 485 177 bng 15 250 50 0 empty empty empty 17 7 0 10 -262144
-1 -1;
#X obj 521 250 t b f;
#X obj 491 250 f;
#X obj 510 278 /;
#X obj 458 309 *;
#X floatatom 458 412 5 0 0 0 - - -;
#X obj 485 215 nbx 4 20 0 1023 0 1 empty empty empty 0 -8 0 10 -262144
-1 -1 80 256;
#X obj 543 215 nbx 4 20 0 1023 0 1 empty empty empty 0 -8 0 10 -262144
-1 -1 1023 256;
#X obj 458 375 i;
#X obj 458 345 +;
#X obj 503 313 nbx 4 20 0 1023 0 1 empty empty empty 0 -8 0 10 -262144
-1 -1 80 256;
#X obj 458 119 route Broadcast0;
#X obj 458 88 route Console0;
#X obj 458 149 route Knob1;
#X obj 529 733 mod 8;
#X obj 529 791 hradio 15 1 0 8 empty empty empty 0 -8 0 10 -262144
-1 -1 4;
#X text 500 458 BPM;
#X obj 458 456 nbx 3 20 0 400 0 1 empty empty empty 0 -8 0 10 -262144
-1 -1 151 256;
#X obj 604 464 hsl 128 15 0 0.33 0 0 feel empty 16th-note-feel 20 8
0 10 -262144 -260097 -1 0 0;
#N canvas 526 170 191 127 time-signature 0;
#X obj 19 16 inlet;
#X obj 19 50 == 0;
#X obj 62 50 s signature12/16;
#X obj 19 77 s signature16/16;
#X connect 0 0 1 0;
#X connect 0 0 2 0;
#X connect 1 0 3 0;
#X restore 604 537 pd time-signature;
#X obj 604 494 vradio 15 1 1 2 empty empty empty 0 -8 0 10 -262144
-260097 -1 0;
#X text 623 494 4/4;
#X floatatom 458 545 5 0 0 0 - - -;
#X floatatom 515 545 5 0 0 0 - - -;
#X obj 458 574 s ticks;
#N canvas 472 450 176 55 sixteenths 0;
#X obj 20 24 r ticks;
#X obj 20 57 outlet;
#X connect 0 0 1 0;
#X restore 606 610 pd sixteenths;
#X obj 606 636 bng 15 50 50 0 empty empty empty 17 7 0 10 -262144 -1
-1;
#N canvas 472 450 140 141 eighths 0;
#X obj 20 24 r ticks;
#X obj 20 103 outlet;
#X obj 20 51 >> 1;
#X obj 20 77 change;
#X connect 0 0 2 0;
#X connect 2 0 3 0;
#X connect 3 0 1 0;
#X restore 529 610 pd eighths;
#X obj 529 636 bng 15 50 50 0 empty empty empty 17 7 0 10 -262144 -1
-1;
#N canvas 472 450 140 141 quarts 0;
#X obj 20 24 r ticks;
#X obj 20 103 outlet;
#X obj 20 77 change;
#X obj 20 51 >> 2;
#X connect 0 0 3 0;
#X connect 2 0 1 0;
#X connect 3 0 2 0;
#X restore 460 610 pd quarts;
#X obj 460 636 bng 15 50 50 0 empty empty empty 17 7 0 10 -262144 -1
-1;
#X text 623 509 12/16;
#N canvas 476 430 171 317 12/16 0;
#X obj 42 41 inlet;
#X obj 15 275 outlet;
#X obj 15 42 tgl 15 0 empty empty empty 17 7 0 10 -262144 -1 -1 0 1
;
#X obj 15 92 metro;
#X obj 15 197 +;
#X obj 15 172 f 1;
#N canvas 0 22 141 214 skipticks 0;
#X obj 26 47 inlet;
#X obj 26 161 outlet;
#X obj 26 79 & 3;
#X obj 26 106 sel 2;
#X msg 26 131 2;
#X msg 55 131 1;
#X connect 0 0 2 0;
#X connect 2 0 3 0;
#X connect 3 0 4 0;
#X connect 3 1 5 0;
#X connect 4 0 1 0;
#X connect 5 0 1 0;
#X restore 30 145 pd skipticks;
#X obj 15 223 & 255;
#N canvas 934 142 156 171 milliseconds 0;
#X obj 19 18 inlet;
#X obj 19 127 outlet;
#X obj 19 46 t b f;
#X obj 19 94 /;
#X text 18 150 1/12 note;
#X msg 19 70 20000;
#X connect 0 0 2 0;
#X connect 2 0 5 0;
#X connect 2 1 3 1;
#X connect 3 0 1 0;
#X connect 5 0 3 0;
#X restore 42 67 pd milliseconds;
#X text 80 41 BPM;
#X floatatom 42 116 5 0 0 0 - - -;
#X obj 15 11 r signature12/16;
#X floatatom 67 250 5 0 0 0 - - -;
#N canvas 197 486 215 265 feel 0;
#X obj 21 86 & 1;
#X obj 21 58 t f f;
#X obj 21 25 inlet;
#X obj 21 221 outlet;
#X obj 21 126 pack;
#X obj 21 152 route 0 1;
#X text 16 170 even;
#X text 56 170 odd;
#X obj 89 152 *;
#X obj 99 125 t b f;
#X floatatom 89 192 5 0 0 0 - - -;
#X obj 46 191 pipe;
#X text 127 192 milliseconds;
#X obj 89 26 inlet;
#X text 19 4 ticks;
#X text 87 5 feel;
#X obj 99 96 r ticklength12;
#X connect 0 0 4 0;
#X connect 1 0 0 0;
#X connect 1 1 4 1;
#X connect 2 0 1 0;
#X connect 4 0 5 0;
#X connect 5 0 3 0;
#X connect 5 1 11 0;
#X connect 8 0 10 0;
#X connect 8 0 11 1;
#X connect 9 0 8 0;
#X connect 9 1 8 1;
#X connect 11 0 3 0;
#X connect 13 0 8 0;
#X connect 16 0 9 0;
#X restore 15 249 pd feel;
#X obj 54 223 r feel;
#X obj 54 92 s ticklength12;
#X connect 0 0 8 0;
#X connect 2 0 3 0;
#X connect 3 0 5 0;
#X connect 4 0 7 0;
#X connect 5 0 4 0;
#X connect 6 0 5 1;
#X connect 7 0 4 1;
#X connect 7 0 6 0;
#X connect 7 0 13 0;
#X connect 8 0 3 1;
#X connect 8 0 10 0;
#X connect 8 0 15 0;
#X connect 11 0 2 0;
#X connect 13 0 1 0;
#X connect 14 0 13 1;
#X connect 14 0 12 0;
#X restore 515 515 pd 12/16;
#N canvas 653 431 199 282 16/16 0;
#X obj 46 45 inlet;
#X obj 19 251 outlet;
#X obj 19 143 f;
#X obj 19 168 + 1;
#X obj 19 46 tgl 15 0 empty empty empty 17 7 0 10 -262144 -1 -1 1 1
;
#X obj 19 118 metro;
#X floatatom 71 223 5 0 0 0 - - -;
#N canvas 813 182 215 265 feel 0;
#X obj 21 86 & 1;
#X obj 21 58 t f f;
#X obj 21 25 inlet;
#X obj 21 221 outlet;
#X obj 21 126 pack;
#X obj 21 152 route 0 1;
#X text 16 170 even;
#X text 56 170 odd;
#X obj 89 152 *;
#X obj 99 125 t b f;
#X floatatom 89 192 5 0 0 0 - - -;
#X obj 46 191 pipe;
#X text 127 192 milliseconds;
#X obj 89 26 inlet;
#X text 19 4 ticks;
#X text 87 5 feel;
#X obj 99 91 r ticklength16;
#X connect 0 0 4 0;
#X connect 1 0 0 0;
#X connect 1 1 4 1;
#X connect 2 0 1 0;
#X connect 4 0 5 0;
#X connect 5 0 3 0;
#X connect 5 1 11 0;
#X connect 8 0 10 0;
#X connect 8 0 11 1;
#X connect 9 0 8 0;
#X connect 9 1 8 1;
#X connect 11 0 3 0;
#X connect 13 0 8 0;
#X connect 16 0 9 0;
#X restore 19 222 pd feel;
#X obj 58 196 r feel;
#X obj 19 196 & 255;
#N canvas 934 142 164 180 milliseconds 0;
#X obj 19 18 inlet;
#X obj 19 123 outlet;
#X obj 19 46 t b f;
#X obj 19 94 /;
#X text 18 150 1/16 note;
#X msg 19 70 15000;
#X connect 0 0 2 0;
#X connect 2 0 5 0;
#X connect 2 1 3 1;
#X connect 3 0 1 0;
#X connect 5 0 3 0;
#X restore 46 69 pd milliseconds;
#X text 85 46 BPM;
#X obj 60 118 s ticklength16;
#X text 58 140 1/16 note tick length;
#X floatatom 63 93 5 0 0 0 - - -;
#X obj 19 16 r signature16/16;
#X connect 0 0 10 0;
#X connect 2 0 3 0;
#X connect 3 0 9 0;
#X connect 4 0 5 0;
#X connect 5 0 2 0;
#X connect 7 0 1 0;
#X connect 8 0 7 1;
#X connect 8 0 6 0;
#X connect 9 0 2 1;
#X connect 9 0 7 0;
#X connect 10 0 5 1;
#X connect 10 0 12 0;
#X connect 10 0 14 0;
#X connect 15 0 4 0;
#X restore 458 515 pd 16/16;
#X obj 529 703 float;
#X obj 603 701 + 1;
#X obj 458 31 inlet;
#X obj 529 811 outlet;
#X connect 0 0 13 0;
#X connect 1 0 7 0;
#X connect 1 0 8 0;
#X connect 2 0 3 0;
#X connect 2 1 4 1;
#X connect 3 0 4 0;
#X connect 4 0 5 1;
#X connect 5 0 10 0;
#X connect 6 0 18 0;
#X connect 7 0 3 0;
#X connect 8 0 2 0;
#X connect 9 0 6 0;
#X connect 10 0 9 0;
#X connect 11 0 10 1;
#X connect 12 0 14 0;
#X connect 13 0 12 0;
#X connect 14 0 1 0;
#X connect 14 0 5 0;
#X connect 15 0 16 0;
#X connect 16 0 38 0;
#X connect 18 0 34 0;
#X connect 18 0 33 0;
#X connect 21 0 20 0;
#X connect 26 0 27 0;
#X connect 28 0 29 0;
#X connect 29 0 35 0;
#X connect 30 0 31 0;
#X connect 33 0 24 0;
#X connect 33 0 25 0;
#X connect 34 0 23 0;
#X connect 34 0 25 0;
#X connect 35 0 15 0;
#X connect 35 0 36 0;
#X connect 36 0 35 1;
#X connect 37 0 0 0;
#X restore 95 427 pd tempo_and_swing;
#N canvas 0 50 1284 880 master_volume 0;
#X obj 258 279 bng 15 250 50 0 empty empty empty 17 7 0 10 -262144
-1 -1;
#X obj 250 350 t b f;
#X obj 220 350 f;
#X obj 239 378 /;
#X obj 195 427 *;
#X floatatom 195 496 5 0 0 0 - - -;
#X obj 195 456 f;
#X obj 217 313 nbx 4 20 0 1023 0 1 empty empty empty 0 -8 0 10 -262144
-1 -1 1 256;
#X obj 272 315 nbx 4 20 0 1023 0 1 empty empty empty 0 -8 0 10 -262144
-1 -1 1023 256;
#X obj 195 102 route smc8;
#X obj 195 161 route Broadcast0;
#X obj 195 130 route Console0;
#X obj 195 73 inlet;
#X obj 195 216 route Knob0;
#X obj 195 528 outlet;
#X connect 0 0 7 0;
#X connect 0 0 8 0;
#X connect 1 0 2 0;
#X connect 1 1 3 1;
#X connect 2 0 3 0;
#X connect 3 0 4 1;
#X connect 4 0 6 0;
#X connect 5 0 14 0;
#X connect 6 0 5 0;
#X connect 7 0 2 0;
#X connect 8 0 1 0;
#X connect 9 0 11 0;
#X connect 10 0 13 0;
#X connect 11 0 10 0;
#X connect 12 0 9 0;
#X connect 13 0 0 0;
#X connect 13 0 4 0;
#X restore 482 411 pd master_volume;
#X obj 482 446 vsl 15 128 0 1 0 0 empty empty empty 0 -9 0 10 -258113
-1 -1 12700 1;
#X msg 482 592 \$1 100;
#X obj 482 624 line~;
#X text 425 448 Volume;
#X obj 359 682 *~;
#X obj 302 682 *~;
#X obj 759 139 bng 15 250 50 0 empty empty empty 17 7 0 10 -262144
-1 -1;
#X connect 0 0 26 0;
#X connect 2 0 3 0;
#X connect 3 0 17 1;
#X connect 3 0 0 1;
#X connect 3 0 19 0;
#X connect 3 0 20 0;
#X connect 4 0 5 0;
#X connect 5 0 2 0;
#X connect 7 0 6 0;
#X connect 8 0 7 0;
#X connect 9 0 11 0;
#X connect 10 0 6 0;
#X connect 11 0 8 0;
#X connect 12 0 13 0;
#X connect 12 0 18 0;
#X connect 13 0 9 0;
#X connect 13 0 14 0;
#X connect 14 0 4 0;
#X connect 16 0 8 0;
#X connect 17 0 25 0;
#X connect 18 0 6 0;
#X connect 19 0 0 0;
#X connect 19 0 17 0;
#X connect 20 0 21 0;
#X connect 21 0 22 0;
#X connect 22 0 23 0;
#X connect 23 0 25 1;
#X connect 23 0 26 1;
#X connect 25 0 1 0;
#X connect 25 0 1 1;
#X connect 26 0 1 0;
#X connect 26 0 1 1;
#X connect 27 0 16 0;
