#N canvas 393 87 1041 698 12;
#X obj 330 141 inlet;
#X obj 95 284 nbx 4 20 0 1023 0 1 empty empty empty 0 -8 0 10 -262144
-1 -1 0 256;
#X obj 159 286 nbx 4 20 0 1023 0 1 empty empty empty 0 -8 0 10 -262144
-1 -1 2 256;
#X obj 220 286 nbx 4 20 0 1023 0 1 empty empty empty 0 -8 0 10 -262144
-1 -1 4 256;
#X obj 282 286 nbx 4 20 0 1023 0 1 empty empty empty 0 -8 0 10 -262144
-1 -1 5 256;
#X obj 350 287 nbx 4 20 0 1023 0 1 empty empty empty 0 -8 0 10 -262144
-1 -1 7 256;
#X obj 415 287 nbx 4 20 0 1023 0 1 empty empty empty 0 -8 0 10 -262144
-1 -1 9 256;
#X obj 477 288 nbx 4 20 0 1023 0 1 empty empty empty 0 -8 0 10 -262144
-1 -1 11 256;
#X obj 539 288 nbx 4 20 0 1023 0 1 empty empty empty 0 -8 0 10 -262144
-1 -1 12 256;
#X obj 596 288 nbx 4 20 0 1023 0 1 empty empty empty 0 -8 0 10 -262144
-1 -1 14 256;
#X obj 653 288 nbx 4 20 0 1023 0 1 empty empty empty 0 -8 0 10 -262144
-1 -1 16 256;
#X obj 706 288 nbx 4 20 0 1023 0 1 empty empty empty 0 -8 0 10 -262144
-1 -1 17 256;
#X obj 761 288 nbx 4 20 0 1023 0 1 empty empty empty 0 -8 0 10 -262144
-1 -1 19 256;
#X obj 816 288 nbx 4 20 0 1023 0 1 empty empty empty 0 -8 0 10 -262144
-1 -1 21 256;
#X obj 423 384 outlet;
#X obj 39 283 nbx 4 20 -200 1023 0 1 empty empty empty 0 -8 0 10 -262144
-1 -1 -1 256;
#X obj 330 191 route 0 1 2 3 4 5 6 7 8 9 10 11 12 13;
#X connect 0 0 16 0;
#X connect 1 0 14 0;
#X connect 2 0 14 0;
#X connect 3 0 14 0;
#X connect 4 0 14 0;
#X connect 5 0 14 0;
#X connect 6 0 14 0;
#X connect 7 0 14 0;
#X connect 8 0 14 0;
#X connect 9 0 14 0;
#X connect 10 0 14 0;
#X connect 11 0 14 0;
#X connect 12 0 14 0;
#X connect 13 0 14 0;
#X connect 15 0 14 0;
#X connect 16 0 15 0;
#X connect 16 1 1 0;
#X connect 16 2 2 0;
#X connect 16 3 3 0;
#X connect 16 4 4 0;
#X connect 16 5 5 0;
#X connect 16 6 6 0;
#X connect 16 7 7 0;
#X connect 16 8 8 0;
#X connect 16 9 9 0;
#X connect 16 10 10 0;
#X connect 16 11 11 0;
#X connect 16 12 12 0;
#X connect 16 13 13 0;
