#N canvas 79 46 1064 474 12;
#X obj 331 28 inlet;
#X obj 104 147 nbx 4 20 0 1023 0 1 empty empty empty 0 -8 0 10 -262144
-1 -1 0 256;
#X obj 168 149 nbx 4 20 0 1023 0 1 empty empty empty 0 -8 0 10 -262144
-1 -1 2 256;
#X obj 229 149 nbx 4 20 0 1023 0 1 empty empty empty 0 -8 0 10 -262144
-1 -1 3 256;
#X obj 291 149 nbx 4 20 0 1023 0 1 empty empty empty 0 -8 0 10 -262144
-1 -1 5 256;
#X obj 359 150 nbx 4 20 0 1023 0 1 empty empty empty 0 -8 0 10 -262144
-1 -1 7 256;
#X obj 424 150 nbx 4 20 0 1023 0 1 empty empty empty 0 -8 0 10 -262144
-1 -1 8 256;
#X obj 486 151 nbx 4 20 0 1023 0 1 empty empty empty 0 -8 0 10 -262144
-1 -1 10 256;
#X obj 548 151 nbx 4 20 0 1023 0 1 empty empty empty 0 -8 0 10 -262144
-1 -1 12 256;
#X obj 605 151 nbx 4 20 0 1023 0 1 empty empty empty 0 -8 0 10 -262144
-1 -1 14 256;
#X obj 662 151 nbx 4 20 0 1023 0 1 empty empty empty 0 -8 0 10 -262144
-1 -1 15 256;
#X obj 715 151 nbx 4 20 0 1023 0 1 empty empty empty 0 -8 0 10 -262144
-1 -1 17 256;
#X obj 770 151 nbx 4 20 0 1023 0 1 empty empty empty 0 -8 0 10 -262144
-1 -1 19 256;
#X obj 825 151 nbx 4 20 0 1023 0 1 empty empty empty 0 -8 0 10 -262144
-1 -1 20 256;
#X obj 433 247 outlet;
#X obj 45 147 nbx 4 20 -1 1023 0 1 empty empty empty 0 -8 0 10 -262144
-1 -1 -1 256;
#X obj 331 74 route 0 1 2 3 4 5 6 7 8 9 10 11 12 13;
#X connect 0 0 16 0;
#X connect 1 0 14 0;
#X connect 2 0 14 0;
#X connect 3 0 14 0;
#X connect 4 0 14 0;
#X connect 5 0 14 0;
#X connect 6 0 14 0;
#X connect 7 0 14 0;
#X connect 8 0 14 0;
#X connect 9 0 14 0;
#X connect 10 0 14 0;
#X connect 11 0 14 0;
#X connect 12 0 14 0;
#X connect 13 0 14 0;
#X connect 15 0 14 0;
#X connect 16 0 15 0;
#X connect 16 1 1 0;
#X connect 16 2 2 0;
#X connect 16 3 3 0;
#X connect 16 4 4 0;
#X connect 16 5 5 0;
#X connect 16 6 6 0;
#X connect 16 7 7 0;
#X connect 16 8 8 0;
#X connect 16 9 9 0;
#X connect 16 10 10 0;
#X connect 16 11 11 0;
#X connect 16 12 12 0;
#X connect 16 13 13 0;
