#N canvas 176 43 809 502 12;
#X obj 311 163 inlet;
#X obj 21 284 nbx 4 20 -1 1023 0 1 empty empty empty 0 -8 0 10 -262144
-1 -1 -1 256;
#X obj 85 286 nbx 4 20 0 1023 0 1 empty empty empty 0 -8 0 10 -262144
-1 -1 0 256;
#X obj 146 286 nbx 4 20 0 1023 0 1 empty empty empty 0 -8 0 10 -262144
-1 -1 3 256;
#X obj 208 286 nbx 4 20 0 1023 0 1 empty empty empty 0 -8 0 10 -262144
-1 -1 5 256;
#X obj 276 287 nbx 4 20 0 1023 0 1 empty empty empty 0 -8 0 10 -262144
-1 -1 7 256;
#X obj 341 287 nbx 4 20 0 1023 0 1 empty empty empty 0 -8 0 10 -262144
-1 -1 10 256;
#X obj 403 288 nbx 4 20 0 1023 0 1 empty empty empty 0 -8 0 10 -262144
-1 -1 12 256;
#X obj 465 288 nbx 4 20 0 1023 0 1 empty empty empty 0 -8 0 10 -262144
-1 -1 15 256;
#X obj 522 288 nbx 4 20 0 1023 0 1 empty empty empty 0 -8 0 10 -262144
-1 -1 17 256;
#X obj 579 288 nbx 4 20 0 1023 0 1 empty empty empty 0 -8 0 10 -262144
-1 -1 19 256;
#X obj 632 288 nbx 4 20 0 1023 0 1 empty empty empty 0 -8 0 10 -262144
-1 -1 22 256;
#X obj 687 288 nbx 4 20 0 1023 0 1 empty empty empty 0 -8 0 10 -262144
-1 -1 24 256;
#X obj 742 288 nbx 4 20 0 1023 0 1 empty empty empty 0 -8 0 10 -262144
-1 -1 27 256;
#X obj 798 288 nbx 4 20 0 1023 0 1 empty empty empty 0 -8 0 10 -262144
-1 -1 29 256;
#X obj 385 387 outlet;
#X obj 311 209 route 0 1 2 3 4 5 6 7 8 9 10 11 12 13;
#X connect 0 0 16 0;
#X connect 1 0 15 0;
#X connect 2 0 15 0;
#X connect 3 0 15 0;
#X connect 4 0 15 0;
#X connect 5 0 15 0;
#X connect 6 0 15 0;
#X connect 7 0 15 0;
#X connect 8 0 15 0;
#X connect 9 0 15 0;
#X connect 10 0 15 0;
#X connect 11 0 15 0;
#X connect 12 0 15 0;
#X connect 13 0 15 0;
#X connect 14 0 15 0;
#X connect 16 0 1 0;
#X connect 16 1 2 0;
#X connect 16 2 3 0;
#X connect 16 3 4 0;
#X connect 16 4 5 0;
#X connect 16 5 6 0;
#X connect 16 6 7 0;
#X connect 16 7 8 0;
#X connect 16 8 9 0;
#X connect 16 9 10 0;
#X connect 16 10 11 0;
#X connect 16 11 12 0;
#X connect 16 12 13 0;
#X connect 16 13 14 0;
