#N canvas 996 52 888 531 12;
#X obj 831 327 inlet;
#X obj 69 145 receive step;
#X floatatom 69 179 5 0 0 0 - - -;
#X obj 44 180 bng 15 250 50 0 empty empty empty 17 7 0 10 -262144 -1
-1;
#X obj 758 -70 inlet;
#X text 722 -71 mode;
#X obj 836 619 outlet;
#X obj 271 147 == 0;
#X text 227 148 Major;
#X obj 232 260 spigot;
#N canvas 929 49 898 354 major_third 0;
#X obj 339 98 route 1 2 3 4 5 6 7 8 9 10 11 12;
#X obj 152 183 nbx 4 20 0 1023 0 1 empty empty empty 0 -8 0 10 -262144
-1 -1 3 256;
#X obj 88 183 nbx 4 20 0 1023 0 1 empty empty empty 0 -8 0 10 -262144
-1 -1 4 256;
#X obj 406 183 nbx 4 20 0 1023 0 1 empty empty empty 0 -8 0 10 -262144
-1 -1 3 256;
#X obj 218 183 nbx 4 20 0 1023 0 1 empty empty empty 0 -8 0 10 -262144
-1 -1 3 256;
#X obj 281 183 nbx 4 20 0 1023 0 1 empty empty empty 0 -8 0 10 -262144
-1 -1 4 256;
#X obj 345 183 nbx 4 20 0 1023 0 1 empty empty empty 0 -8 0 10 -262144
-1 -1 4 256;
#X obj 533 184 nbx 4 20 0 1023 0 1 empty empty empty 0 -8 0 10 -262144
-1 -1 4 256;
#X obj 469 184 nbx 4 20 0 1023 0 1 empty empty empty 0 -8 0 10 -262144
-1 -1 3 256;
#X obj 791 184 nbx 4 20 0 1023 0 1 empty empty empty 0 -8 0 10 -262144
-1 -1 4 256;
#X obj 599 182 nbx 4 20 0 1023 0 1 empty empty empty 0 -8 0 10 -262144
-1 -1 3 256;
#X obj 667 182 nbx 4 20 0 1023 0 1 empty empty empty 0 -8 0 10 -262144
-1 -1 3 256;
#X obj 731 184 nbx 4 20 0 1023 0 1 empty empty empty 0 -8 0 10 -262144
-1 -1 4 256;
#X obj 435 285 outlet;
#X floatatom 339 70 5 0 0 0 - - -;
#X obj 339 40 inlet;
#X connect 0 0 2 0;
#X connect 0 1 1 0;
#X connect 0 2 4 0;
#X connect 0 3 5 0;
#X connect 0 4 6 0;
#X connect 0 5 3 0;
#X connect 0 6 8 0;
#X connect 0 7 7 0;
#X connect 0 8 10 0;
#X connect 0 9 11 0;
#X connect 0 10 12 0;
#X connect 0 11 9 0;
#X connect 1 0 13 0;
#X connect 2 0 13 0;
#X connect 3 0 13 0;
#X connect 4 0 13 0;
#X connect 5 0 13 0;
#X connect 6 0 13 0;
#X connect 7 0 13 0;
#X connect 8 0 13 0;
#X connect 9 0 13 0;
#X connect 10 0 13 0;
#X connect 11 0 13 0;
#X connect 12 0 13 0;
#X connect 14 0 0 0;
#X connect 15 0 14 0;
#X restore 232 297 pd major_third;
#X obj 356 259 spigot;
#X obj 474 259 spigot;
#X obj 592 259 spigot;
#X text 351 147 Minor;
#X text 436 147 Pentatonic;
#X text 561 147 Chromatic;
#N canvas 0 50 898 354 minor_third 0;
#X obj 366 98 route 1 2 3 4 5 6 7 8 9 10 11 12;
#X obj 112 187 nbx 4 20 0 1023 0 1 empty empty empty 0 -8 0 10 -262144
-1 -1 3 256;
#X obj 239 187 nbx 4 20 0 1023 0 1 empty empty empty 0 -8 0 10 -262144
-1 -1 4 256;
#X obj 175 187 nbx 4 20 0 1023 0 1 empty empty empty 0 -8 0 10 -262144
-1 -1 3 256;
#X obj 497 187 nbx 4 20 0 1023 0 1 empty empty empty 0 -8 0 10 -262144
-1 -1 4 256;
#X obj 305 187 nbx 4 20 0 1023 0 1 empty empty empty 0 -8 0 10 -262144
-1 -1 3 256;
#X obj 373 187 nbx 4 20 0 1023 0 1 empty empty empty 0 -8 0 10 -262144
-1 -1 3 256;
#X obj 437 187 nbx 4 20 0 1023 0 1 empty empty empty 0 -8 0 10 -262144
-1 -1 4 256;
#X obj 464 285 outlet;
#X floatatom 366 70 5 0 0 0 - - -;
#X obj 366 40 inlet;
#X obj 565 187 nbx 4 20 0 1023 0 1 empty empty empty 0 -8 0 10 -262144
-1 -1 3 256;
#X obj 692 187 nbx 4 20 0 1023 0 1 empty empty empty 0 -8 0 10 -262144
-1 -1 4 256;
#X obj 628 187 nbx 4 20 0 1023 0 1 empty empty empty 0 -8 0 10 -262144
-1 -1 3 256;
#X obj 758 187 nbx 4 20 0 1023 0 1 empty empty empty 0 -8 0 10 -262144
-1 -1 3 256;
#X obj 826 187 nbx 4 20 0 1023 0 1 empty empty empty 0 -8 0 10 -262144
-1 -1 3 256;
#X connect 0 0 1 0;
#X connect 0 1 3 0;
#X connect 0 2 2 0;
#X connect 0 3 5 0;
#X connect 0 4 6 0;
#X connect 0 5 7 0;
#X connect 0 6 4 0;
#X connect 0 7 11 0;
#X connect 0 8 13 0;
#X connect 0 9 12 0;
#X connect 0 10 14 0;
#X connect 0 11 15 0;
#X connect 1 0 8 0;
#X connect 2 0 8 0;
#X connect 3 0 8 0;
#X connect 4 0 8 0;
#X connect 5 0 8 0;
#X connect 6 0 8 0;
#X connect 7 0 8 0;
#X connect 9 0 0 0;
#X connect 10 0 9 0;
#X connect 11 0 8 0;
#X connect 12 0 8 0;
#X connect 13 0 8 0;
#X connect 14 0 8 0;
#X connect 15 0 8 0;
#X restore 356 296 pd minor_third;
#N canvas 573 66 898 354 pent_third 0;
#X obj 339 98 route 1 2 3 4 5 6 7 8 9 10 11 12;
#X obj 152 183 nbx 4 20 0 1023 0 1 empty empty empty 0 -8 0 10 -262144
-1 -1 4 256;
#X obj 88 183 nbx 4 20 0 1023 0 1 empty empty empty 0 -8 0 10 -262144
-1 -1 3 256;
#X obj 406 183 nbx 4 20 0 1023 0 1 empty empty empty 0 -8 0 10 -262144
-1 -1 3 256;
#X obj 218 183 nbx 4 20 0 1023 0 1 empty empty empty 0 -8 0 10 -262144
-1 -1 3 256;
#X obj 281 183 nbx 4 20 0 1023 0 1 empty empty empty 0 -8 0 10 -262144
-1 -1 3 256;
#X obj 345 183 nbx 4 20 0 1023 0 1 empty empty empty 0 -8 0 10 -262144
-1 -1 4 256;
#X obj 533 184 nbx 4 20 0 1023 0 1 empty empty empty 0 -8 0 10 -262144
-1 -1 3 256;
#X obj 469 184 nbx 4 20 0 1023 0 1 empty empty empty 0 -8 0 10 -262144
-1 -1 4 256;
#X obj 791 184 nbx 4 20 0 1023 0 1 empty empty empty 0 -8 0 10 -262144
-1 -1 4 256;
#X obj 599 182 nbx 4 20 0 1023 0 1 empty empty empty 0 -8 0 10 -262144
-1 -1 3 256;
#X obj 667 182 nbx 4 20 0 1023 0 1 empty empty empty 0 -8 0 10 -262144
-1 -1 4 256;
#X obj 731 184 nbx 4 20 0 1023 0 1 empty empty empty 0 -8 0 10 -262144
-1 -1 3 256;
#X obj 435 285 outlet;
#X floatatom 339 70 5 0 0 0 - - -;
#X obj 339 40 inlet;
#X connect 0 0 2 0;
#X connect 0 1 1 0;
#X connect 0 2 4 0;
#X connect 0 3 5 0;
#X connect 0 4 6 0;
#X connect 0 5 3 0;
#X connect 0 6 8 0;
#X connect 0 7 7 0;
#X connect 0 8 10 0;
#X connect 0 9 11 0;
#X connect 0 10 12 0;
#X connect 0 11 9 0;
#X connect 1 0 13 0;
#X connect 2 0 13 0;
#X connect 3 0 13 0;
#X connect 4 0 13 0;
#X connect 5 0 13 0;
#X connect 6 0 13 0;
#X connect 7 0 13 0;
#X connect 8 0 13 0;
#X connect 9 0 13 0;
#X connect 10 0 13 0;
#X connect 11 0 13 0;
#X connect 12 0 13 0;
#X connect 14 0 0 0;
#X connect 15 0 14 0;
#X restore 474 296 pd pent_third;
#N canvas 0 50 898 354 chrom_third 0;
#X obj 339 98 route 1 2 3 4 5 6 7 8 9 10 11 12;
#X obj 152 183 nbx 4 20 0 1023 0 1 empty empty empty 0 -8 0 10 -262144
-1 -1 3 256;
#X obj 88 183 nbx 4 20 0 1023 0 1 empty empty empty 0 -8 0 10 -262144
-1 -1 3 256;
#X obj 406 183 nbx 4 20 0 1023 0 1 empty empty empty 0 -8 0 10 -262144
-1 -1 3 256;
#X obj 218 183 nbx 4 20 0 1023 0 1 empty empty empty 0 -8 0 10 -262144
-1 -1 3 256;
#X obj 281 183 nbx 4 20 0 1023 0 1 empty empty empty 0 -8 0 10 -262144
-1 -1 3 256;
#X obj 345 183 nbx 4 20 0 1023 0 1 empty empty empty 0 -8 0 10 -262144
-1 -1 3 256;
#X obj 533 184 nbx 4 20 0 1023 0 1 empty empty empty 0 -8 0 10 -262144
-1 -1 3 256;
#X obj 469 184 nbx 4 20 0 1023 0 1 empty empty empty 0 -8 0 10 -262144
-1 -1 3 256;
#X obj 791 184 nbx 4 20 0 1023 0 1 empty empty empty 0 -8 0 10 -262144
-1 -1 3 256;
#X obj 599 182 nbx 4 20 0 1023 0 1 empty empty empty 0 -8 0 10 -262144
-1 -1 3 256;
#X obj 667 182 nbx 4 20 0 1023 0 1 empty empty empty 0 -8 0 10 -262144
-1 -1 3 256;
#X obj 731 184 nbx 4 20 0 1023 0 1 empty empty empty 0 -8 0 10 -262144
-1 -1 3 256;
#X obj 435 285 outlet;
#X floatatom 339 70 5 0 0 0 - - -;
#X obj 339 40 inlet;
#X connect 0 0 2 0;
#X connect 0 1 1 0;
#X connect 0 2 4 0;
#X connect 0 3 5 0;
#X connect 0 4 6 0;
#X connect 0 5 3 0;
#X connect 0 6 8 0;
#X connect 0 7 7 0;
#X connect 0 8 10 0;
#X connect 0 9 11 0;
#X connect 0 10 12 0;
#X connect 0 11 9 0;
#X connect 1 0 13 0;
#X connect 2 0 13 0;
#X connect 3 0 13 0;
#X connect 4 0 13 0;
#X connect 5 0 13 0;
#X connect 6 0 13 0;
#X connect 7 0 13 0;
#X connect 8 0 13 0;
#X connect 9 0 13 0;
#X connect 10 0 13 0;
#X connect 11 0 13 0;
#X connect 12 0 13 0;
#X connect 14 0 0 0;
#X connect 15 0 14 0;
#X restore 592 296 pd chrom_third;
#X obj 395 146 == 1;
#X obj 513 146 == 2;
#X obj 631 146 == 3;
#X text 767 327 activate;
#X obj 724 456 spigot;
#X floatatom 724 484 5 0 0 0 - - -;
#X obj 763 428 tgl 15 0 empty empty empty 17 7 0 10 -262144 -1 -1 0
1;
#X obj 271 177 tgl 15 0 empty empty empty 17 7 0 10 -262144 -1 -1 0
1;
#X obj 395 176 tgl 15 0 empty empty empty 17 7 0 10 -262144 -1 -1 0
1;
#X obj 513 176 tgl 15 0 empty empty empty 17 7 0 10 -262144 -1 -1 0
1;
#X obj 631 177 tgl 15 0 empty empty empty 17 7 0 10 -262144 -1 -1 1
1;
#X obj 787 157 receive step;
#X floatatom 787 191 5 0 0 0 - - -;
#X obj 762 192 bng 15 250 50 0 empty empty empty 17 7 0 10 -262144
-1 -1;
#X obj 989 159 == 0;
#X text 945 160 Major;
#X obj 950 272 spigot;
#X obj 1074 271 spigot;
#X obj 1192 271 spigot;
#X obj 1310 271 spigot;
#X text 1069 159 Minor;
#X text 1154 159 Pentatonic;
#X text 1279 159 Chromatic;
#X obj 1113 158 == 1;
#X obj 1231 158 == 2;
#X obj 1349 158 == 3;
#X obj 938 457 spigot;
#X obj 901 398 == 2;
#X floatatom 938 485 5 0 0 0 - - -;
#X obj 901 428 tgl 15 0 empty empty empty 17 7 0 10 -262144 -1 -1 0
1;
#X obj 989 189 tgl 15 0 empty empty empty 17 7 0 10 -262144 -1 -1 0
1;
#X obj 1113 188 tgl 15 0 empty empty empty 17 7 0 10 -262144 -1 -1
0 1;
#X obj 1231 188 tgl 15 0 empty empty empty 17 7 0 10 -262144 -1 -1
0 1;
#X obj 1349 189 tgl 15 0 empty empty empty 17 7 0 10 -262144 -1 -1
1 1;
#N canvas 989 127 898 354 major_l_third 0;
#X obj 339 98 route 1 2 3 4 5 6 7 8 9 10 11 12;
#X obj 152 183 nbx 4 20 0 1023 0 1 empty empty empty 0 -8 0 10 -262144
-1 -1 3 256;
#X obj 88 183 nbx 4 20 0 1023 0 1 empty empty empty 0 -8 0 10 -262144
-1 -1 3 256;
#X obj 406 183 nbx 4 20 0 1023 0 1 empty empty empty 0 -8 0 10 -262144
-1 -1 4 256;
#X obj 218 183 nbx 4 20 0 1023 0 1 empty empty empty 0 -8 0 10 -262144
-1 -1 4 256;
#X obj 281 183 nbx 4 20 0 1023 0 1 empty empty empty 0 -8 0 10 -262144
-1 -1 3 256;
#X obj 345 183 nbx 4 20 0 1023 0 1 empty empty empty 0 -8 0 10 -262144
-1 -1 3 256;
#X obj 533 183 nbx 4 20 0 1023 0 1 empty empty empty 0 -8 0 10 -262144
-1 -1 3 256;
#X obj 469 183 nbx 4 20 0 1023 0 1 empty empty empty 0 -8 0 10 -262144
-1 -1 4 256;
#X obj 791 183 nbx 4 20 0 1023 0 1 empty empty empty 0 -8 0 10 -262144
-1 -1 3 256;
#X obj 599 183 nbx 4 20 0 1023 0 1 empty empty empty 0 -8 0 10 -262144
-1 -1 3 256;
#X obj 667 183 nbx 4 20 0 1023 0 1 empty empty empty 0 -8 0 10 -262144
-1 -1 4 256;
#X obj 731 183 nbx 4 20 0 1023 0 1 empty empty empty 0 -8 0 10 -262144
-1 -1 3 256;
#X obj 435 285 outlet;
#X floatatom 339 70 5 0 0 0 - - -;
#X obj 339 40 inlet;
#X connect 0 0 2 0;
#X connect 0 1 1 0;
#X connect 0 2 4 0;
#X connect 0 3 5 0;
#X connect 0 4 6 0;
#X connect 0 5 3 0;
#X connect 0 6 8 0;
#X connect 0 7 7 0;
#X connect 0 8 10 0;
#X connect 0 9 11 0;
#X connect 0 10 12 0;
#X connect 0 11 9 0;
#X connect 1 0 13 0;
#X connect 2 0 13 0;
#X connect 3 0 13 0;
#X connect 4 0 13 0;
#X connect 5 0 13 0;
#X connect 6 0 13 0;
#X connect 7 0 13 0;
#X connect 8 0 13 0;
#X connect 9 0 13 0;
#X connect 10 0 13 0;
#X connect 11 0 13 0;
#X connect 12 0 13 0;
#X connect 14 0 0 0;
#X connect 15 0 14 0;
#X restore 950 309 pd major_l_third;
#N canvas 585 265 898 354 minor_l_third 0;
#X obj 366 98 route 1 2 3 4 5 6 7 8 9 10 11 12;
#X obj 112 187 nbx 4 20 0 1023 0 1 empty empty empty 0 -8 0 10 -262144
-1 -1 4 256;
#X obj 239 187 nbx 4 20 0 1023 0 1 empty empty empty 0 -8 0 10 -262144
-1 -1 3 256;
#X obj 175 187 nbx 4 20 0 1023 0 1 empty empty empty 0 -8 0 10 -262144
-1 -1 4 256;
#X obj 497 187 nbx 4 20 0 1023 0 1 empty empty empty 0 -8 0 10 -262144
-1 -1 3 256;
#X obj 305 187 nbx 4 20 0 1023 0 1 empty empty empty 0 -8 0 10 -262144
-1 -1 3 256;
#X obj 373 187 nbx 4 20 0 1023 0 1 empty empty empty 0 -8 0 10 -262144
-1 -1 4 256;
#X obj 437 187 nbx 4 20 0 1023 0 1 empty empty empty 0 -8 0 10 -262144
-1 -1 3 256;
#X obj 464 285 outlet;
#X floatatom 366 70 5 0 0 0 - - -;
#X obj 366 40 inlet;
#X obj 565 187 nbx 4 20 0 1023 0 1 empty empty empty 0 -8 0 10 -262144
-1 -1 4 256;
#X obj 692 187 nbx 4 20 0 1023 0 1 empty empty empty 0 -8 0 10 -262144
-1 -1 3 256;
#X obj 628 187 nbx 4 20 0 1023 0 1 empty empty empty 0 -8 0 10 -262144
-1 -1 4 256;
#X obj 758 187 nbx 4 20 0 1023 0 1 empty empty empty 0 -8 0 10 -262144
-1 -1 3 256;
#X obj 826 187 nbx 4 20 0 1023 0 1 empty empty empty 0 -8 0 10 -262144
-1 -1 4 256;
#X connect 0 0 1 0;
#X connect 0 1 3 0;
#X connect 0 2 2 0;
#X connect 0 3 5 0;
#X connect 0 4 6 0;
#X connect 0 5 7 0;
#X connect 0 6 4 0;
#X connect 0 7 11 0;
#X connect 0 8 13 0;
#X connect 0 9 12 0;
#X connect 0 10 14 0;
#X connect 0 11 15 0;
#X connect 1 0 8 0;
#X connect 2 0 8 0;
#X connect 3 0 8 0;
#X connect 4 0 8 0;
#X connect 5 0 8 0;
#X connect 6 0 8 0;
#X connect 7 0 8 0;
#X connect 9 0 0 0;
#X connect 10 0 9 0;
#X connect 11 0 8 0;
#X connect 12 0 8 0;
#X connect 13 0 8 0;
#X connect 14 0 8 0;
#X connect 15 0 8 0;
#X restore 1074 308 pd minor_l_third;
#N canvas 711 292 898 354 pent_l_third 0;
#X obj 339 98 route 1 2 3 4 5 6 7 8 9 10 11 12;
#X obj 152 183 nbx 4 20 0 1023 0 1 empty empty empty 0 -8 0 10 -262144
-1 -1 3 256;
#X obj 88 183 nbx 4 20 0 1023 0 1 empty empty empty 0 -8 0 10 -262144
-1 -1 4 256;
#X obj 406 183 nbx 4 20 0 1023 0 1 empty empty empty 0 -8 0 10 -262144
-1 -1 4 256;
#X obj 218 183 nbx 4 20 0 1023 0 1 empty empty empty 0 -8 0 10 -262144
-1 -1 3 256;
#X obj 281 183 nbx 4 20 0 1023 0 1 empty empty empty 0 -8 0 10 -262144
-1 -1 4 256;
#X obj 345 183 nbx 4 20 0 1023 0 1 empty empty empty 0 -8 0 10 -262144
-1 -1 3 256;
#X obj 533 184 nbx 4 20 0 1023 0 1 empty empty empty 0 -8 0 10 -262144
-1 -1 3 256;
#X obj 469 184 nbx 4 20 0 1023 0 1 empty empty empty 0 -8 0 10 -262144
-1 -1 3 256;
#X obj 791 184 nbx 4 20 0 1023 0 1 empty empty empty 0 -8 0 10 -262144
-1 -1 3 256;
#X obj 599 182 nbx 4 20 0 1023 0 1 empty empty empty 0 -8 0 10 -262144
-1 -1 4 256;
#X obj 667 182 nbx 4 20 0 1023 0 1 empty empty empty 0 -8 0 10 -262144
-1 -1 3 256;
#X obj 731 184 nbx 4 20 0 1023 0 1 empty empty empty 0 -8 0 10 -262144
-1 -1 4 256;
#X obj 435 285 outlet;
#X floatatom 339 70 5 0 0 0 - - -;
#X obj 339 40 inlet;
#X connect 0 0 2 0;
#X connect 0 1 1 0;
#X connect 0 2 4 0;
#X connect 0 3 5 0;
#X connect 0 4 6 0;
#X connect 0 5 3 0;
#X connect 0 6 8 0;
#X connect 0 7 7 0;
#X connect 0 8 10 0;
#X connect 0 9 11 0;
#X connect 0 10 12 0;
#X connect 0 11 9 0;
#X connect 1 0 13 0;
#X connect 2 0 13 0;
#X connect 3 0 13 0;
#X connect 4 0 13 0;
#X connect 5 0 13 0;
#X connect 6 0 13 0;
#X connect 7 0 13 0;
#X connect 8 0 13 0;
#X connect 9 0 13 0;
#X connect 10 0 13 0;
#X connect 11 0 13 0;
#X connect 12 0 13 0;
#X connect 14 0 0 0;
#X connect 15 0 14 0;
#X restore 1192 308 pd pent_l_third;
#N canvas 0 50 898 354 chrom_l_third 0;
#X obj 339 98 route 1 2 3 4 5 6 7 8 9 10 11 12;
#X obj 152 183 nbx 4 20 0 1023 0 1 empty empty empty 0 -8 0 10 -262144
-1 -1 3 256;
#X obj 88 183 nbx 4 20 0 1023 0 1 empty empty empty 0 -8 0 10 -262144
-1 -1 3 256;
#X obj 406 183 nbx 4 20 0 1023 0 1 empty empty empty 0 -8 0 10 -262144
-1 -1 3 256;
#X obj 218 183 nbx 4 20 0 1023 0 1 empty empty empty 0 -8 0 10 -262144
-1 -1 3 256;
#X obj 281 183 nbx 4 20 0 1023 0 1 empty empty empty 0 -8 0 10 -262144
-1 -1 3 256;
#X obj 345 183 nbx 4 20 0 1023 0 1 empty empty empty 0 -8 0 10 -262144
-1 -1 3 256;
#X obj 533 184 nbx 4 20 0 1023 0 1 empty empty empty 0 -8 0 10 -262144
-1 -1 3 256;
#X obj 469 184 nbx 4 20 0 1023 0 1 empty empty empty 0 -8 0 10 -262144
-1 -1 3 256;
#X obj 791 184 nbx 4 20 0 1023 0 1 empty empty empty 0 -8 0 10 -262144
-1 -1 3 256;
#X obj 599 182 nbx 4 20 0 1023 0 1 empty empty empty 0 -8 0 10 -262144
-1 -1 3 256;
#X obj 667 182 nbx 4 20 0 1023 0 1 empty empty empty 0 -8 0 10 -262144
-1 -1 3 256;
#X obj 731 184 nbx 4 20 0 1023 0 1 empty empty empty 0 -8 0 10 -262144
-1 -1 3 256;
#X obj 435 285 outlet;
#X floatatom 339 70 5 0 0 0 - - -;
#X obj 339 40 inlet;
#X connect 0 0 2 0;
#X connect 0 1 1 0;
#X connect 0 2 4 0;
#X connect 0 3 5 0;
#X connect 0 4 6 0;
#X connect 0 5 3 0;
#X connect 0 6 8 0;
#X connect 0 7 7 0;
#X connect 0 8 10 0;
#X connect 0 9 11 0;
#X connect 0 10 12 0;
#X connect 0 11 9 0;
#X connect 1 0 13 0;
#X connect 2 0 13 0;
#X connect 3 0 13 0;
#X connect 4 0 13 0;
#X connect 5 0 13 0;
#X connect 6 0 13 0;
#X connect 7 0 13 0;
#X connect 8 0 13 0;
#X connect 9 0 13 0;
#X connect 10 0 13 0;
#X connect 11 0 13 0;
#X connect 12 0 13 0;
#X connect 14 0 0 0;
#X connect 15 0 14 0;
#X restore 1310 308 pd chrom_l_third;
#X obj 763 398 == 4;
#X floatatom 836 590 5 0 0 0 - - -;
#X connect 0 0 58 0;
#X connect 0 0 47 0;
#X connect 1 0 2 0;
#X connect 1 0 3 0;
#X connect 2 0 9 0;
#X connect 2 0 11 0;
#X connect 2 0 12 0;
#X connect 2 0 13 0;
#X connect 4 0 7 0;
#X connect 4 0 20 0;
#X connect 4 0 21 0;
#X connect 4 0 22 0;
#X connect 4 0 34 0;
#X connect 4 0 43 0;
#X connect 4 0 44 0;
#X connect 4 0 45 0;
#X connect 7 0 27 0;
#X connect 9 0 10 0;
#X connect 10 0 24 0;
#X connect 11 0 17 0;
#X connect 12 0 18 0;
#X connect 13 0 19 0;
#X connect 17 0 24 0;
#X connect 18 0 24 0;
#X connect 19 0 24 0;
#X connect 20 0 28 0;
#X connect 21 0 29 0;
#X connect 22 0 30 0;
#X connect 24 0 25 0;
#X connect 25 0 59 0;
#X connect 26 0 24 1;
#X connect 27 0 9 1;
#X connect 28 0 11 1;
#X connect 29 0 12 1;
#X connect 30 0 13 1;
#X connect 31 0 32 0;
#X connect 31 0 33 0;
#X connect 32 0 36 0;
#X connect 32 0 37 0;
#X connect 32 0 38 0;
#X connect 32 0 39 0;
#X connect 34 0 50 0;
#X connect 36 0 54 0;
#X connect 37 0 55 0;
#X connect 38 0 56 0;
#X connect 39 0 57 0;
#X connect 43 0 51 0;
#X connect 44 0 52 0;
#X connect 45 0 53 0;
#X connect 46 0 48 0;
#X connect 47 0 49 0;
#X connect 48 0 59 0;
#X connect 49 0 46 1;
#X connect 50 0 36 1;
#X connect 51 0 37 1;
#X connect 52 0 38 1;
#X connect 53 0 39 1;
#X connect 54 0 46 0;
#X connect 55 0 46 0;
#X connect 56 0 46 0;
#X connect 57 0 46 0;
#X connect 58 0 26 0;
#X connect 59 0 6 0;
