#N canvas 864 18 1026 921 12;
#X obj -36 1142 select 0 1 2 3 4 5 6 7;
#X obj 752 1357 f;
#X obj 782 1357 f;
#X obj 770 1141 vsl 15 128 48 84 0 0 empty empty empty 0 -9 0 10 -4034
-1 -1 1411 1;
#X obj 800 1142 vsl 15 128 48 84 0 0 empty empty empty 0 -9 0 10 -4034
-1 -1 2822 1;
#X obj 830 1142 vsl 15 128 48 84 0 0 empty empty empty 0 -9 0 10 -4034
-1 -1 4586 1;
#X obj 861 1142 vsl 15 128 48 84 0 0 empty empty empty 0 -9 0 10 -4034
-1 -1 1411 1;
#X obj 892 1142 vsl 15 128 48 84 0 0 empty empty empty 0 -9 0 10 -4034
-1 -1 2822 1;
#X obj 922 1142 vsl 15 128 48 84 0 0 empty empty empty 0 -9 0 10 -4034
-1 -1 4586 1;
#X obj 952 1142 vsl 15 128 48 84 0 0 empty empty empty 0 -9 0 10 -4034
-1 -1 3175 1;
#X obj 982 1141 vsl 15 128 48 84 0 0 empty empty empty 0 -9 0 10 -4034
-1 -1 4586 1;
#X obj 812 1357 f;
#X obj 843 1357 f;
#X obj 874 1357 f;
#X obj 904 1357 f;
#X obj 934 1357 f;
#X obj 964 1357 f;
#X obj 1686 839 hsl 128 15 60 72 0 0 empty empty empty -2 -8 0 10 -262144
-1 -1 0 1;
#X obj 515 948 +;
#X obj 618 950 +;
#X obj 716 951 +;
#X obj 818 952 +;
#X obj 920 953 +;
#X obj 1020 953 +;
#X obj 1121 954 +;
#X obj 1219 954 +;
#X obj 1136 1531 *~;
#X obj 1433 1266 vsl 15 128 0 1 0 0 empty empty empty 0 -9 0 10 -258113
-1 -1 12700 1;
#X msg 1433 1412 \$1 100;
#X obj 1433 1444 line~;
#X text 1376 1268 Volume;
#X obj 244 1448 hradio 15 1 0 4 empty empty Waveform 50 8 0 10 -257985
-1 -1 2;
#X obj 827 1495 synth one;
#X obj 403 876 bng 15 250 50 0 empty empty empty 17 7 0 10 -262144
-1 -1;
#X floatatom 2103 910 5 0 0 0 - - -;
#X obj 515 483 route Slider0;
#X obj 515 698 *;
#X obj 403 515 bng 15 250 50 0 empty empty empty 17 7 0 10 -262144
-1 -1;
#X obj 457 583 t b f;
#X obj 427 583 f;
#X obj 446 611 /;
#X obj 515 727 i;
#X obj 618 700 *;
#X obj 618 729 i;
#X obj 716 698 *;
#X obj 716 727 i;
#X obj 818 697 *;
#X obj 818 726 i;
#X obj 920 694 *;
#X obj 920 723 i;
#X obj 1020 694 *;
#X obj 1020 723 i;
#X obj 1121 692 *;
#X obj 1121 721 i;
#X obj 1219 690 *;
#X obj 1219 719 i;
#X floatatom 1683 878 5 0 0 0 - - -;
#X obj 618 483 route Slider1;
#X obj 716 483 route Slider2;
#X obj 818 483 route Slider3;
#X obj 920 483 route Slider4;
#X obj 1020 483 route Slider5;
#X obj 1121 483 route Slider6;
#X obj 1219 483 route Slider7;
#X obj 1731 518 bng 15 250 50 0 empty empty empty 17 7 0 10 -262144
-1 -1;
#X obj 1764 588 t b f;
#X obj 1734 588 f;
#X obj 1753 616 /;
#X obj 1683 653 *;
#X obj 1683 682 i;
#X obj 1683 769 +;
#X obj 271 517 bng 15 250 50 0 empty empty empty 17 7 0 10 -262144
-1 -1;
#X obj 277 582 t b f;
#X obj 247 582 f;
#X obj 266 610 /;
#X obj 242 657 *;
#X obj 242 686 i;
#X floatatom 242 723 5 0 0 0 - - -;
#X obj 2445 531 bng 15 250 50 0 empty empty empty 17 7 0 10 -262144
-1 -1;
#X obj 2437 602 t b f;
#X obj 2407 602 f;
#X obj 2426 630 /;
#X obj 2382 679 *;
#X floatatom 2384 1108 5 0 0 0 - - -;
#X obj 2382 708 f;
#X obj 416 548 nbx 3 20 0 400 0 1 empty empty empty 0 -8 0 10 -262144
-1 -1 13 256;
#X obj 465 549 nbx 4 20 0 1023 0 1 empty empty empty 0 -8 0 10 -262144
-1 -1 1023 256;
#X obj 1762 552 nbx 4 20 0 1023 0 1 empty empty empty 0 -8 0 10 -262144
-1 -1 1023 256;
#X obj 1708 550 nbx 4 20 0 1023 0 1 empty empty empty 0 -8 0 10 -262144
-1 -1 12 256;
#X obj 241 549 nbx 4 20 0 1023 0 1 empty empty empty 0 -8 0 10 -262144
-1 -1 3 256;
#X obj 300 549 nbx 4 20 0 1023 0 1 empty empty empty 0 -8 0 10 -262144
-1 -1 1023 256;
#X obj 2404 565 nbx 4 20 0 1023 0 1 empty empty empty 0 -8 0 10 -262144
-1 -1 1 256;
#X obj 2459 567 nbx 4 20 0 1023 0 1 empty empty empty 0 -8 0 10 -262144
-1 -1 1023 256;
#X obj 1743 729 nbx 4 20 0 1023 0 1 empty empty empty 0 -8 0 10 -262144
-1 -1 48 256;
#X obj 2090 529 bng 15 250 50 0 empty empty empty 17 7 0 10 -262144
-1 -1;
#X obj 2123 599 t b f;
#X obj 2093 599 f;
#X obj 2112 627 /;
#X obj 2042 670 *;
#X obj 2042 699 i;
#X obj 2121 563 nbx 4 20 0 1023 0 1 empty empty empty 0 -8 0 10 -262144
-1 -1 1023 256;
#X obj 2067 560 nbx 4 20 0 1023 0 1 empty empty empty 0 -8 0 10 -262144
-1 -1 6 256;
#X msg 2042 780 -12;
#X msg 2077 780 -7;
#X msg 2115 780 0;
#X msg 2153 780 7;
#X msg 2190 780 12;
#X obj 1446 511 bng 15 250 50 0 empty empty empty 17 7 0 10 -262144
-1 -1;
#X obj 1482 584 t b f;
#X obj 1452 584 f;
#X obj 1471 612 /;
#X obj 1419 643 *;
#X floatatom 1419 710 5 0 0 0 - - -;
#X obj 1446 549 nbx 4 20 0 1023 0 1 empty empty empty 0 -8 0 10 -262144
-1 -1 3 256;
#X obj 1504 549 nbx 4 20 0 1023 0 1 empty empty empty 0 -8 0 10 -262144
-1 -1 1023 256;
#X obj 1419 673 i;
#X obj 515 770 t f b;
#X obj 618 770 t f b;
#X obj 716 770 t f b;
#X obj 818 770 t f b;
#X obj 920 770 t f b;
#X obj 1020 770 t f b;
#X obj 1121 770 t f b;
#X obj 1219 770 t f b;
#X obj 1711 230 bng 15 250 50 0 empty empty empty 17 7 0 10 -262144
-1 -1;
#X obj 1683 729 nbx 4 20 0 1023 0 1 empty empty empty 0 -8 0 10 -262144
-1 -1 4 256;
#N canvas 465 67 793 596 silenceeeeeeeeeeeeeeeeeeeeeee 0;
#X floatatom 142 55 5 -1 0 0 - - -;
#X obj 142 78 >= 0;
#X floatatom 142 102 5 0 0 0 - - -;
#X obj 59 181 bng 15 250 50 0 empty empty empty 17 7 0 10 -262144 -1
-1;
#X obj 59 144 spigot 0;
#X obj 34 61 bng 15 250 50 0 empty empty empty 17 7 0 10 -262144 -1
-1;
#X obj 34 33 inlet;
#X obj 142 31 inlet;
#X obj 59 214 outlet;
#X floatatom 302 56 5 -1 0 0 - - -;
#X obj 302 79 >= 0;
#X floatatom 302 103 5 0 0 0 - - -;
#X obj 219 182 bng 15 250 50 0 empty empty empty 17 7 0 10 -262144
-1 -1;
#X obj 219 145 spigot 0;
#X obj 194 62 bng 15 250 50 0 empty empty empty 17 7 0 10 -262144 -1
-1;
#X obj 194 34 inlet;
#X obj 302 32 inlet;
#X obj 219 215 outlet;
#X floatatom 474 54 5 -1 0 0 - - -;
#X obj 474 77 >= 0;
#X floatatom 474 101 5 0 0 0 - - -;
#X obj 391 180 bng 15 250 50 0 empty empty empty 17 7 0 10 -262144
-1 -1;
#X obj 391 143 spigot 0;
#X obj 366 60 bng 15 250 50 0 empty empty empty 17 7 0 10 -262144 -1
-1;
#X obj 366 32 inlet;
#X obj 474 30 inlet;
#X obj 391 213 outlet;
#X floatatom 634 52 5 -1 0 0 - - -;
#X obj 634 75 >= 0;
#X floatatom 634 99 5 0 0 0 - - -;
#X obj 551 178 bng 15 250 50 0 empty empty empty 17 7 0 10 -262144
-1 -1;
#X obj 551 141 spigot 0;
#X obj 526 58 bng 15 250 50 0 empty empty empty 17 7 0 10 -262144 -1
-1;
#X obj 526 30 inlet;
#X obj 634 28 inlet;
#X obj 551 211 outlet;
#X floatatom 792 51 5 -1 0 0 - - -;
#X obj 792 74 >= 0;
#X floatatom 792 98 5 0 0 0 - - -;
#X obj 709 177 bng 15 250 50 0 empty empty empty 17 7 0 10 -262144
-1 -1;
#X obj 709 140 spigot 0;
#X obj 684 57 bng 15 250 50 0 empty empty empty 17 7 0 10 -262144 -1
-1;
#X obj 684 29 inlet;
#X obj 792 27 inlet;
#X obj 709 210 outlet;
#X floatatom 953 51 5 -1 0 0 - - -;
#X obj 953 74 >= 0;
#X floatatom 953 98 5 0 0 0 - - -;
#X obj 870 177 bng 15 250 50 0 empty empty empty 17 7 0 10 -262144
-1 -1;
#X obj 870 140 spigot 0;
#X obj 845 57 bng 15 250 50 0 empty empty empty 17 7 0 10 -262144 -1
-1;
#X obj 845 29 inlet;
#X obj 953 27 inlet;
#X obj 870 210 outlet;
#X floatatom 1113 50 5 -1 0 0 - - -;
#X obj 1113 73 >= 0;
#X floatatom 1113 97 5 0 0 0 - - -;
#X obj 1030 176 bng 15 250 50 0 empty empty empty 17 7 0 10 -262144
-1 -1;
#X obj 1030 139 spigot 0;
#X obj 1005 56 bng 15 250 50 0 empty empty empty 17 7 0 10 -262144
-1 -1;
#X obj 1005 28 inlet;
#X obj 1113 26 inlet;
#X obj 1030 209 outlet;
#X floatatom 1276 48 5 -1 0 0 - - -;
#X obj 1276 71 >= 0;
#X floatatom 1276 95 5 0 0 0 - - -;
#X obj 1193 174 bng 15 250 50 0 empty empty empty 17 7 0 10 -262144
-1 -1;
#X obj 1193 137 spigot 0;
#X obj 1168 54 bng 15 250 50 0 empty empty empty 17 7 0 10 -262144
-1 -1;
#X obj 1168 26 inlet;
#X obj 1276 24 inlet;
#X obj 1193 207 outlet;
#X obj 26 242 send BangSlider1;
#X obj 180 242 send BangSlider2;
#X obj 1157 242 send BangSlider8;
#X obj 993 242 send BangSlider7;
#X obj 836 242 send BangSlider6;
#X obj 669 242 send BangSlider5;
#X obj 510 242 send BangSlider4;
#X obj 346 242 send BangSlider3;
#X connect 0 0 1 0;
#X connect 1 0 2 0;
#X connect 2 0 4 1;
#X connect 3 0 8 0;
#X connect 3 0 72 0;
#X connect 4 0 3 0;
#X connect 5 0 4 0;
#X connect 6 0 5 0;
#X connect 7 0 0 0;
#X connect 9 0 10 0;
#X connect 10 0 11 0;
#X connect 11 0 13 1;
#X connect 12 0 17 0;
#X connect 12 0 73 0;
#X connect 13 0 12 0;
#X connect 14 0 13 0;
#X connect 15 0 14 0;
#X connect 16 0 9 0;
#X connect 18 0 19 0;
#X connect 19 0 20 0;
#X connect 20 0 22 1;
#X connect 21 0 26 0;
#X connect 21 0 79 0;
#X connect 22 0 21 0;
#X connect 23 0 22 0;
#X connect 24 0 23 0;
#X connect 25 0 18 0;
#X connect 27 0 28 0;
#X connect 28 0 29 0;
#X connect 29 0 31 1;
#X connect 30 0 35 0;
#X connect 30 0 78 0;
#X connect 31 0 30 0;
#X connect 32 0 31 0;
#X connect 33 0 32 0;
#X connect 34 0 27 0;
#X connect 36 0 37 0;
#X connect 37 0 38 0;
#X connect 38 0 40 1;
#X connect 39 0 44 0;
#X connect 39 0 77 0;
#X connect 40 0 39 0;
#X connect 41 0 40 0;
#X connect 42 0 41 0;
#X connect 43 0 36 0;
#X connect 45 0 46 0;
#X connect 46 0 47 0;
#X connect 47 0 49 1;
#X connect 48 0 53 0;
#X connect 48 0 76 0;
#X connect 49 0 48 0;
#X connect 50 0 49 0;
#X connect 51 0 50 0;
#X connect 52 0 45 0;
#X connect 54 0 55 0;
#X connect 55 0 56 0;
#X connect 56 0 58 1;
#X connect 57 0 62 0;
#X connect 57 0 75 0;
#X connect 58 0 57 0;
#X connect 59 0 58 0;
#X connect 60 0 59 0;
#X connect 61 0 54 0;
#X connect 63 0 64 0;
#X connect 64 0 65 0;
#X connect 65 0 67 1;
#X connect 66 0 71 0;
#X connect 66 0 74 0;
#X connect 67 0 66 0;
#X connect 68 0 67 0;
#X connect 69 0 68 0;
#X connect 70 0 63 0;
#X restore -71 1266 pd silenceeeeeeeeeeeeeeeeeeeeeee;
#X obj 1711 251 send MelodyBang;
#X obj 1769 663 receive MelodyBang;
#X obj 272 687 receive MelodyBang;
#X text 2036 457 SECOND VOICE;
#X text 1708 459 KEY;
#X text 2394 456 VOLUME;
#X text 1442 462 MODE;
#X text 233 461 WAVE;
#N canvas 872 269 574 402 mode1 0;
#X obj 368 77 hradio 15 1 0 4 empty empty empty 0 -8 0 10 -262144 -1
-1 0;
#X obj 259 130 nbx 5 14 -1e+037 1e+037 0 0 empty empty empty 0 -8 0
10 -262144 -1 -1 1 256;
#X obj 259 185 list prepend $f1;
#X obj 259 209 route 0 1 2 3;
#X obj 188 250 mayor;
#X obj 241 250 minor;
#X obj 196 272 bng 15 250 50 0 empty empty empty 17 7 0 10 -262144
-1 -1;
#X obj 249 272 bng 15 250 50 0 empty empty empty 17 7 0 10 -262144
-1 -1;
#X floatatom 188 293 5 0 0 0 - - -;
#X floatatom 241 293 5 0 0 0 - - -;
#X obj 259 39 inlet;
#X obj 368 41 inlet;
#X obj 334 104 bng 15 250 50 0 empty empty empty 17 7 0 10 -262144
-1 -1;
#X obj 299 272 bng 15 250 50 0 empty empty empty 17 7 0 10 -262144
-1 -1;
#X floatatom 291 293 5 0 0 0 - - -;
#X obj 291 250 pentatonic;
#X obj 385 272 bng 15 250 50 0 empty empty empty 17 7 0 10 -262144
-1 -1;
#X floatatom 375 292 5 -1 0 0 - - -;
#X obj 375 249 chromatic;
#X obj 262 383 outlet;
#X obj 322 381 outlet;
#X obj 285 344 t b f;
#X floatatom 100 177 5 0 0 0 - - -;
#X obj 42 36 receive BangSlider1;
#X obj 100 145 spigot;
#X obj 139 66 bng 15 250 50 0 empty empty empty 17 7 0 10 -262144 -1
-1;
#X obj 139 114 tgl 15 0 empty empty empty 17 7 0 10 -262144 -1 -1 0
1;
#X obj 66 88 delay 100;
#X obj 100 208 send step;
#X connect 0 0 2 1;
#X connect 0 0 12 0;
#X connect 1 0 2 0;
#X connect 1 0 24 0;
#X connect 2 0 3 0;
#X connect 3 0 4 0;
#X connect 3 1 5 0;
#X connect 3 2 15 0;
#X connect 3 3 18 0;
#X connect 4 0 6 0;
#X connect 4 0 8 0;
#X connect 5 0 7 0;
#X connect 5 0 9 0;
#X connect 8 0 21 0;
#X connect 9 0 21 0;
#X connect 10 0 1 0;
#X connect 11 0 0 0;
#X connect 12 0 1 0;
#X connect 14 0 21 0;
#X connect 15 0 13 0;
#X connect 15 0 14 0;
#X connect 17 0 21 0;
#X connect 18 0 16 0;
#X connect 18 0 17 0;
#X connect 21 0 19 0;
#X connect 21 1 20 0;
#X connect 22 0 28 0;
#X connect 23 0 25 0;
#X connect 24 0 22 0;
#X connect 25 0 26 0;
#X connect 25 0 27 0;
#X connect 25 0 1 0;
#X connect 26 0 24 1;
#X connect 27 0 26 0;
#X restore 515 820 pd mode1;
#N canvas 538 137 490 402 mode2 0;
#X obj 339 94 hradio 15 1 0 4 empty empty empty 0 -8 0 10 -262144 -1
-1 0;
#X obj 230 147 nbx 5 14 -1e+037 1e+037 0 0 empty empty empty 0 -8 0
10 -262144 -1 -1 3 256;
#X obj 230 202 list prepend $f1;
#X obj 230 226 route 0 1 2 3;
#X obj 159 267 mayor;
#X obj 212 267 minor;
#X obj 167 289 bng 15 250 50 0 empty empty empty 17 7 0 10 -262144
-1 -1;
#X obj 220 289 bng 15 250 50 0 empty empty empty 17 7 0 10 -262144
-1 -1;
#X floatatom 159 310 5 0 0 0 - - -;
#X floatatom 212 310 5 0 0 0 - - -;
#X obj 230 56 inlet;
#X obj 339 58 inlet;
#X obj 270 289 bng 15 250 50 0 empty empty empty 17 7 0 10 -262144
-1 -1;
#X floatatom 262 310 5 0 0 0 - - -;
#X obj 262 267 pentatonic;
#X obj 356 289 bng 15 250 50 0 empty empty empty 17 7 0 10 -262144
-1 -1;
#X floatatom 346 309 5 -1 0 0 - - -;
#X obj 346 266 chromatic;
#X obj 233 400 outlet;
#X obj 293 398 outlet;
#X obj 256 361 t b f;
#X floatatom 86 203 5 0 0 0 - - -;
#X obj 86 171 spigot;
#X obj 125 92 bng 15 250 50 0 empty empty empty 17 7 0 10 -262144 -1
-1;
#X obj 125 140 tgl 15 0 empty empty empty 17 7 0 10 -262144 -1 -1 0
1;
#X obj 52 114 delay 100;
#X obj 86 234 send step;
#X obj 28 62 receive BangSlider2;
#X connect 0 0 2 1;
#X connect 1 0 2 0;
#X connect 1 0 22 0;
#X connect 2 0 3 0;
#X connect 3 0 4 0;
#X connect 3 1 5 0;
#X connect 3 2 14 0;
#X connect 3 3 17 0;
#X connect 4 0 6 0;
#X connect 4 0 8 0;
#X connect 5 0 7 0;
#X connect 5 0 9 0;
#X connect 8 0 20 0;
#X connect 9 0 20 0;
#X connect 10 0 1 0;
#X connect 11 0 0 0;
#X connect 13 0 20 0;
#X connect 14 0 12 0;
#X connect 14 0 13 0;
#X connect 16 0 20 0;
#X connect 17 0 15 0;
#X connect 17 0 16 0;
#X connect 20 0 18 0;
#X connect 20 1 19 0;
#X connect 21 0 26 0;
#X connect 22 0 21 0;
#X connect 23 0 24 0;
#X connect 23 0 25 0;
#X connect 23 0 1 0;
#X connect 24 0 22 1;
#X connect 25 0 24 0;
#X connect 27 0 23 0;
#X restore 618 820 pd mode2;
#N canvas 946 53 490 402 mode3 0;
#X obj 278 78 hradio 15 1 0 4 empty empty empty 0 -8 0 10 -262144 -1
-1 0;
#X obj 169 131 nbx 5 14 -1e+037 1e+037 0 0 empty empty empty 0 -8 0
10 -262144 -1 -1 6 256;
#X obj 169 186 list prepend $f1;
#X obj 169 210 route 0 1 2 3;
#X obj 98 251 mayor;
#X obj 151 251 minor;
#X obj 106 273 bng 15 250 50 0 empty empty empty 17 7 0 10 -262144
-1 -1;
#X obj 159 273 bng 15 250 50 0 empty empty empty 17 7 0 10 -262144
-1 -1;
#X floatatom 98 294 5 0 0 0 - - -;
#X floatatom 151 294 5 0 0 0 - - -;
#X obj 169 40 inlet;
#X obj 278 42 inlet;
#X obj 244 105 bng 15 250 50 0 empty empty empty 17 7 0 10 -262144
-1 -1;
#X obj 209 273 bng 15 250 50 0 empty empty empty 17 7 0 10 -262144
-1 -1;
#X floatatom 201 294 5 0 0 0 - - -;
#X obj 201 251 pentatonic;
#X obj 295 273 bng 15 250 50 0 empty empty empty 17 7 0 10 -262144
-1 -1;
#X floatatom 285 293 5 -1 0 0 - - -;
#X obj 285 250 chromatic;
#X obj 172 384 outlet;
#X obj 232 382 outlet;
#X obj 195 345 t b f;
#X floatatom 44 181 5 0 0 0 - - -;
#X obj 44 149 spigot;
#X obj 83 70 bng 15 250 50 0 empty empty empty 17 7 0 10 -262144 -1
-1;
#X obj 83 118 tgl 15 0 empty empty empty 17 7 0 10 -262144 -1 -1 1
1;
#X obj 10 92 delay 100;
#X obj 44 212 send step;
#X obj -14 40 receive BangSlider3;
#X connect 0 0 2 1;
#X connect 0 0 12 0;
#X connect 1 0 2 0;
#X connect 1 0 23 0;
#X connect 2 0 3 0;
#X connect 3 0 4 0;
#X connect 3 1 5 0;
#X connect 3 2 15 0;
#X connect 3 3 18 0;
#X connect 4 0 6 0;
#X connect 4 0 8 0;
#X connect 5 0 7 0;
#X connect 5 0 9 0;
#X connect 8 0 21 0;
#X connect 9 0 21 0;
#X connect 10 0 1 0;
#X connect 11 0 0 0;
#X connect 12 0 1 0;
#X connect 14 0 21 0;
#X connect 15 0 13 0;
#X connect 15 0 14 0;
#X connect 17 0 21 0;
#X connect 18 0 16 0;
#X connect 18 0 17 0;
#X connect 21 0 19 0;
#X connect 21 1 20 0;
#X connect 22 0 27 0;
#X connect 23 0 22 0;
#X connect 24 0 25 0;
#X connect 24 0 26 0;
#X connect 24 0 1 0;
#X connect 25 0 23 1;
#X connect 26 0 25 0;
#X connect 28 0 24 0;
#X restore 716 820 pd mode3;
#N canvas 823 100 490 402 mode4 0;
#X obj 278 78 hradio 15 1 0 4 empty empty empty 0 -8 0 10 -262144 -1
-1 0;
#X obj 169 131 nbx 5 14 -1e+037 1e+037 0 0 empty empty empty 0 -8 0
10 -262144 -1 -1 1 256;
#X obj 169 186 list prepend $f1;
#X obj 169 210 route 0 1 2 3;
#X obj 98 251 mayor;
#X obj 151 251 minor;
#X obj 106 273 bng 15 250 50 0 empty empty empty 17 7 0 10 -262144
-1 -1;
#X obj 159 273 bng 15 250 50 0 empty empty empty 17 7 0 10 -262144
-1 -1;
#X floatatom 98 294 5 0 0 0 - - -;
#X floatatom 151 294 5 0 0 0 - - -;
#X obj 169 40 inlet;
#X obj 278 42 inlet;
#X obj 244 105 bng 15 250 50 0 empty empty empty 17 7 0 10 -262144
-1 -1;
#X obj 209 273 bng 15 250 50 0 empty empty empty 17 7 0 10 -262144
-1 -1;
#X floatatom 201 294 5 0 0 0 - - -;
#X obj 201 251 pentatonic;
#X obj 295 273 bng 15 250 50 0 empty empty empty 17 7 0 10 -262144
-1 -1;
#X floatatom 285 293 5 -1 0 0 - - -;
#X obj 285 250 chromatic;
#X obj 172 384 outlet;
#X obj 232 382 outlet;
#X obj 195 345 t b f;
#X floatatom 39 191 5 0 0 0 - - -;
#X obj 39 159 spigot;
#X obj 78 80 bng 15 250 50 0 empty empty empty 17 7 0 10 -262144 -1
-1;
#X obj 78 128 tgl 15 0 empty empty empty 17 7 0 10 -262144 -1 -1 0
1;
#X obj 5 102 delay 100;
#X obj 39 222 send step;
#X obj -19 50 receive BangSlider4;
#X connect 0 0 2 1;
#X connect 0 0 12 0;
#X connect 1 0 2 0;
#X connect 1 0 23 0;
#X connect 2 0 3 0;
#X connect 3 0 4 0;
#X connect 3 1 5 0;
#X connect 3 2 15 0;
#X connect 3 3 18 0;
#X connect 4 0 6 0;
#X connect 4 0 8 0;
#X connect 5 0 7 0;
#X connect 5 0 9 0;
#X connect 8 0 21 0;
#X connect 9 0 21 0;
#X connect 10 0 1 0;
#X connect 11 0 0 0;
#X connect 12 0 1 0;
#X connect 14 0 21 0;
#X connect 15 0 13 0;
#X connect 15 0 14 0;
#X connect 17 0 21 0;
#X connect 18 0 16 0;
#X connect 18 0 17 0;
#X connect 21 0 19 0;
#X connect 21 1 20 0;
#X connect 22 0 27 0;
#X connect 23 0 22 0;
#X connect 24 0 25 0;
#X connect 24 0 26 0;
#X connect 24 0 1 0;
#X connect 25 0 23 1;
#X connect 26 0 25 0;
#X connect 28 0 24 0;
#X restore 818 820 pd mode4;
#N canvas 357 8 490 402 mode5 0;
#X obj 278 78 hradio 15 1 0 4 empty empty empty 0 -8 0 10 -262144 -1
-1 0;
#X obj 169 131 nbx 5 14 -1e+037 1e+037 0 0 empty empty empty 0 -8 0
10 -262144 -1 -1 3 256;
#X obj 169 186 list prepend $f1;
#X obj 169 210 route 0 1 2 3;
#X obj 98 251 mayor;
#X obj 151 251 minor;
#X obj 106 273 bng 15 250 50 0 empty empty empty 17 7 0 10 -262144
-1 -1;
#X obj 159 273 bng 15 250 50 0 empty empty empty 17 7 0 10 -262144
-1 -1;
#X floatatom 98 294 5 0 0 0 - - -;
#X floatatom 151 294 5 0 0 0 - - -;
#X obj 169 40 inlet;
#X obj 278 42 inlet;
#X obj 244 105 bng 15 250 50 0 empty empty empty 17 7 0 10 -262144
-1 -1;
#X obj 209 273 bng 15 250 50 0 empty empty empty 17 7 0 10 -262144
-1 -1;
#X floatatom 201 294 5 0 0 0 - - -;
#X obj 201 251 pentatonic;
#X obj 295 273 bng 15 250 50 0 empty empty empty 17 7 0 10 -262144
-1 -1;
#X floatatom 285 293 5 -1 0 0 - - -;
#X obj 285 250 chromatic;
#X obj 172 384 outlet;
#X obj 232 382 outlet;
#X obj 195 345 t b f;
#X floatatom 28 194 5 0 0 0 - - -;
#X obj 28 162 spigot;
#X obj 67 83 bng 15 250 50 0 empty empty empty 17 7 0 10 -262144 -1
-1;
#X obj 67 131 tgl 15 0 empty empty empty 17 7 0 10 -262144 -1 -1 0
1;
#X obj -6 105 delay 100;
#X obj 28 225 send step;
#X obj -30 53 receive BangSlider5;
#X connect 0 0 2 1;
#X connect 0 0 12 0;
#X connect 1 0 2 0;
#X connect 1 0 23 0;
#X connect 2 0 3 0;
#X connect 3 0 4 0;
#X connect 3 1 5 0;
#X connect 3 2 15 0;
#X connect 3 3 18 0;
#X connect 4 0 6 0;
#X connect 4 0 8 0;
#X connect 5 0 7 0;
#X connect 5 0 9 0;
#X connect 8 0 21 0;
#X connect 9 0 21 0;
#X connect 10 0 1 0;
#X connect 11 0 0 0;
#X connect 12 0 1 0;
#X connect 14 0 21 0;
#X connect 15 0 13 0;
#X connect 15 0 14 0;
#X connect 17 0 21 0;
#X connect 18 0 16 0;
#X connect 18 0 17 0;
#X connect 21 0 19 0;
#X connect 21 1 20 0;
#X connect 22 0 27 0;
#X connect 23 0 22 0;
#X connect 24 0 25 0;
#X connect 24 0 26 0;
#X connect 24 0 1 0;
#X connect 25 0 23 1;
#X connect 26 0 25 0;
#X connect 28 0 24 0;
#X restore 920 820 pd mode5;
#N canvas 460 73 490 402 mode6 0;
#X obj 278 78 hradio 15 1 0 4 empty empty empty 0 -8 0 10 -262144 -1
-1 0;
#X obj 169 131 nbx 5 14 -1e+037 1e+037 0 0 empty empty empty 0 -8 0
10 -262144 -1 -1 6 256;
#X obj 169 186 list prepend $f1;
#X obj 169 210 route 0 1 2 3;
#X obj 98 251 mayor;
#X obj 151 251 minor;
#X obj 106 273 bng 15 250 50 0 empty empty empty 17 7 0 10 -262144
-1 -1;
#X obj 159 273 bng 15 250 50 0 empty empty empty 17 7 0 10 -262144
-1 -1;
#X floatatom 98 294 5 0 0 0 - - -;
#X floatatom 151 294 5 0 0 0 - - -;
#X obj 169 40 inlet;
#X obj 278 42 inlet;
#X obj 244 105 bng 15 250 50 0 empty empty empty 17 7 0 10 -262144
-1 -1;
#X obj 209 273 bng 15 250 50 0 empty empty empty 17 7 0 10 -262144
-1 -1;
#X floatatom 201 294 5 0 0 0 - - -;
#X obj 201 251 pentatonic;
#X obj 295 273 bng 15 250 50 0 empty empty empty 17 7 0 10 -262144
-1 -1;
#X floatatom 285 293 5 -1 0 0 - - -;
#X obj 285 250 chromatic;
#X obj 172 384 outlet;
#X obj 232 382 outlet;
#X obj 195 345 t b f;
#X floatatom 25 198 5 0 0 0 - - -;
#X obj 25 166 spigot;
#X obj 64 87 bng 15 250 50 0 empty empty empty 17 7 0 10 -262144 -1
-1;
#X obj 64 135 tgl 15 0 empty empty empty 17 7 0 10 -262144 -1 -1 0
1;
#X obj -9 109 delay 100;
#X obj 25 229 send step;
#X obj -33 57 receive BangSlider6;
#X connect 0 0 2 1;
#X connect 0 0 12 0;
#X connect 1 0 2 0;
#X connect 1 0 23 0;
#X connect 2 0 3 0;
#X connect 3 0 4 0;
#X connect 3 1 5 0;
#X connect 3 2 15 0;
#X connect 3 3 18 0;
#X connect 4 0 6 0;
#X connect 4 0 8 0;
#X connect 5 0 7 0;
#X connect 5 0 9 0;
#X connect 8 0 21 0;
#X connect 9 0 21 0;
#X connect 10 0 1 0;
#X connect 11 0 0 0;
#X connect 12 0 1 0;
#X connect 14 0 21 0;
#X connect 15 0 13 0;
#X connect 15 0 14 0;
#X connect 17 0 21 0;
#X connect 18 0 16 0;
#X connect 18 0 17 0;
#X connect 21 0 19 0;
#X connect 21 1 20 0;
#X connect 22 0 27 0;
#X connect 23 0 22 0;
#X connect 24 0 25 0;
#X connect 24 0 26 0;
#X connect 24 0 1 0;
#X connect 25 0 23 1;
#X connect 26 0 25 0;
#X connect 28 0 24 0;
#X restore 1020 820 pd mode6;
#N canvas 688 69 490 402 mode7 0;
#X obj 278 78 hradio 15 1 0 4 empty empty empty 0 -8 0 10 -262144 -1
-1 0;
#X obj 169 131 nbx 5 14 -1e+037 1e+037 0 0 empty empty empty 0 -8 0
10 -262144 -1 -1 4 256;
#X obj 169 186 list prepend $f1;
#X obj 169 210 route 0 1 2 3;
#X obj 98 251 mayor;
#X obj 151 251 minor;
#X obj 106 273 bng 15 250 50 0 empty empty empty 17 7 0 10 -262144
-1 -1;
#X obj 159 273 bng 15 250 50 0 empty empty empty 17 7 0 10 -262144
-1 -1;
#X floatatom 98 294 5 0 0 0 - - -;
#X floatatom 151 294 5 0 0 0 - - -;
#X obj 169 40 inlet;
#X obj 278 42 inlet;
#X obj 244 105 bng 15 250 50 0 empty empty empty 17 7 0 10 -262144
-1 -1;
#X obj 209 273 bng 15 250 50 0 empty empty empty 17 7 0 10 -262144
-1 -1;
#X floatatom 201 294 5 0 0 0 - - -;
#X obj 201 251 pentatonic;
#X obj 295 273 bng 15 250 50 0 empty empty empty 17 7 0 10 -262144
-1 -1;
#X floatatom 285 293 5 -1 0 0 - - -;
#X obj 285 250 chromatic;
#X obj 172 384 outlet;
#X obj 232 382 outlet;
#X obj 195 345 t b f;
#X floatatom 24 195 5 0 0 0 - - -;
#X obj 24 163 spigot;
#X obj 63 84 bng 15 250 50 0 empty empty empty 17 7 0 10 -262144 -1
-1;
#X obj 63 132 tgl 15 0 empty empty empty 17 7 0 10 -262144 -1 -1 0
1;
#X obj -10 106 delay 100;
#X obj 24 226 send step;
#X obj -34 54 receive BangSlider7;
#X connect 0 0 2 1;
#X connect 0 0 12 0;
#X connect 1 0 2 0;
#X connect 1 0 23 0;
#X connect 2 0 3 0;
#X connect 3 0 4 0;
#X connect 3 1 5 0;
#X connect 3 2 15 0;
#X connect 3 3 18 0;
#X connect 4 0 6 0;
#X connect 4 0 8 0;
#X connect 5 0 7 0;
#X connect 5 0 9 0;
#X connect 8 0 21 0;
#X connect 9 0 21 0;
#X connect 10 0 1 0;
#X connect 11 0 0 0;
#X connect 12 0 1 0;
#X connect 14 0 21 0;
#X connect 15 0 13 0;
#X connect 15 0 14 0;
#X connect 17 0 21 0;
#X connect 18 0 16 0;
#X connect 18 0 17 0;
#X connect 21 0 19 0;
#X connect 21 1 20 0;
#X connect 22 0 27 0;
#X connect 23 0 22 0;
#X connect 24 0 25 0;
#X connect 24 0 26 0;
#X connect 24 0 1 0;
#X connect 25 0 23 1;
#X connect 26 0 25 0;
#X connect 28 0 24 0;
#X restore 1121 820 pd mode7;
#N canvas 460 73 490 402 mode8 0;
#X obj 278 78 hradio 15 1 0 4 empty empty empty 0 -8 0 10 -262144 -1
-1 0;
#X obj 169 131 nbx 5 14 -1e+037 1e+037 0 0 empty empty empty 0 -8 0
10 -262144 -1 -1 6 256;
#X obj 169 186 list prepend $f1;
#X obj 169 210 route 0 1 2 3;
#X obj 98 251 mayor;
#X obj 151 251 minor;
#X obj 106 273 bng 15 250 50 0 empty empty empty 17 7 0 10 -262144
-1 -1;
#X obj 159 273 bng 15 250 50 0 empty empty empty 17 7 0 10 -262144
-1 -1;
#X floatatom 98 294 5 0 0 0 - - -;
#X floatatom 151 294 5 0 0 0 - - -;
#X obj 169 40 inlet;
#X obj 278 42 inlet;
#X obj 244 105 bng 15 250 50 0 empty empty empty 17 7 0 10 -262144
-1 -1;
#X obj 209 273 bng 15 250 50 0 empty empty empty 17 7 0 10 -262144
-1 -1;
#X floatatom 201 294 5 0 0 0 - - -;
#X obj 201 251 pentatonic;
#X obj 295 273 bng 15 250 50 0 empty empty empty 17 7 0 10 -262144
-1 -1;
#X floatatom 285 293 5 -1 0 0 - - -;
#X obj 285 250 chromatic;
#X obj 172 384 outlet;
#X obj 232 382 outlet;
#X obj 195 345 t b f;
#X floatatom 44 181 5 0 0 0 - - -;
#X obj 44 149 spigot;
#X obj 83 70 bng 15 250 50 0 empty empty empty 17 7 0 10 -262144 -1
-1;
#X obj 83 118 tgl 15 0 empty empty empty 17 7 0 10 -262144 -1 -1 0
1;
#X obj 10 92 delay 100;
#X obj 44 212 send step;
#X obj -14 40 receive BangSlider8;
#X connect 0 0 2 1;
#X connect 0 0 12 0;
#X connect 1 0 2 0;
#X connect 1 0 23 0;
#X connect 2 0 3 0;
#X connect 3 0 4 0;
#X connect 3 1 5 0;
#X connect 3 2 15 0;
#X connect 3 3 18 0;
#X connect 4 0 6 0;
#X connect 4 0 8 0;
#X connect 5 0 7 0;
#X connect 5 0 9 0;
#X connect 8 0 21 0;
#X connect 9 0 21 0;
#X connect 10 0 1 0;
#X connect 11 0 0 0;
#X connect 12 0 1 0;
#X connect 14 0 21 0;
#X connect 15 0 13 0;
#X connect 15 0 14 0;
#X connect 17 0 21 0;
#X connect 18 0 16 0;
#X connect 18 0 17 0;
#X connect 21 0 19 0;
#X connect 21 1 20 0;
#X connect 22 0 27 0;
#X connect 23 0 22 0;
#X connect 24 0 25 0;
#X connect 24 0 26 0;
#X connect 24 0 1 0;
#X connect 25 0 23 1;
#X connect 26 0 25 0;
#X connect 28 0 24 0;
#X restore 1219 820 pd mode8;
#X obj 2042 738 route 0 1 3 5 6;
#X obj 1898 780 secon_voice_third;
#X floatatom 2175 700 5 0 0 0 - - -;
#X obj -34 1100 inlet;
#X obj 1709 204 route Melody2;
#X obj 744 289 route Sequencer2;
#X obj 2305 378 route Knob1;
#X obj 211 483 route Knob0;
#X obj 1419 483 route Knob0;
#X obj 1683 282 route Mixed2;
#X obj 1683 483 route Knob1;
#X obj 2042 483 route Knob2;
#X obj 1709 144 inlet;
#X obj 1134 1566 outlet~;
#X obj 327 724 bng 15 250 50 0 empty empty empty 17 7 0 10 -262144
-1 -1;
#X obj 1709 173 route smc8;
#X connect 0 0 126 0;
#X connect 0 1 126 2;
#X connect 0 2 126 4;
#X connect 0 3 126 6;
#X connect 0 4 126 8;
#X connect 0 5 126 10;
#X connect 0 6 126 12;
#X connect 0 7 126 14;
#X connect 1 0 32 1;
#X connect 2 0 32 1;
#X connect 3 0 1 1;
#X connect 4 0 2 1;
#X connect 5 0 11 1;
#X connect 6 0 12 1;
#X connect 7 0 13 1;
#X connect 8 0 14 1;
#X connect 9 0 15 1;
#X connect 10 0 16 1;
#X connect 11 0 32 1;
#X connect 12 0 32 1;
#X connect 13 0 32 1;
#X connect 14 0 32 1;
#X connect 15 0 32 1;
#X connect 16 0 32 1;
#X connect 17 0 56 0;
#X connect 18 0 3 0;
#X connect 19 0 4 0;
#X connect 20 0 5 0;
#X connect 21 0 6 0;
#X connect 22 0 7 0;
#X connect 23 0 8 0;
#X connect 24 0 9 0;
#X connect 25 0 10 0;
#X connect 26 0 156 0;
#X connect 27 0 28 0;
#X connect 28 0 29 0;
#X connect 29 0 26 1;
#X connect 31 0 32 0;
#X connect 32 0 26 0;
#X connect 33 0 19 0;
#X connect 33 0 20 0;
#X connect 33 0 21 0;
#X connect 33 0 22 0;
#X connect 33 0 23 0;
#X connect 33 0 24 0;
#X connect 33 0 25 0;
#X connect 33 0 18 0;
#X connect 34 0 32 2;
#X connect 35 0 36 0;
#X connect 36 0 41 0;
#X connect 37 0 85 0;
#X connect 37 0 86 0;
#X connect 37 0 33 0;
#X connect 38 0 39 0;
#X connect 38 1 40 1;
#X connect 39 0 40 0;
#X connect 40 0 36 1;
#X connect 40 0 42 1;
#X connect 40 0 44 1;
#X connect 40 0 46 1;
#X connect 40 0 48 1;
#X connect 40 0 50 1;
#X connect 40 0 52 1;
#X connect 40 0 54 1;
#X connect 41 0 116 0;
#X connect 42 0 43 0;
#X connect 43 0 117 0;
#X connect 44 0 45 0;
#X connect 45 0 118 0;
#X connect 46 0 47 0;
#X connect 47 0 119 0;
#X connect 48 0 49 0;
#X connect 49 0 120 0;
#X connect 50 0 51 0;
#X connect 51 0 121 0;
#X connect 52 0 53 0;
#X connect 53 0 122 0;
#X connect 54 0 55 0;
#X connect 55 0 123 0;
#X connect 56 0 18 0;
#X connect 56 0 19 0;
#X connect 56 0 20 0;
#X connect 56 0 21 0;
#X connect 56 0 22 0;
#X connect 56 0 23 0;
#X connect 56 0 24 0;
#X connect 56 0 25 0;
#X connect 57 0 42 0;
#X connect 58 0 44 0;
#X connect 59 0 46 0;
#X connect 60 0 48 0;
#X connect 61 0 50 0;
#X connect 62 0 52 0;
#X connect 63 0 54 0;
#X connect 64 0 88 0;
#X connect 64 0 87 0;
#X connect 65 0 66 0;
#X connect 65 1 67 1;
#X connect 66 0 67 0;
#X connect 67 0 68 1;
#X connect 68 0 69 0;
#X connect 69 0 125 0;
#X connect 70 0 17 0;
#X connect 71 0 89 0;
#X connect 71 0 90 0;
#X connect 72 0 73 0;
#X connect 72 1 74 1;
#X connect 73 0 74 0;
#X connect 74 0 75 1;
#X connect 75 0 76 0;
#X connect 76 0 77 0;
#X connect 77 0 31 0;
#X connect 78 0 91 0;
#X connect 78 0 92 0;
#X connect 79 0 80 0;
#X connect 79 1 81 1;
#X connect 80 0 81 0;
#X connect 81 0 82 1;
#X connect 82 0 84 0;
#X connect 83 0 27 0;
#X connect 84 0 83 0;
#X connect 85 0 39 0;
#X connect 86 0 38 0;
#X connect 87 0 65 0;
#X connect 88 0 66 0;
#X connect 89 0 73 0;
#X connect 90 0 72 0;
#X connect 91 0 80 0;
#X connect 92 0 79 0;
#X connect 93 0 70 1;
#X connect 94 0 101 0;
#X connect 94 0 100 0;
#X connect 95 0 96 0;
#X connect 95 1 97 1;
#X connect 96 0 97 0;
#X connect 97 0 98 1;
#X connect 98 0 99 0;
#X connect 99 0 143 0;
#X connect 99 0 144 1;
#X connect 99 0 145 0;
#X connect 100 0 95 0;
#X connect 101 0 96 0;
#X connect 102 0 34 0;
#X connect 103 0 34 0;
#X connect 104 0 34 0;
#X connect 105 0 34 0;
#X connect 106 0 34 0;
#X connect 107 0 113 0;
#X connect 107 0 114 0;
#X connect 108 0 109 0;
#X connect 108 1 110 1;
#X connect 109 0 110 0;
#X connect 110 0 111 1;
#X connect 111 0 115 0;
#X connect 112 0 135 1;
#X connect 112 0 136 1;
#X connect 112 0 137 1;
#X connect 112 0 138 1;
#X connect 112 0 139 1;
#X connect 112 0 140 1;
#X connect 112 0 141 1;
#X connect 112 0 142 1;
#X connect 112 0 144 0;
#X connect 113 0 109 0;
#X connect 114 0 108 0;
#X connect 115 0 112 0;
#X connect 116 0 135 0;
#X connect 116 1 135 1;
#X connect 117 0 136 0;
#X connect 117 1 136 1;
#X connect 118 0 137 0;
#X connect 118 1 137 1;
#X connect 119 0 138 0;
#X connect 119 1 138 1;
#X connect 120 0 139 0;
#X connect 120 1 139 1;
#X connect 121 0 140 0;
#X connect 121 1 140 1;
#X connect 122 0 141 0;
#X connect 122 1 141 1;
#X connect 123 0 142 0;
#X connect 123 1 142 1;
#X connect 124 0 127 0;
#X connect 125 0 70 0;
#X connect 126 0 1 0;
#X connect 126 1 2 0;
#X connect 126 2 11 0;
#X connect 126 3 12 0;
#X connect 126 4 13 0;
#X connect 126 5 14 0;
#X connect 126 6 15 0;
#X connect 126 7 16 0;
#X connect 128 0 93 0;
#X connect 128 0 125 0;
#X connect 129 0 77 0;
#X connect 129 0 157 0;
#X connect 135 0 18 0;
#X connect 135 1 18 1;
#X connect 135 1 126 1;
#X connect 136 0 19 0;
#X connect 136 1 19 1;
#X connect 136 1 126 3;
#X connect 137 0 20 0;
#X connect 137 1 20 1;
#X connect 137 1 126 5;
#X connect 138 0 21 0;
#X connect 138 1 21 1;
#X connect 138 1 126 7;
#X connect 139 0 22 0;
#X connect 139 1 22 1;
#X connect 139 1 126 9;
#X connect 140 0 23 0;
#X connect 140 1 23 1;
#X connect 140 1 126 11;
#X connect 141 0 24 0;
#X connect 141 1 24 1;
#X connect 141 1 126 13;
#X connect 142 0 25 0;
#X connect 142 1 25 1;
#X connect 142 1 126 15;
#X connect 143 0 102 0;
#X connect 143 1 103 0;
#X connect 143 2 104 0;
#X connect 143 3 105 0;
#X connect 143 4 106 0;
#X connect 144 0 34 0;
#X connect 146 0 0 0;
#X connect 147 0 124 0;
#X connect 147 0 148 0;
#X connect 147 0 152 0;
#X connect 148 0 35 0;
#X connect 148 0 37 0;
#X connect 148 0 57 0;
#X connect 148 0 58 0;
#X connect 148 0 59 0;
#X connect 148 0 60 0;
#X connect 148 0 61 0;
#X connect 148 0 62 0;
#X connect 148 0 63 0;
#X connect 148 0 149 0;
#X connect 148 0 150 0;
#X connect 149 0 78 0;
#X connect 149 0 82 0;
#X connect 150 0 75 0;
#X connect 150 0 71 0;
#X connect 151 0 107 0;
#X connect 151 0 111 0;
#X connect 152 0 151 0;
#X connect 152 0 153 0;
#X connect 152 0 154 0;
#X connect 153 0 68 0;
#X connect 153 0 64 0;
#X connect 154 0 98 0;
#X connect 154 0 94 0;
#X connect 155 0 158 0;
#X connect 158 0 147 0;
