#N canvas 952 0 958 966 12;
#X obj 91 954 select 0 1 2 3 4 5 6 7;
#X obj 752 1357 f;
#X obj 782 1357 f;
#X obj 770 1141 vsl 15 128 48 84 0 0 empty empty empty 0 -9 0 10 -4034
-1 -1 1764 1;
#X obj 800 1142 vsl 15 128 48 84 0 0 empty empty empty 0 -9 0 10 -4034
-1 -1 1058 1;
#X obj 830 1142 vsl 15 128 48 84 0 0 empty empty empty 0 -9 0 10 -4034
-1 -1 0 1;
#X obj 861 1142 vsl 15 128 48 84 0 0 empty empty empty 0 -9 0 10 -4034
-1 -1 0 1;
#X obj 892 1142 vsl 15 128 48 84 0 0 empty empty empty 0 -9 0 10 -4034
-1 -1 0 1;
#X obj 922 1142 vsl 15 128 48 84 0 0 empty empty empty 0 -9 0 10 -4034
-1 -1 0 1;
#X obj 952 1142 vsl 15 128 48 84 0 0 empty empty empty 0 -9 0 10 -4034
-1 -1 0 1;
#X obj 982 1141 vsl 15 128 48 84 0 0 empty empty empty 0 -9 0 10 -4034
-1 -1 0 1;
#X obj 812 1357 f;
#X obj 843 1357 f;
#X obj 874 1357 f;
#X obj 904 1357 f;
#X obj 934 1357 f;
#X obj 964 1357 f;
#X obj 1686 839 hsl 128 15 60 72 0 0 empty empty empty -2 -8 0 10 -262144
-1 -1 0 1;
#X obj 515 948 +;
#X obj 618 950 +;
#X obj 716 951 +;
#X obj 818 952 +;
#X obj 920 953 +;
#X obj 1020 953 +;
#X obj 1121 954 +;
#X obj 1219 954 +;
#X obj 924 1742 *~;
#X obj 988 1525 vsl 15 128 0 1 0 0 empty empty empty 0 -9 0 10 -258113
-1 -1 5711 1;
#X msg 988 1665 \$1 100;
#X obj 988 1692 line~;
#X text 931 1527 Volume;
#X obj 2789 999 hradio 15 1 0 4 empty empty Waveform 50 8 0 10 -257985
-1 -1 0;
#X obj 827 1495 synth one;
#X obj 403 876 bng 15 250 50 0 empty empty empty 17 7 0 10 -262144
-1 -1;
#X floatatom 2296 889 5 0 0 0 - - -;
#X obj 515 483 route Slider0;
#X obj 515 680 *;
#X obj 403 515 bng 15 250 50 0 empty empty empty 17 7 0 10 -262144
-1 -1;
#X obj 457 583 t b f;
#X obj 427 583 f;
#X obj 446 611 /;
#X obj 515 731 i;
#X obj 618 680 *;
#X obj 618 731 i;
#X obj 716 680 *;
#X obj 716 731 i;
#X obj 818 680 *;
#X obj 818 731 i;
#X obj 920 680 *;
#X obj 920 731 i;
#X obj 1020 680 *;
#X obj 1020 731 i;
#X obj 1121 680 *;
#X obj 1121 731 i;
#X obj 1219 680 *;
#X obj 1219 731 i;
#X floatatom 1683 878 5 0 0 0 - - -;
#X obj 618 483 route Slider1;
#X obj 716 483 route Slider2;
#X obj 818 483 route Slider3;
#X obj 920 483 route Slider4;
#X obj 1020 483 route Slider5;
#X obj 1121 483 route Slider6;
#X obj 1219 483 route Slider7;
#X obj 1731 518 bng 15 250 50 0 empty empty empty 17 7 0 10 -262144
-1 -1;
#X obj 1764 588 t b f;
#X obj 1734 588 f;
#X obj 1753 616 /;
#X obj 1683 653 *;
#X obj 1683 700 i;
#X obj 1683 769 +;
#X obj 2818 602 bng 15 250 50 0 empty empty empty 17 7 0 10 -262144
-1 -1;
#X obj 2824 667 t b f;
#X obj 2794 667 f;
#X obj 2813 695 /;
#X obj 2789 742 *;
#X obj 2789 791 i;
#X floatatom 2789 841 5 0 0 0 - - -;
#X obj 3172 662 bng 15 250 50 0 empty empty empty 17 7 0 10 -262144
-1 -1;
#X obj 3164 733 t b f;
#X obj 3134 733 f;
#X obj 3153 761 /;
#X obj 3109 810 *;
#X floatatom 2980 1156 5 0 0 0 - - -;
#X obj 3109 839 f;
#X obj 416 548 nbx 3 20 0 400 0 1 empty empty empty 0 -8 0 10 -262144
-1 -1 13 256;
#X obj 465 549 nbx 4 20 0 1023 0 1 empty empty empty 0 -8 0 10 -262144
-1 -1 1023 256;
#X obj 1762 552 nbx 4 20 0 1023 0 1 empty empty empty 0 -8 0 10 -262144
-1 -1 1023 256;
#X obj 1708 550 nbx 4 20 0 1023 0 1 empty empty empty 0 -8 0 10 -262144
-1 -1 12 256;
#X obj 2788 634 nbx 4 20 0 1023 0 1 empty empty empty 0 -8 0 10 -262144
-1 -1 3 256;
#X obj 2847 634 nbx 4 20 0 1023 0 1 empty empty empty 0 -8 0 10 -262144
-1 -1 1023 256;
#X obj 3131 696 nbx 4 20 0 1023 0 1 empty empty empty 0 -8 0 10 -262144
-1 -1 1 256;
#X obj 3186 698 nbx 4 20 0 1023 0 1 empty empty empty 0 -8 0 10 -262144
-1 -1 1023 256;
#X obj 1743 729 nbx 4 20 0 1023 0 1 empty empty empty 0 -8 0 10 -262144
-1 -1 48 256;
#X obj 2283 525 bng 15 250 50 0 empty empty empty 17 7 0 10 -262144
-1 -1;
#X obj 2316 595 t b f;
#X obj 2286 595 f;
#X obj 2305 623 /;
#X obj 2235 666 *;
#X obj 2235 727 i;
#X obj 2314 559 nbx 4 20 0 1023 0 1 empty empty empty 0 -8 0 10 -262144
-1 -1 1023 256;
#X obj 2260 559 nbx 4 20 0 1023 0 1 empty empty empty 0 -8 0 10 -262144
-1 -1 6 256;
#X msg 2235 808 -12;
#X msg 2270 808 -7;
#X msg 2308 808 0;
#X msg 2346 808 7;
#X msg 2383 808 12;
#X obj 1446 511 bng 15 250 50 0 empty empty empty 17 7 0 10 -262144
-1 -1;
#X obj 1482 584 t b f;
#X obj 1452 584 f;
#X obj 1471 612 /;
#X obj 1419 643 *;
#X floatatom 1419 725 5 0 0 0 - - -;
#X obj 1446 549 nbx 4 20 0 1023 0 1 empty empty empty 0 -8 0 10 -262144
-1 -1 3 256;
#X obj 1504 549 nbx 4 20 0 1023 0 1 empty empty empty 0 -8 0 10 -262144
-1 -1 1023 256;
#X obj 1419 700 i;
#X obj 515 770 t f b;
#X obj 618 770 t f b;
#X obj 716 770 t f b;
#X obj 818 770 t f b;
#X obj 920 770 t f b;
#X obj 1020 770 t f b;
#X obj 1121 770 t f b;
#X obj 1219 770 t f b;
#X obj 1720 229 bng 15 250 50 0 empty empty empty 17 7 0 10 -262144
-1 -1;
#X obj 1683 729 nbx 4 20 0 1023 0 1 empty empty empty 0 -8 0 10 -262144
-1 -1 0 256;
#N canvas 465 67 793 596 silenceeeeeeeeeeeeeeeeeeeeeee 0;
#X floatatom 142 55 5 -1 0 0 - - -;
#X obj 142 78 >= 0;
#X floatatom 142 102 5 0 0 0 - - -;
#X obj 59 181 bng 15 250 50 0 empty empty empty 17 7 0 10 -262144 -1
-1;
#X obj 59 144 spigot 0;
#X obj 34 61 bng 15 250 50 0 empty empty empty 17 7 0 10 -262144 -1
-1;
#X obj 34 33 inlet;
#X obj 142 31 inlet;
#X obj 59 214 outlet;
#X floatatom 302 56 5 -1 0 0 - - -;
#X obj 302 79 >= 0;
#X floatatom 302 103 5 0 0 0 - - -;
#X obj 219 182 bng 15 250 50 0 empty empty empty 17 7 0 10 -262144
-1 -1;
#X obj 219 145 spigot 0;
#X obj 194 62 bng 15 250 50 0 empty empty empty 17 7 0 10 -262144 -1
-1;
#X obj 194 34 inlet;
#X obj 302 32 inlet;
#X obj 219 215 outlet;
#X floatatom 474 54 5 -1 0 0 - - -;
#X obj 474 77 >= 0;
#X floatatom 474 101 5 0 0 0 - - -;
#X obj 391 180 bng 15 250 50 0 empty empty empty 17 7 0 10 -262144
-1 -1;
#X obj 391 143 spigot 0;
#X obj 366 60 bng 15 250 50 0 empty empty empty 17 7 0 10 -262144 -1
-1;
#X obj 366 32 inlet;
#X obj 474 30 inlet;
#X obj 391 213 outlet;
#X floatatom 634 52 5 -1 0 0 - - -;
#X obj 634 75 >= 0;
#X floatatom 634 99 5 0 0 0 - - -;
#X obj 551 178 bng 15 250 50 0 empty empty empty 17 7 0 10 -262144
-1 -1;
#X obj 551 141 spigot 0;
#X obj 526 58 bng 15 250 50 0 empty empty empty 17 7 0 10 -262144 -1
-1;
#X obj 526 30 inlet;
#X obj 634 28 inlet;
#X obj 551 211 outlet;
#X floatatom 792 51 5 -1 0 0 - - -;
#X obj 792 74 >= 0;
#X floatatom 792 98 5 0 0 0 - - -;
#X obj 709 177 bng 15 250 50 0 empty empty empty 17 7 0 10 -262144
-1 -1;
#X obj 709 140 spigot 0;
#X obj 684 57 bng 15 250 50 0 empty empty empty 17 7 0 10 -262144 -1
-1;
#X obj 684 29 inlet;
#X obj 792 27 inlet;
#X obj 709 210 outlet;
#X floatatom 953 51 5 -1 0 0 - - -;
#X obj 953 74 >= 0;
#X floatatom 953 98 5 0 0 0 - - -;
#X obj 870 177 bng 15 250 50 0 empty empty empty 17 7 0 10 -262144
-1 -1;
#X obj 870 140 spigot 0;
#X obj 845 57 bng 15 250 50 0 empty empty empty 17 7 0 10 -262144 -1
-1;
#X obj 845 29 inlet;
#X obj 953 27 inlet;
#X obj 870 210 outlet;
#X floatatom 1113 50 5 -1 0 0 - - -;
#X obj 1113 73 >= 0;
#X floatatom 1113 97 5 0 0 0 - - -;
#X obj 1030 176 bng 15 250 50 0 empty empty empty 17 7 0 10 -262144
-1 -1;
#X obj 1030 139 spigot 0;
#X obj 1005 56 bng 15 250 50 0 empty empty empty 17 7 0 10 -262144
-1 -1;
#X obj 1005 28 inlet;
#X obj 1113 26 inlet;
#X obj 1030 209 outlet;
#X floatatom 1276 48 5 -1 0 0 - - -;
#X obj 1276 71 >= 0;
#X floatatom 1276 95 5 0 0 0 - - -;
#X obj 1193 174 bng 15 250 50 0 empty empty empty 17 7 0 10 -262144
-1 -1;
#X obj 1193 137 spigot 0;
#X obj 1168 54 bng 15 250 50 0 empty empty empty 17 7 0 10 -262144
-1 -1;
#X obj 1168 26 inlet;
#X obj 1276 24 inlet;
#X obj 1193 207 outlet;
#X obj 26 242 send BangSlider1;
#X obj 180 242 send BangSlider2;
#X obj 1157 242 send BangSlider8;
#X obj 993 242 send BangSlider7;
#X obj 836 242 send BangSlider6;
#X obj 669 242 send BangSlider5;
#X obj 510 242 send BangSlider4;
#X obj 346 242 send BangSlider3;
#X connect 0 0 1 0;
#X connect 1 0 2 0;
#X connect 2 0 4 1;
#X connect 3 0 8 0;
#X connect 3 0 72 0;
#X connect 4 0 3 0;
#X connect 5 0 4 0;
#X connect 6 0 5 0;
#X connect 7 0 0 0;
#X connect 9 0 10 0;
#X connect 10 0 11 0;
#X connect 11 0 13 1;
#X connect 12 0 17 0;
#X connect 12 0 73 0;
#X connect 13 0 12 0;
#X connect 14 0 13 0;
#X connect 15 0 14 0;
#X connect 16 0 9 0;
#X connect 18 0 19 0;
#X connect 19 0 20 0;
#X connect 20 0 22 1;
#X connect 21 0 26 0;
#X connect 21 0 79 0;
#X connect 22 0 21 0;
#X connect 23 0 22 0;
#X connect 24 0 23 0;
#X connect 25 0 18 0;
#X connect 27 0 28 0;
#X connect 28 0 29 0;
#X connect 29 0 31 1;
#X connect 30 0 35 0;
#X connect 30 0 78 0;
#X connect 31 0 30 0;
#X connect 32 0 31 0;
#X connect 33 0 32 0;
#X connect 34 0 27 0;
#X connect 36 0 37 0;
#X connect 37 0 38 0;
#X connect 38 0 40 1;
#X connect 39 0 44 0;
#X connect 39 0 77 0;
#X connect 40 0 39 0;
#X connect 41 0 40 0;
#X connect 42 0 41 0;
#X connect 43 0 36 0;
#X connect 45 0 46 0;
#X connect 46 0 47 0;
#X connect 47 0 49 1;
#X connect 48 0 53 0;
#X connect 48 0 76 0;
#X connect 49 0 48 0;
#X connect 50 0 49 0;
#X connect 51 0 50 0;
#X connect 52 0 45 0;
#X connect 54 0 55 0;
#X connect 55 0 56 0;
#X connect 56 0 58 1;
#X connect 57 0 62 0;
#X connect 57 0 75 0;
#X connect 58 0 57 0;
#X connect 59 0 58 0;
#X connect 60 0 59 0;
#X connect 61 0 54 0;
#X connect 63 0 64 0;
#X connect 64 0 65 0;
#X connect 65 0 67 1;
#X connect 66 0 71 0;
#X connect 66 0 74 0;
#X connect 67 0 66 0;
#X connect 68 0 67 0;
#X connect 69 0 68 0;
#X connect 70 0 63 0;
#X restore 56 1078 pd silenceeeeeeeeeeeeeeeeeeeeeee;
#X obj 1720 250 send MelodyBang;
#X obj 1769 663 receive MelodyBang;
#X obj 2831 807 receive MelodyBang;
#X text 2229 453 SECOND VOICE;
#X text 1708 459 KEY;
#X text 3132 547 VOLUME;
#X text 1442 462 MODE;
#X text 2780 546 WAVE;
#N canvas 952 21 574 402 mode1 0;
#X obj 368 77 hradio 15 1 0 4 empty empty empty 0 -8 0 10 -262144 -1
-1 1;
#X obj 259 130 nbx 5 14 -1e+037 1e+037 0 0 empty empty empty 0 -8 0
10 -262144 -1 -1 4 256;
#X obj 259 185 list prepend $f1;
#X obj 259 209 route 0 1 2 3;
#X obj 188 250 mayor;
#X obj 241 250 minor;
#X obj 196 272 bng 15 250 50 0 empty empty empty 17 7 0 10 -262144
-1 -1;
#X obj 249 272 bng 15 250 50 0 empty empty empty 17 7 0 10 -262144
-1 -1;
#X floatatom 188 293 5 0 0 0 - - -;
#X floatatom 241 293 5 0 0 0 - - -;
#X obj 259 39 inlet;
#X obj 368 41 inlet;
#X obj 334 104 bng 15 250 50 0 empty empty empty 17 7 0 10 -262144
-1 -1;
#X obj 299 272 bng 15 250 50 0 empty empty empty 17 7 0 10 -262144
-1 -1;
#X floatatom 291 293 5 0 0 0 - - -;
#X obj 291 250 pentatonic;
#X obj 385 272 bng 15 250 50 0 empty empty empty 17 7 0 10 -262144
-1 -1;
#X floatatom 375 292 5 -1 0 0 - - -;
#X obj 375 249 chromatic;
#X obj 262 383 outlet;
#X obj 322 381 outlet;
#X obj 285 344 t b f;
#X floatatom 100 177 5 0 0 0 - - -;
#X obj 42 36 receive BangSlider1;
#X obj 100 145 spigot;
#X obj 139 66 bng 15 250 50 0 empty empty empty 17 7 0 10 -262144 -1
-1;
#X obj 139 114 tgl 15 0 empty empty empty 17 7 0 10 -262144 -1 -1 0
1;
#X obj 66 88 delay 100;
#X obj 100 208 send step;
#X connect 0 0 2 1;
#X connect 0 0 12 0;
#X connect 1 0 2 0;
#X connect 1 0 24 0;
#X connect 2 0 3 0;
#X connect 3 0 4 0;
#X connect 3 1 5 0;
#X connect 3 2 15 0;
#X connect 3 3 18 0;
#X connect 4 0 6 0;
#X connect 4 0 8 0;
#X connect 5 0 7 0;
#X connect 5 0 9 0;
#X connect 8 0 21 0;
#X connect 9 0 21 0;
#X connect 10 0 1 0;
#X connect 11 0 0 0;
#X connect 12 0 1 0;
#X connect 14 0 21 0;
#X connect 15 0 13 0;
#X connect 15 0 14 0;
#X connect 17 0 21 0;
#X connect 18 0 16 0;
#X connect 18 0 17 0;
#X connect 21 0 19 0;
#X connect 21 1 20 0;
#X connect 22 0 28 0;
#X connect 23 0 25 0;
#X connect 24 0 22 0;
#X connect 25 0 26 0;
#X connect 25 0 27 0;
#X connect 25 0 1 0;
#X connect 26 0 24 1;
#X connect 27 0 26 0;
#X restore 515 820 pd mode1;
#N canvas 952 485 490 402 mode2 0;
#X obj 339 94 hradio 15 1 0 4 empty empty empty 0 -8 0 10 -262144 -1
-1 1;
#X obj 230 147 nbx 5 14 -1e+037 1e+037 0 0 empty empty empty 0 -8 0
10 -262144 -1 -1 3 256;
#X obj 230 202 list prepend $f1;
#X obj 230 226 route 0 1 2 3;
#X obj 159 267 mayor;
#X obj 212 267 minor;
#X obj 167 289 bng 15 250 50 0 empty empty empty 17 7 0 10 -262144
-1 -1;
#X obj 220 289 bng 15 250 50 0 empty empty empty 17 7 0 10 -262144
-1 -1;
#X floatatom 159 310 5 0 0 0 - - -;
#X floatatom 212 310 5 0 0 0 - - -;
#X obj 230 56 inlet;
#X obj 339 58 inlet;
#X obj 270 289 bng 15 250 50 0 empty empty empty 17 7 0 10 -262144
-1 -1;
#X floatatom 262 310 5 0 0 0 - - -;
#X obj 262 267 pentatonic;
#X obj 356 289 bng 15 250 50 0 empty empty empty 17 7 0 10 -262144
-1 -1;
#X floatatom 346 309 5 -1 0 0 - - -;
#X obj 346 266 chromatic;
#X obj 233 400 outlet;
#X obj 293 398 outlet;
#X obj 256 361 t b f;
#X floatatom 86 203 5 0 0 0 - - -;
#X obj 86 171 spigot;
#X obj 125 92 bng 15 250 50 0 empty empty empty 17 7 0 10 -262144 -1
-1;
#X obj 125 140 tgl 15 0 empty empty empty 17 7 0 10 -262144 -1 -1 0
1;
#X obj 52 114 delay 100;
#X obj 86 234 send step;
#X obj 28 62 receive BangSlider2;
#X obj 305 122 bng 15 250 50 0 empty empty empty 17 7 0 10 -262144
-1 -1;
#X connect 0 0 2 1;
#X connect 0 0 28 0;
#X connect 1 0 2 0;
#X connect 1 0 22 0;
#X connect 2 0 3 0;
#X connect 3 0 4 0;
#X connect 3 1 5 0;
#X connect 3 2 14 0;
#X connect 3 3 17 0;
#X connect 4 0 6 0;
#X connect 4 0 8 0;
#X connect 5 0 7 0;
#X connect 5 0 9 0;
#X connect 8 0 20 0;
#X connect 9 0 20 0;
#X connect 10 0 1 0;
#X connect 11 0 0 0;
#X connect 13 0 20 0;
#X connect 14 0 12 0;
#X connect 14 0 13 0;
#X connect 16 0 20 0;
#X connect 17 0 15 0;
#X connect 17 0 16 0;
#X connect 20 0 18 0;
#X connect 20 1 19 0;
#X connect 21 0 26 0;
#X connect 22 0 21 0;
#X connect 23 0 24 0;
#X connect 23 0 25 0;
#X connect 23 0 1 0;
#X connect 24 0 22 1;
#X connect 25 0 24 0;
#X connect 27 0 23 0;
#X connect 28 0 1 0;
#X restore 618 820 pd mode2;
#N canvas 946 53 490 402 mode3 0;
#X obj 278 78 hradio 15 1 0 4 empty empty empty 0 -8 0 10 -262144 -1
-1 1;
#X obj 169 131 nbx 5 14 -1e+037 1e+037 0 0 empty empty empty 0 -8 0
10 -262144 -1 -1 0 256;
#X obj 169 186 list prepend $f1;
#X obj 169 210 route 0 1 2 3;
#X obj 98 251 mayor;
#X obj 151 251 minor;
#X obj 106 273 bng 15 250 50 0 empty empty empty 17 7 0 10 -262144
-1 -1;
#X obj 159 273 bng 15 250 50 0 empty empty empty 17 7 0 10 -262144
-1 -1;
#X floatatom 98 294 5 0 0 0 - - -;
#X floatatom 151 294 5 0 0 0 - - -;
#X obj 169 40 inlet;
#X obj 278 42 inlet;
#X obj 244 105 bng 15 250 50 0 empty empty empty 17 7 0 10 -262144
-1 -1;
#X obj 209 273 bng 15 250 50 0 empty empty empty 17 7 0 10 -262144
-1 -1;
#X floatatom 201 294 5 0 0 0 - - -;
#X obj 201 251 pentatonic;
#X obj 295 273 bng 15 250 50 0 empty empty empty 17 7 0 10 -262144
-1 -1;
#X floatatom 285 293 5 -1 0 0 - - -;
#X obj 285 250 chromatic;
#X obj 172 384 outlet;
#X obj 232 382 outlet;
#X obj 195 345 t b f;
#X floatatom 44 181 5 0 0 0 - - -;
#X obj 44 149 spigot;
#X obj 83 70 bng 15 250 50 0 empty empty empty 17 7 0 10 -262144 -1
-1;
#X obj 83 118 tgl 15 0 empty empty empty 17 7 0 10 -262144 -1 -1 0
1;
#X obj 10 92 delay 100;
#X obj 44 212 send step;
#X obj -14 40 receive BangSlider3;
#X connect 0 0 2 1;
#X connect 0 0 12 0;
#X connect 1 0 2 0;
#X connect 1 0 23 0;
#X connect 2 0 3 0;
#X connect 3 0 4 0;
#X connect 3 1 5 0;
#X connect 3 2 15 0;
#X connect 3 3 18 0;
#X connect 4 0 6 0;
#X connect 4 0 8 0;
#X connect 5 0 7 0;
#X connect 5 0 9 0;
#X connect 8 0 21 0;
#X connect 9 0 21 0;
#X connect 10 0 1 0;
#X connect 11 0 0 0;
#X connect 12 0 1 0;
#X connect 14 0 21 0;
#X connect 15 0 13 0;
#X connect 15 0 14 0;
#X connect 17 0 21 0;
#X connect 18 0 16 0;
#X connect 18 0 17 0;
#X connect 21 0 19 0;
#X connect 21 1 20 0;
#X connect 22 0 27 0;
#X connect 23 0 22 0;
#X connect 24 0 25 0;
#X connect 24 0 26 0;
#X connect 24 0 1 0;
#X connect 25 0 23 1;
#X connect 26 0 25 0;
#X connect 28 0 24 0;
#X restore 716 820 pd mode3;
#N canvas 823 100 490 402 mode4 0;
#X obj 278 78 hradio 15 1 0 4 empty empty empty 0 -8 0 10 -262144 -1
-1 1;
#X obj 169 131 nbx 5 14 -1e+037 1e+037 0 0 empty empty empty 0 -8 0
10 -262144 -1 -1 0 256;
#X obj 169 186 list prepend $f1;
#X obj 169 210 route 0 1 2 3;
#X obj 98 251 mayor;
#X obj 151 251 minor;
#X obj 106 273 bng 15 250 50 0 empty empty empty 17 7 0 10 -262144
-1 -1;
#X obj 159 273 bng 15 250 50 0 empty empty empty 17 7 0 10 -262144
-1 -1;
#X floatatom 98 294 5 0 0 0 - - -;
#X floatatom 151 294 5 0 0 0 - - -;
#X obj 169 40 inlet;
#X obj 278 42 inlet;
#X obj 244 105 bng 15 250 50 0 empty empty empty 17 7 0 10 -262144
-1 -1;
#X obj 209 273 bng 15 250 50 0 empty empty empty 17 7 0 10 -262144
-1 -1;
#X floatatom 201 294 5 0 0 0 - - -;
#X obj 201 251 pentatonic;
#X obj 295 273 bng 15 250 50 0 empty empty empty 17 7 0 10 -262144
-1 -1;
#X floatatom 285 293 5 -1 0 0 - - -;
#X obj 285 250 chromatic;
#X obj 172 384 outlet;
#X obj 232 382 outlet;
#X obj 195 345 t b f;
#X floatatom 39 191 5 0 0 0 - - -;
#X obj 39 159 spigot;
#X obj 78 80 bng 15 250 50 0 empty empty empty 17 7 0 10 -262144 -1
-1;
#X obj 78 128 tgl 15 0 empty empty empty 17 7 0 10 -262144 -1 -1 0
1;
#X obj 5 102 delay 100;
#X obj 39 222 send step;
#X obj -19 50 receive BangSlider4;
#X connect 0 0 2 1;
#X connect 0 0 12 0;
#X connect 1 0 2 0;
#X connect 1 0 23 0;
#X connect 2 0 3 0;
#X connect 3 0 4 0;
#X connect 3 1 5 0;
#X connect 3 2 15 0;
#X connect 3 3 18 0;
#X connect 4 0 6 0;
#X connect 4 0 8 0;
#X connect 5 0 7 0;
#X connect 5 0 9 0;
#X connect 8 0 21 0;
#X connect 9 0 21 0;
#X connect 10 0 1 0;
#X connect 11 0 0 0;
#X connect 12 0 1 0;
#X connect 14 0 21 0;
#X connect 15 0 13 0;
#X connect 15 0 14 0;
#X connect 17 0 21 0;
#X connect 18 0 16 0;
#X connect 18 0 17 0;
#X connect 21 0 19 0;
#X connect 21 1 20 0;
#X connect 22 0 27 0;
#X connect 23 0 22 0;
#X connect 24 0 25 0;
#X connect 24 0 26 0;
#X connect 24 0 1 0;
#X connect 25 0 23 1;
#X connect 26 0 25 0;
#X connect 28 0 24 0;
#X restore 818 820 pd mode4;
#N canvas 357 8 490 402 mode5 0;
#X obj 278 78 hradio 15 1 0 4 empty empty empty 0 -8 0 10 -262144 -1
-1 1;
#X obj 169 131 nbx 5 14 -1e+037 1e+037 0 0 empty empty empty 0 -8 0
10 -262144 -1 -1 0 256;
#X obj 169 186 list prepend $f1;
#X obj 169 210 route 0 1 2 3;
#X obj 98 251 mayor;
#X obj 151 251 minor;
#X obj 106 273 bng 15 250 50 0 empty empty empty 17 7 0 10 -262144
-1 -1;
#X obj 159 273 bng 15 250 50 0 empty empty empty 17 7 0 10 -262144
-1 -1;
#X floatatom 98 294 5 0 0 0 - - -;
#X floatatom 151 294 5 0 0 0 - - -;
#X obj 169 40 inlet;
#X obj 278 42 inlet;
#X obj 244 105 bng 15 250 50 0 empty empty empty 17 7 0 10 -262144
-1 -1;
#X obj 209 273 bng 15 250 50 0 empty empty empty 17 7 0 10 -262144
-1 -1;
#X floatatom 201 294 5 0 0 0 - - -;
#X obj 201 251 pentatonic;
#X obj 295 273 bng 15 250 50 0 empty empty empty 17 7 0 10 -262144
-1 -1;
#X floatatom 285 293 5 -1 0 0 - - -;
#X obj 285 250 chromatic;
#X obj 172 384 outlet;
#X obj 232 382 outlet;
#X obj 195 345 t b f;
#X floatatom 28 194 5 0 0 0 - - -;
#X obj 28 162 spigot;
#X obj 67 83 bng 15 250 50 0 empty empty empty 17 7 0 10 -262144 -1
-1;
#X obj 67 131 tgl 15 0 empty empty empty 17 7 0 10 -262144 -1 -1 0
1;
#X obj -6 105 delay 100;
#X obj 28 225 send step;
#X obj -30 53 receive BangSlider5;
#X connect 0 0 2 1;
#X connect 0 0 12 0;
#X connect 1 0 2 0;
#X connect 1 0 23 0;
#X connect 2 0 3 0;
#X connect 3 0 4 0;
#X connect 3 1 5 0;
#X connect 3 2 15 0;
#X connect 3 3 18 0;
#X connect 4 0 6 0;
#X connect 4 0 8 0;
#X connect 5 0 7 0;
#X connect 5 0 9 0;
#X connect 8 0 21 0;
#X connect 9 0 21 0;
#X connect 10 0 1 0;
#X connect 11 0 0 0;
#X connect 12 0 1 0;
#X connect 14 0 21 0;
#X connect 15 0 13 0;
#X connect 15 0 14 0;
#X connect 17 0 21 0;
#X connect 18 0 16 0;
#X connect 18 0 17 0;
#X connect 21 0 19 0;
#X connect 21 1 20 0;
#X connect 22 0 27 0;
#X connect 23 0 22 0;
#X connect 24 0 25 0;
#X connect 24 0 26 0;
#X connect 24 0 1 0;
#X connect 25 0 23 1;
#X connect 26 0 25 0;
#X connect 28 0 24 0;
#X restore 920 820 pd mode5;
#N canvas 460 73 490 402 mode6 0;
#X obj 278 78 hradio 15 1 0 4 empty empty empty 0 -8 0 10 -262144 -1
-1 1;
#X obj 169 131 nbx 5 14 -1e+037 1e+037 0 0 empty empty empty 0 -8 0
10 -262144 -1 -1 0 256;
#X obj 169 186 list prepend $f1;
#X obj 169 210 route 0 1 2 3;
#X obj 98 251 mayor;
#X obj 151 251 minor;
#X obj 106 273 bng 15 250 50 0 empty empty empty 17 7 0 10 -262144
-1 -1;
#X obj 159 273 bng 15 250 50 0 empty empty empty 17 7 0 10 -262144
-1 -1;
#X floatatom 98 294 5 0 0 0 - - -;
#X floatatom 151 294 5 0 0 0 - - -;
#X obj 169 40 inlet;
#X obj 278 42 inlet;
#X obj 244 105 bng 15 250 50 0 empty empty empty 17 7 0 10 -262144
-1 -1;
#X obj 209 273 bng 15 250 50 0 empty empty empty 17 7 0 10 -262144
-1 -1;
#X floatatom 201 294 5 0 0 0 - - -;
#X obj 201 251 pentatonic;
#X obj 295 273 bng 15 250 50 0 empty empty empty 17 7 0 10 -262144
-1 -1;
#X floatatom 285 293 5 -1 0 0 - - -;
#X obj 285 250 chromatic;
#X obj 172 384 outlet;
#X obj 232 382 outlet;
#X obj 195 345 t b f;
#X floatatom 25 198 5 0 0 0 - - -;
#X obj 25 166 spigot;
#X obj 64 87 bng 15 250 50 0 empty empty empty 17 7 0 10 -262144 -1
-1;
#X obj 64 135 tgl 15 0 empty empty empty 17 7 0 10 -262144 -1 -1 0
1;
#X obj -9 109 delay 100;
#X obj 25 229 send step;
#X obj -33 57 receive BangSlider6;
#X connect 0 0 2 1;
#X connect 0 0 12 0;
#X connect 1 0 2 0;
#X connect 1 0 23 0;
#X connect 2 0 3 0;
#X connect 3 0 4 0;
#X connect 3 1 5 0;
#X connect 3 2 15 0;
#X connect 3 3 18 0;
#X connect 4 0 6 0;
#X connect 4 0 8 0;
#X connect 5 0 7 0;
#X connect 5 0 9 0;
#X connect 8 0 21 0;
#X connect 9 0 21 0;
#X connect 10 0 1 0;
#X connect 11 0 0 0;
#X connect 12 0 1 0;
#X connect 14 0 21 0;
#X connect 15 0 13 0;
#X connect 15 0 14 0;
#X connect 17 0 21 0;
#X connect 18 0 16 0;
#X connect 18 0 17 0;
#X connect 21 0 19 0;
#X connect 21 1 20 0;
#X connect 22 0 27 0;
#X connect 23 0 22 0;
#X connect 24 0 25 0;
#X connect 24 0 26 0;
#X connect 24 0 1 0;
#X connect 25 0 23 1;
#X connect 26 0 25 0;
#X connect 28 0 24 0;
#X restore 1020 820 pd mode6;
#N canvas 688 69 490 402 mode7 0;
#X obj 278 78 hradio 15 1 0 4 empty empty empty 0 -8 0 10 -262144 -1
-1 1;
#X obj 169 131 nbx 5 14 -1e+037 1e+037 0 0 empty empty empty 0 -8 0
10 -262144 -1 -1 0 256;
#X obj 169 186 list prepend $f1;
#X obj 169 210 route 0 1 2 3;
#X obj 98 251 mayor;
#X obj 151 251 minor;
#X obj 106 273 bng 15 250 50 0 empty empty empty 17 7 0 10 -262144
-1 -1;
#X obj 159 273 bng 15 250 50 0 empty empty empty 17 7 0 10 -262144
-1 -1;
#X floatatom 98 294 5 0 0 0 - - -;
#X floatatom 151 294 5 0 0 0 - - -;
#X obj 169 40 inlet;
#X obj 278 42 inlet;
#X obj 244 105 bng 15 250 50 0 empty empty empty 17 7 0 10 -262144
-1 -1;
#X obj 209 273 bng 15 250 50 0 empty empty empty 17 7 0 10 -262144
-1 -1;
#X floatatom 201 294 5 0 0 0 - - -;
#X obj 201 251 pentatonic;
#X obj 295 273 bng 15 250 50 0 empty empty empty 17 7 0 10 -262144
-1 -1;
#X floatatom 285 293 5 -1 0 0 - - -;
#X obj 285 250 chromatic;
#X obj 172 384 outlet;
#X obj 232 382 outlet;
#X obj 195 345 t b f;
#X floatatom 24 195 5 0 0 0 - - -;
#X obj 24 163 spigot;
#X obj 63 84 bng 15 250 50 0 empty empty empty 17 7 0 10 -262144 -1
-1;
#X obj 63 132 tgl 15 0 empty empty empty 17 7 0 10 -262144 -1 -1 0
1;
#X obj -10 106 delay 100;
#X obj 24 226 send step;
#X obj -34 54 receive BangSlider7;
#X connect 0 0 2 1;
#X connect 0 0 12 0;
#X connect 1 0 2 0;
#X connect 1 0 23 0;
#X connect 2 0 3 0;
#X connect 3 0 4 0;
#X connect 3 1 5 0;
#X connect 3 2 15 0;
#X connect 3 3 18 0;
#X connect 4 0 6 0;
#X connect 4 0 8 0;
#X connect 5 0 7 0;
#X connect 5 0 9 0;
#X connect 8 0 21 0;
#X connect 9 0 21 0;
#X connect 10 0 1 0;
#X connect 11 0 0 0;
#X connect 12 0 1 0;
#X connect 14 0 21 0;
#X connect 15 0 13 0;
#X connect 15 0 14 0;
#X connect 17 0 21 0;
#X connect 18 0 16 0;
#X connect 18 0 17 0;
#X connect 21 0 19 0;
#X connect 21 1 20 0;
#X connect 22 0 27 0;
#X connect 23 0 22 0;
#X connect 24 0 25 0;
#X connect 24 0 26 0;
#X connect 24 0 1 0;
#X connect 25 0 23 1;
#X connect 26 0 25 0;
#X connect 28 0 24 0;
#X restore 1121 820 pd mode7;
#N canvas 460 73 490 402 mode8 0;
#X obj 278 78 hradio 15 1 0 4 empty empty empty 0 -8 0 10 -262144 -1
-1 1;
#X obj 169 131 nbx 5 14 -1e+037 1e+037 0 0 empty empty empty 0 -8 0
10 -262144 -1 -1 0 256;
#X obj 169 186 list prepend $f1;
#X obj 169 210 route 0 1 2 3;
#X obj 98 251 mayor;
#X obj 151 251 minor;
#X obj 106 273 bng 15 250 50 0 empty empty empty 17 7 0 10 -262144
-1 -1;
#X obj 159 273 bng 15 250 50 0 empty empty empty 17 7 0 10 -262144
-1 -1;
#X floatatom 98 294 5 0 0 0 - - -;
#X floatatom 151 294 5 0 0 0 - - -;
#X obj 169 40 inlet;
#X obj 278 42 inlet;
#X obj 244 105 bng 15 250 50 0 empty empty empty 17 7 0 10 -262144
-1 -1;
#X obj 209 273 bng 15 250 50 0 empty empty empty 17 7 0 10 -262144
-1 -1;
#X floatatom 201 294 5 0 0 0 - - -;
#X obj 201 251 pentatonic;
#X obj 295 273 bng 15 250 50 0 empty empty empty 17 7 0 10 -262144
-1 -1;
#X floatatom 285 293 5 -1 0 0 - - -;
#X obj 285 250 chromatic;
#X obj 172 384 outlet;
#X obj 232 382 outlet;
#X obj 195 345 t b f;
#X floatatom 44 181 5 0 0 0 - - -;
#X obj 44 149 spigot;
#X obj 83 70 bng 15 250 50 0 empty empty empty 17 7 0 10 -262144 -1
-1;
#X obj 83 118 tgl 15 0 empty empty empty 17 7 0 10 -262144 -1 -1 0
1;
#X obj 10 92 delay 100;
#X obj 44 212 send step;
#X obj -14 40 receive BangSlider8;
#X connect 0 0 2 1;
#X connect 0 0 12 0;
#X connect 1 0 2 0;
#X connect 1 0 23 0;
#X connect 2 0 3 0;
#X connect 3 0 4 0;
#X connect 3 1 5 0;
#X connect 3 2 15 0;
#X connect 3 3 18 0;
#X connect 4 0 6 0;
#X connect 4 0 8 0;
#X connect 5 0 7 0;
#X connect 5 0 9 0;
#X connect 8 0 21 0;
#X connect 9 0 21 0;
#X connect 10 0 1 0;
#X connect 11 0 0 0;
#X connect 12 0 1 0;
#X connect 14 0 21 0;
#X connect 15 0 13 0;
#X connect 15 0 14 0;
#X connect 17 0 21 0;
#X connect 18 0 16 0;
#X connect 18 0 17 0;
#X connect 21 0 19 0;
#X connect 21 1 20 0;
#X connect 22 0 27 0;
#X connect 23 0 22 0;
#X connect 24 0 25 0;
#X connect 24 0 26 0;
#X connect 24 0 1 0;
#X connect 25 0 23 1;
#X connect 26 0 25 0;
#X connect 28 0 24 0;
#X restore 1219 820 pd mode8;
#X obj 2235 766 route 0 1 3 5 6;
#X obj 2091 808 secon_voice_third;
#X obj 93 912 inlet;
#X obj 2758 568 route Knob0;
#X obj 1419 483 route Knob0;
#X obj 1683 483 route Knob1;
#X obj 1709 144 inlet;
#X obj 923 1777 outlet~;
#X obj 2831 844 bng 15 250 50 0 empty empty empty 17 7 0 10 -262144
-1 -1;
#X obj 1709 173 route smc8;
#X obj 988 1472 loadbang;
#X msg 988 1497 0.5;
#X obj 2169 640 loadbang;
#X floatatom 2290 727 5 0 0 0 - - -;
#X obj 2235 695 + 0.4999;
#X msg 2169 664 3;
#X floatatom 2175 758 5 0 0 0 - - -;
#X text 3269 550 LDR1;
#X obj 3241 567 route Toggle0;
#X obj 3241 594 tgl 15 0 empty empty empty 17 7 0 10 -262144 -1 -1
0 1;
#X obj 3241 619 s toggle0;
#X text 3385 550 LDR1;
#X obj 3357 594 tgl 15 0 empty empty empty 17 7 0 10 -262144 -1 -1
0 1;
#X text 3497 549 LDR1;
#X obj 3469 593 tgl 15 0 empty empty empty 17 7 0 10 -262144 -1 -1
0 1;
#X text 3602 549 LDR1;
#X obj 3574 593 tgl 15 0 empty empty empty 17 7 0 10 -262144 -1 -1
0 1;
#X obj 3357 619 s toggle1;
#X obj 3469 618 s toggle2;
#X obj 3574 618 s toggle3;
#X obj 3357 567 route Toggle1;
#X obj 3469 566 route Toggle2;
#X obj 3574 566 route Toggle3;
#X obj 3109 566 route Knob2;
#X obj 3033 664 bng 15 250 50 0 empty empty empty 17 7 0 10 -262144
-1 -1;
#X obj 3025 735 t b f;
#X obj 2995 735 f;
#X obj 3014 763 /;
#X obj 2970 812 *;
#X obj 2992 698 nbx 4 20 0 1023 0 1 empty empty empty 0 -8 0 10 -262144
-1 -1 2 256;
#X obj 3047 700 nbx 4 20 0 1023 0 1 empty empty empty 0 -8 0 10 -262144
-1 -1 1023 256;
#X floatatom 2970 904 5 0 0 0 - - -;
#X obj 2970 845 + 0.4999;
#X obj 2970 876 i;
#X obj 2970 568 route Knob1;
#X obj 2789 768 + 0.4999;
#X text 2993 549 DELAY;
#X obj 1683 677 + 0.4999;
#X obj 1419 671 + 0.4999;
#X obj 515 705 + 0.4999;
#X obj 618 705 + 0.4999;
#X obj 716 705 + 0.4999;
#X obj 818 705 + 0.4999;
#X obj 920 705 + 0.4999;
#X obj 1020 705 + 0.4999;
#X obj 1121 705 + 0.4999;
#X obj 1219 705 + 0.4999;
#X obj 468 842 bng 15 250 50 0 empty empty empty 17 7 0 10 -262144
-1 -1;
#X obj 590 842 bng 15 250 50 0 empty empty empty 17 7 0 10 -262144
-1 -1;
#X obj 694 842 bng 15 250 50 0 empty empty empty 17 7 0 10 -262144
-1 -1;
#X obj 794 842 bng 15 250 50 0 empty empty empty 17 7 0 10 -262144
-1 -1;
#X obj 902 842 bng 15 250 50 0 empty empty empty 17 7 0 10 -262144
-1 -1;
#X obj 1004 842 bng 15 250 50 0 empty empty empty 17 7 0 10 -262144
-1 -1;
#X obj 1099 842 bng 15 250 50 0 empty empty empty 17 7 0 10 -262144
-1 -1;
#X obj 1196 842 bng 15 250 50 0 empty empty empty 17 7 0 10 -262144
-1 -1;
#X obj 2235 479 route Knob3;
#X obj 2044 577 bng 15 250 50 0 empty empty empty 17 7 0 10 -262144
-1 -1;
#X obj 2036 648 t b f;
#X obj 2006 648 f;
#X obj 2025 676 /;
#X obj 1981 725 *;
#X obj 1981 754 f;
#X obj 2003 611 nbx 4 20 0 4000 0 1 empty empty empty 0 -8 0 10 -262144
-1 -1 3000 256;
#X obj 2058 613 nbx 4 20 0 1023 0 1 empty empty empty 0 -8 0 10 -262144
-1 -1 1023 256;
#X obj 1981 481 route Knob2;
#X obj 2562 576 bng 15 250 50 0 empty empty empty 17 7 0 10 -262144
-1 -1;
#X obj 2554 647 t b f;
#X obj 2524 647 f;
#X obj 2543 675 /;
#X obj 2499 724 *;
#X obj 2499 753 f;
#X obj 2521 610 nbx 4 20 0 1023 0 1 empty empty empty 0 -8 0 10 -262144
-1 -1 1 256;
#X obj 2576 612 nbx 4 20 0 1023 0 1 empty empty empty 0 -8 0 10 -262144
-1 -1 1023 256;
#X obj 2499 480 route Knob4;
#X text 2004 462 RELEASE;
#X text 2513 461 CROSSFADE;
#X obj 1981 790 s release;
#X obj 2499 792 s crossfade;
#X floatatom 1904 793 5 0 0 0 - - -;
#X floatatom 2453 789 5 0 0 0 - - -;
#X msg 2803 966 2;
#X obj 2803 943 loadbang;
#X obj 1709 204 route Melody1;
#X obj 744 289 route Sequencer1;
#X obj 3083 369 route SoundModifiers1;
#X obj 1709 282 route PerformanceModifiers1;
#X obj 1349 671 loadbang;
#X msg 1349 695 1;
#X connect 0 0 126 0;
#X connect 0 1 126 2;
#X connect 0 2 126 4;
#X connect 0 3 126 6;
#X connect 0 4 126 8;
#X connect 0 5 126 10;
#X connect 0 6 126 12;
#X connect 0 7 126 14;
#X connect 1 0 32 0;
#X connect 2 0 32 0;
#X connect 3 0 1 1;
#X connect 4 0 2 1;
#X connect 5 0 11 1;
#X connect 6 0 12 1;
#X connect 7 0 13 1;
#X connect 8 0 14 1;
#X connect 9 0 15 1;
#X connect 10 0 16 1;
#X connect 11 0 32 0;
#X connect 12 0 32 0;
#X connect 13 0 32 0;
#X connect 14 0 32 0;
#X connect 15 0 32 0;
#X connect 16 0 32 0;
#X connect 17 0 56 0;
#X connect 18 0 3 0;
#X connect 19 0 4 0;
#X connect 20 0 5 0;
#X connect 21 0 6 0;
#X connect 22 0 7 0;
#X connect 23 0 8 0;
#X connect 24 0 9 0;
#X connect 25 0 10 0;
#X connect 26 0 150 0;
#X connect 27 0 28 0;
#X connect 28 0 29 0;
#X connect 29 0 26 1;
#X connect 31 0 32 2;
#X connect 32 0 26 0;
#X connect 33 0 19 0;
#X connect 33 0 20 0;
#X connect 33 0 21 0;
#X connect 33 0 22 0;
#X connect 33 0 23 0;
#X connect 33 0 24 0;
#X connect 33 0 25 0;
#X connect 33 0 18 0;
#X connect 34 0 32 1;
#X connect 35 0 36 0;
#X connect 36 0 192 0;
#X connect 37 0 85 0;
#X connect 37 0 86 0;
#X connect 37 0 33 0;
#X connect 38 0 39 0;
#X connect 38 1 40 1;
#X connect 39 0 40 0;
#X connect 40 0 36 1;
#X connect 40 0 42 1;
#X connect 40 0 44 1;
#X connect 40 0 46 1;
#X connect 40 0 48 1;
#X connect 40 0 50 1;
#X connect 40 0 52 1;
#X connect 40 0 54 1;
#X connect 41 0 116 0;
#X connect 42 0 193 0;
#X connect 43 0 117 0;
#X connect 44 0 194 0;
#X connect 45 0 118 0;
#X connect 46 0 195 0;
#X connect 47 0 119 0;
#X connect 48 0 196 0;
#X connect 49 0 120 0;
#X connect 50 0 197 0;
#X connect 51 0 121 0;
#X connect 52 0 198 0;
#X connect 53 0 122 0;
#X connect 54 0 199 0;
#X connect 55 0 123 0;
#X connect 56 0 18 0;
#X connect 56 0 19 0;
#X connect 56 0 20 0;
#X connect 56 0 21 0;
#X connect 56 0 22 0;
#X connect 56 0 23 0;
#X connect 56 0 24 0;
#X connect 56 0 25 0;
#X connect 57 0 42 0;
#X connect 58 0 44 0;
#X connect 59 0 46 0;
#X connect 60 0 48 0;
#X connect 61 0 50 0;
#X connect 62 0 52 0;
#X connect 63 0 54 0;
#X connect 64 0 88 0;
#X connect 64 0 87 0;
#X connect 65 0 66 0;
#X connect 65 1 67 1;
#X connect 66 0 67 0;
#X connect 67 0 68 1;
#X connect 68 0 190 0;
#X connect 69 0 125 0;
#X connect 70 0 17 0;
#X connect 71 0 89 0;
#X connect 71 0 90 0;
#X connect 72 0 73 0;
#X connect 72 1 74 1;
#X connect 73 0 74 0;
#X connect 74 0 75 1;
#X connect 75 0 188 0;
#X connect 76 0 77 0;
#X connect 77 0 31 0;
#X connect 78 0 91 0;
#X connect 78 0 92 0;
#X connect 79 0 80 0;
#X connect 79 1 81 1;
#X connect 80 0 81 0;
#X connect 81 0 82 1;
#X connect 82 0 84 0;
#X connect 83 0 27 0;
#X connect 84 0 83 0;
#X connect 85 0 39 0;
#X connect 86 0 38 0;
#X connect 87 0 65 0;
#X connect 88 0 66 0;
#X connect 89 0 73 0;
#X connect 90 0 72 0;
#X connect 91 0 80 0;
#X connect 92 0 79 0;
#X connect 93 0 70 1;
#X connect 94 0 101 0;
#X connect 94 0 100 0;
#X connect 95 0 96 0;
#X connect 95 1 97 1;
#X connect 96 0 97 0;
#X connect 97 0 98 1;
#X connect 98 0 157 0;
#X connect 99 0 143 0;
#X connect 99 0 144 1;
#X connect 99 0 159 0;
#X connect 100 0 95 0;
#X connect 101 0 96 0;
#X connect 102 0 34 0;
#X connect 103 0 34 0;
#X connect 104 0 34 0;
#X connect 105 0 34 0;
#X connect 106 0 34 0;
#X connect 107 0 113 0;
#X connect 107 0 114 0;
#X connect 108 0 109 0;
#X connect 108 1 110 1;
#X connect 109 0 110 0;
#X connect 110 0 111 1;
#X connect 111 0 191 0;
#X connect 112 0 135 1;
#X connect 112 0 136 1;
#X connect 112 0 137 1;
#X connect 112 0 138 1;
#X connect 112 0 139 1;
#X connect 112 0 140 1;
#X connect 112 0 141 1;
#X connect 112 0 142 1;
#X connect 112 0 144 0;
#X connect 113 0 109 0;
#X connect 114 0 108 0;
#X connect 115 0 112 0;
#X connect 116 0 135 0;
#X connect 116 1 135 1;
#X connect 117 0 136 0;
#X connect 117 1 136 1;
#X connect 118 0 137 0;
#X connect 118 1 137 1;
#X connect 119 0 138 0;
#X connect 119 1 138 1;
#X connect 120 0 139 0;
#X connect 120 1 139 1;
#X connect 121 0 140 0;
#X connect 121 1 140 1;
#X connect 122 0 141 0;
#X connect 122 1 141 1;
#X connect 123 0 142 0;
#X connect 123 1 142 1;
#X connect 124 0 127 0;
#X connect 125 0 70 0;
#X connect 126 0 1 0;
#X connect 126 1 2 0;
#X connect 126 2 11 0;
#X connect 126 3 12 0;
#X connect 126 4 13 0;
#X connect 126 5 14 0;
#X connect 126 6 15 0;
#X connect 126 7 16 0;
#X connect 128 0 93 0;
#X connect 128 0 125 0;
#X connect 129 0 151 0;
#X connect 135 0 18 0;
#X connect 135 0 200 0;
#X connect 135 1 18 1;
#X connect 135 1 126 1;
#X connect 136 0 19 0;
#X connect 136 0 201 0;
#X connect 136 1 19 1;
#X connect 136 1 126 3;
#X connect 137 0 20 0;
#X connect 137 0 202 0;
#X connect 137 1 20 1;
#X connect 137 1 126 5;
#X connect 138 0 21 0;
#X connect 138 0 203 0;
#X connect 138 1 21 1;
#X connect 138 1 126 7;
#X connect 139 0 22 0;
#X connect 139 0 204 0;
#X connect 139 1 22 1;
#X connect 139 1 126 9;
#X connect 140 0 23 0;
#X connect 140 0 205 0;
#X connect 140 1 23 1;
#X connect 140 1 126 11;
#X connect 141 0 24 0;
#X connect 141 0 206 0;
#X connect 141 1 24 1;
#X connect 141 1 126 13;
#X connect 142 0 25 0;
#X connect 142 0 207 0;
#X connect 142 1 25 1;
#X connect 142 1 126 15;
#X connect 143 0 102 0;
#X connect 143 1 103 0;
#X connect 143 2 104 0;
#X connect 143 3 105 0;
#X connect 143 4 106 0;
#X connect 144 0 34 0;
#X connect 145 0 0 0;
#X connect 146 0 75 0;
#X connect 146 0 71 0;
#X connect 147 0 107 0;
#X connect 147 0 111 0;
#X connect 148 0 68 0;
#X connect 148 0 64 0;
#X connect 149 0 152 0;
#X connect 152 0 235 0;
#X connect 153 0 154 0;
#X connect 154 0 27 0;
#X connect 155 0 158 0;
#X connect 157 0 99 0;
#X connect 157 0 156 0;
#X connect 158 0 99 0;
#X connect 161 0 162 0;
#X connect 162 0 163 0;
#X connect 165 0 170 0;
#X connect 167 0 171 0;
#X connect 169 0 172 0;
#X connect 173 0 165 0;
#X connect 174 0 167 0;
#X connect 175 0 169 0;
#X connect 176 0 78 0;
#X connect 176 0 82 0;
#X connect 177 0 182 0;
#X connect 177 0 183 0;
#X connect 178 0 179 0;
#X connect 178 1 180 1;
#X connect 179 0 180 0;
#X connect 180 0 181 1;
#X connect 181 0 185 0;
#X connect 182 0 179 0;
#X connect 183 0 178 0;
#X connect 185 0 186 0;
#X connect 186 0 184 0;
#X connect 187 0 177 0;
#X connect 187 0 181 0;
#X connect 188 0 76 0;
#X connect 190 0 69 0;
#X connect 191 0 115 0;
#X connect 192 0 41 0;
#X connect 193 0 43 0;
#X connect 194 0 45 0;
#X connect 195 0 47 0;
#X connect 196 0 49 0;
#X connect 197 0 51 0;
#X connect 198 0 53 0;
#X connect 199 0 55 0;
#X connect 208 0 98 0;
#X connect 208 0 94 0;
#X connect 209 0 215 0;
#X connect 209 0 216 0;
#X connect 210 0 211 0;
#X connect 210 1 212 1;
#X connect 211 0 212 0;
#X connect 212 0 213 1;
#X connect 213 0 214 0;
#X connect 214 0 229 0;
#X connect 214 0 231 0;
#X connect 215 0 211 0;
#X connect 216 0 210 0;
#X connect 217 0 209 0;
#X connect 217 0 213 0;
#X connect 218 0 224 0;
#X connect 218 0 225 0;
#X connect 219 0 220 0;
#X connect 219 1 221 1;
#X connect 220 0 221 0;
#X connect 221 0 222 1;
#X connect 222 0 223 0;
#X connect 223 0 230 0;
#X connect 223 0 232 0;
#X connect 224 0 220 0;
#X connect 225 0 219 0;
#X connect 226 0 218 0;
#X connect 226 0 222 0;
#X connect 233 0 31 0;
#X connect 234 0 233 0;
#X connect 235 0 124 0;
#X connect 235 0 236 0;
#X connect 235 0 237 0;
#X connect 235 0 238 0;
#X connect 236 0 35 0;
#X connect 236 0 37 0;
#X connect 236 0 57 0;
#X connect 236 0 58 0;
#X connect 236 0 59 0;
#X connect 236 0 60 0;
#X connect 236 0 61 0;
#X connect 236 0 62 0;
#X connect 236 0 63 0;
#X connect 237 0 146 0;
#X connect 237 0 161 0;
#X connect 237 0 173 0;
#X connect 237 0 174 0;
#X connect 237 0 175 0;
#X connect 237 0 176 0;
#X connect 237 0 187 0;
#X connect 238 0 147 0;
#X connect 238 0 148 0;
#X connect 238 0 208 0;
#X connect 238 0 217 0;
#X connect 238 0 226 0;
#X connect 239 0 240 0;
#X connect 240 0 112 0;
