#N canvas 810 13 958 721 12;
#X obj -36 967 mod 8;
#X obj -36 1025 hradio 15 1 0 8 empty empty empty 0 -8 0 10 -262144
-1 -1 0;
#X obj -36 1051 select 0 1 2 3 4 5 6 7;
#X obj 752 1254 f;
#X obj 782 1254 f;
#X obj 770 1061 vsl 15 128 60 84 0 0 empty empty empty 0 -9 0 10 -4034
-1 -1 8996 1;
#X obj 800 1061 vsl 15 128 60 84 0 0 empty empty empty 0 -9 0 10 -4034
-1 -1 9525 1;
#X obj 830 1061 vsl 15 128 60 84 0 0 empty empty empty 0 -9 0 10 -4034
-1 -1 5821 1;
#X obj 861 1061 vsl 15 128 60 84 0 0 empty empty empty 0 -9 0 10 -4034
-1 -1 5821 1;
#X obj 892 1061 vsl 15 128 60 84 0 0 empty empty empty 0 -9 0 10 -4034
-1 -1 5821 1;
#X obj 922 1061 vsl 15 128 60 84 0 0 empty empty empty 0 -9 0 10 -4034
-1 -1 5821 1;
#X obj 952 1061 vsl 15 128 60 84 0 0 empty empty empty 0 -9 0 10 -4034
-1 -1 5821 1;
#X obj 982 1060 vsl 15 128 60 84 0 0 empty empty empty 0 -9 0 10 -4034
-1 -1 5821 1;
#X obj 812 1254 f;
#X obj 843 1254 f;
#X obj 874 1254 f;
#X obj 904 1254 f;
#X obj 934 1254 f;
#X obj 964 1254 f;
#X obj 1686 839 hsl 128 15 60 72 0 0 empty empty empty -2 -8 0 10 -262144
-1 -1 12700 1;
#X obj 515 948 +;
#X obj 618 950 +;
#X obj 716 951 +;
#X obj 818 952 +;
#X obj 920 953 +;
#X obj 1020 953 +;
#X obj 1121 954 +;
#X obj 1219 954 +;
#X obj 1708 117 oscparse;
#X obj 1708 146 list trim;
#X obj 1155 1476 *~;
#X obj 1445 1215 vsl 15 128 0 1 0 0 empty empty empty 0 -9 0 10 -258113
-1 -1 9522 1;
#X msg 1445 1364 \$1 100;
#X obj 1445 1401 line~;
#X text 1395 1213 Volume;
#X text -65 692 BPM;
#X obj -107 687 nbx 3 20 0 400 0 1 empty empty empty 0 -8 0 10 -262144
-1 -1 120 256;
#X obj 39 698 hsl 128 15 0 0.33 0 0 feel empty 16th-note-feel 20 8
0 10 -262144 -260097 -1 0 0;
#N canvas 526 170 191 127 time-signature 0;
#X obj 19 16 inlet;
#X obj 19 50 == 0;
#X obj 62 50 s signature12/16;
#X obj 19 77 s signature16/16;
#X connect 0 0 1 0;
#X connect 0 0 2 0;
#X connect 1 0 3 0;
#X restore 39 771 pd time-signature;
#X obj 39 728 vradio 15 1 1 2 empty empty empty 0 -8 0 10 -262144 -260097
-1 0;
#X text 58 728 4/4;
#X floatatom -107 779 5 0 0 0 - - -;
#X floatatom -50 779 5 0 0 0 - - -;
#X obj -107 808 s ticks;
#N canvas 472 450 176 55 sixteenths 0;
#X obj 20 24 r ticks;
#X obj 20 57 outlet;
#X connect 0 0 1 0;
#X restore 41 844 pd sixteenths;
#X obj 41 870 bng 15 50 50 0 empty empty empty 17 7 0 10 -262144 -1
-1;
#N canvas 472 450 140 141 eighths 0;
#X obj 20 24 r ticks;
#X obj 20 103 outlet;
#X obj 20 51 >> 1;
#X obj 20 77 change;
#X connect 0 0 2 0;
#X connect 2 0 3 0;
#X connect 3 0 1 0;
#X restore -36 844 pd eighths;
#X obj -36 870 bng 15 50 50 0 empty empty empty 17 7 0 10 -262144 -1
-1;
#N canvas 472 450 140 141 quarts 0;
#X obj 20 24 r ticks;
#X obj 20 103 outlet;
#X obj 20 77 change;
#X obj 20 51 >> 2;
#X connect 0 0 3 0;
#X connect 2 0 1 0;
#X connect 3 0 2 0;
#X restore -105 844 pd quarts;
#X obj -105 870 bng 15 50 50 0 empty empty empty 17 7 0 10 -262144
-1 -1;
#X text 58 743 12/16;
#N canvas 476 430 171 317 12/16 0;
#X obj 42 41 inlet;
#X obj 15 275 outlet;
#X obj 15 42 tgl 15 0 empty empty empty 17 7 0 10 -262144 -1 -1 0 1
;
#X obj 15 92 metro;
#X obj 15 197 +;
#X obj 15 172 f 1;
#N canvas 0 22 141 214 skipticks 0;
#X obj 26 47 inlet;
#X obj 26 161 outlet;
#X obj 26 79 & 3;
#X obj 26 106 sel 2;
#X msg 26 131 2;
#X msg 55 131 1;
#X connect 0 0 2 0;
#X connect 2 0 3 0;
#X connect 3 0 4 0;
#X connect 3 1 5 0;
#X connect 4 0 1 0;
#X connect 5 0 1 0;
#X restore 30 145 pd skipticks;
#X obj 15 223 & 255;
#N canvas 934 142 156 171 milliseconds 0;
#X obj 19 18 inlet;
#X obj 19 127 outlet;
#X obj 19 46 t b f;
#X obj 19 94 /;
#X text 18 150 1/12 note;
#X msg 19 70 20000;
#X connect 0 0 2 0;
#X connect 2 0 5 0;
#X connect 2 1 3 1;
#X connect 3 0 1 0;
#X connect 5 0 3 0;
#X restore 42 67 pd milliseconds;
#X text 80 41 BPM;
#X floatatom 42 116 5 0 0 0 - - -;
#X obj 15 11 r signature12/16;
#X floatatom 67 250 5 0 0 0 - - -;
#N canvas 197 486 215 265 feel 0;
#X obj 21 86 & 1;
#X obj 21 58 t f f;
#X obj 21 25 inlet;
#X obj 21 221 outlet;
#X obj 21 126 pack;
#X obj 21 152 route 0 1;
#X text 16 170 even;
#X text 56 170 odd;
#X obj 89 152 *;
#X obj 99 125 t b f;
#X floatatom 89 192 5 0 0 0 - - -;
#X obj 46 191 pipe;
#X text 127 192 milliseconds;
#X obj 89 26 inlet;
#X text 19 4 ticks;
#X text 87 5 feel;
#X obj 99 96 r ticklength12;
#X connect 0 0 4 0;
#X connect 1 0 0 0;
#X connect 1 1 4 1;
#X connect 2 0 1 0;
#X connect 4 0 5 0;
#X connect 5 0 3 0;
#X connect 5 1 11 0;
#X connect 8 0 10 0;
#X connect 8 0 11 1;
#X connect 9 0 8 0;
#X connect 9 1 8 1;
#X connect 11 0 3 0;
#X connect 13 0 8 0;
#X connect 16 0 9 0;
#X restore 15 249 pd feel;
#X obj 54 223 r feel;
#X obj 54 92 s ticklength12;
#X connect 0 0 8 0;
#X connect 2 0 3 0;
#X connect 3 0 5 0;
#X connect 4 0 7 0;
#X connect 5 0 4 0;
#X connect 6 0 5 1;
#X connect 7 0 4 1;
#X connect 7 0 6 0;
#X connect 7 0 13 0;
#X connect 8 0 3 1;
#X connect 8 0 10 0;
#X connect 8 0 15 0;
#X connect 11 0 2 0;
#X connect 13 0 1 0;
#X connect 14 0 13 1;
#X connect 14 0 12 0;
#X restore -50 749 pd 12/16;
#N canvas 653 431 199 282 16/16 0;
#X obj 46 45 inlet;
#X obj 19 251 outlet;
#X obj 19 143 f;
#X obj 19 168 + 1;
#X obj 19 46 tgl 15 0 empty empty empty 17 7 0 10 -262144 -1 -1 1 1
;
#X obj 19 118 metro;
#X floatatom 71 223 5 0 0 0 - - -;
#N canvas 813 182 215 265 feel 0;
#X obj 21 86 & 1;
#X obj 21 58 t f f;
#X obj 21 25 inlet;
#X obj 21 221 outlet;
#X obj 21 126 pack;
#X obj 21 152 route 0 1;
#X text 16 170 even;
#X text 56 170 odd;
#X obj 89 152 *;
#X obj 99 125 t b f;
#X floatatom 89 192 5 0 0 0 - - -;
#X obj 46 191 pipe;
#X text 127 192 milliseconds;
#X obj 89 26 inlet;
#X text 19 4 ticks;
#X text 87 5 feel;
#X obj 99 91 r ticklength16;
#X connect 0 0 4 0;
#X connect 1 0 0 0;
#X connect 1 1 4 1;
#X connect 2 0 1 0;
#X connect 4 0 5 0;
#X connect 5 0 3 0;
#X connect 5 1 11 0;
#X connect 8 0 10 0;
#X connect 8 0 11 1;
#X connect 9 0 8 0;
#X connect 9 1 8 1;
#X connect 11 0 3 0;
#X connect 13 0 8 0;
#X connect 16 0 9 0;
#X restore 19 222 pd feel;
#X obj 58 196 r feel;
#X obj 19 196 & 255;
#N canvas 934 142 164 180 milliseconds 0;
#X obj 19 18 inlet;
#X obj 19 123 outlet;
#X obj 19 46 t b f;
#X obj 19 94 /;
#X text 18 150 1/16 note;
#X msg 19 70 15000;
#X connect 0 0 2 0;
#X connect 2 0 5 0;
#X connect 2 1 3 1;
#X connect 3 0 1 0;
#X connect 5 0 3 0;
#X restore 46 69 pd milliseconds;
#X text 85 46 BPM;
#X obj 60 118 s ticklength16;
#X text 58 140 1/16 note tick length;
#X floatatom 63 93 5 0 0 0 - - -;
#X obj 19 16 r signature16/16;
#X connect 0 0 10 0;
#X connect 2 0 3 0;
#X connect 3 0 9 0;
#X connect 4 0 5 0;
#X connect 5 0 2 0;
#X connect 7 0 1 0;
#X connect 8 0 7 1;
#X connect 8 0 6 0;
#X connect 9 0 2 1;
#X connect 9 0 7 0;
#X connect 10 0 5 1;
#X connect 10 0 12 0;
#X connect 10 0 14 0;
#X connect 15 0 4 0;
#X restore -107 749 pd 16/16;
#X obj 242 1307 hradio 15 1 0 3 empty empty Waveform 50 8 0 10 -257985
-1 -1 1;
#X obj 1144 1510 dac~ 1 2;
#X obj 846 1364 synth one;
#X obj 403 876 bng 15 250 50 0 empty empty empty 17 7 0 10 -262144
-1 -1;
#X obj -36 937 float;
#X obj 38 935 + 1;
#X msg 1708 59 listen 10000;
#X obj 1708 88 netreceive -u -b 10000;
#X floatatom 2054 835 5 0 0 0 - - -;
#X msg 2107 33 connect 192.168.1.44 11000;
#X obj 2107 178 netsend -u -b;
#X obj 2182 143 list trim;
#X obj 2182 116 list prepend send;
#X obj 2182 68 bng 15 250 50 0 empty empty empty 17 7 0 10 -262144
-1 -1;
#X obj 1708 175 route smc8;
#X obj 1708 204 route Melody1;
#X obj 744 289 route Sequencer1;
#X obj 515 483 route Slider0;
#X obj 515 698 *;
#X obj 403 515 bng 15 250 50 0 empty empty empty 17 7 0 10 -262144
-1 -1;
#X obj 457 583 t b f;
#X obj 427 583 f;
#X obj 446 611 /;
#X obj 515 727 i;
#X obj 618 700 *;
#X obj 618 729 i;
#X obj 716 698 *;
#X obj 716 727 i;
#X obj 818 697 *;
#X obj 818 726 i;
#X obj 920 694 *;
#X obj 920 723 i;
#X obj 1020 694 *;
#X obj 1020 723 i;
#X obj 1121 692 *;
#X obj 1121 721 i;
#X obj 1219 690 *;
#X obj 1219 719 i;
#X floatatom 1683 878 5 0 0 0 - - -;
#X obj 618 483 route Slider1;
#X obj 716 483 route Slider2;
#X obj 818 483 route Slider3;
#X obj 920 483 route Slider4;
#X obj 1020 483 route Slider5;
#X obj 1121 483 route Slider6;
#X obj 1219 483 route Slider7;
#X obj 1731 518 bng 15 250 50 0 empty empty empty 17 7 0 10 -262144
-1 -1;
#X obj 1764 588 t b f;
#X obj 1734 588 f;
#X obj 1753 616 /;
#X obj 1683 653 *;
#X obj 1683 682 i;
#X obj 1683 769 +;
#X obj 271 517 bng 15 250 50 0 empty empty empty 17 7 0 10 -262144
-1 -1;
#X obj 277 582 t b f;
#X obj 247 582 f;
#X obj 266 610 /;
#X obj 242 657 *;
#X obj 242 686 i;
#X obj 211 483 route Knob1;
#X floatatom 242 723 5 0 0 0 - - -;
#X obj 1683 282 route Mixed1;
#X obj 2382 353 route LDR1;
#X obj 2445 531 bng 15 250 50 0 empty empty empty 17 7 0 10 -262144
-1 -1;
#X obj 2437 602 t b f;
#X obj 2407 602 f;
#X obj 2426 630 /;
#X obj 2382 679 *;
#X floatatom 2384 1108 5 0 0 0 - - -;
#X obj 2382 708 f;
#X obj 416 548 nbx 3 20 0 400 0 1 empty empty empty 0 -8 0 10 -262144
-1 -1 13 256;
#X obj 465 549 nbx 4 20 0 1023 0 1 empty empty empty 0 -8 0 10 -262144
-1 -1 1023 256;
#X obj 1762 552 nbx 4 20 0 1023 0 1 empty empty empty 0 -8 0 10 -262144
-1 -1 1023 256;
#X obj 1708 550 nbx 4 20 0 1023 0 1 empty empty empty 0 -8 0 10 -262144
-1 -1 12 256;
#X obj 241 549 nbx 4 20 0 1023 0 1 empty empty empty 0 -8 0 10 -262144
-1 -1 2 256;
#X obj 300 549 nbx 4 20 0 1023 0 1 empty empty empty 0 -8 0 10 -262144
-1 -1 1023 256;
#X obj 2404 565 nbx 4 20 0 1023 0 1 empty empty empty 0 -8 0 10 -262144
-1 -1 1 256;
#X obj 2459 567 nbx 4 20 0 1023 0 1 empty empty empty 0 -8 0 10 -262144
-1 -1 1023 256;
#X obj 1722 682 nbx 4 20 0 1023 0 1 empty empty empty 0 -8 0 10 -262144
-1 -1 60 256;
#X obj 2090 529 bng 15 250 50 0 empty empty empty 17 7 0 10 -262144
-1 -1;
#X obj 2123 599 t b f;
#X obj 2093 599 f;
#X obj 2112 627 /;
#X obj 2042 670 *;
#X obj 2042 699 i;
#X obj 2121 563 nbx 4 20 0 1023 0 1 empty empty empty 0 -8 0 10 -262144
-1 -1 1023 256;
#X obj 2067 560 nbx 4 20 0 1023 0 1 empty empty empty 0 -8 0 10 -262144
-1 -1 6 256;
#X obj 2042 738 route 0 1 2 3 4 5 6;
#X msg 1931 786 -12;
#X msg 1970 785 -7;
#X msg 2011 785 -3;
#X msg 2046 785 0;
#X msg 2084 785 3;
#X msg 2120 786 7;
#X msg 2157 786 12;
#X obj 1446 511 bng 15 250 50 0 empty empty empty 17 7 0 10 -262144
-1 -1;
#X obj 1482 584 t b f;
#X obj 1452 584 f;
#X obj 1471 612 /;
#X obj 1419 643 *;
#X floatatom 1419 710 5 0 0 0 - - -;
#X obj 1446 549 nbx 4 20 0 1023 0 1 empty empty empty 0 -8 0 10 -262144
-1 -1 3 256;
#X obj 1504 549 nbx 4 20 0 1023 0 1 empty empty empty 0 -8 0 10 -262144
-1 -1 1023 256;
#X obj 1419 673 i;
#X msg 2022 110 disconnect;
#N canvas 1092 206 490 402 mode 0;
#X obj 278 78 hradio 15 1 0 4 empty empty empty 0 -8 0 10 -262144 -1
-1 0;
#X obj 169 131 nbx 5 14 -1e+037 1e+037 0 0 empty empty empty 0 -8 0
10 -262144 -1 -1 4 256;
#X obj 169 186 list prepend $f1;
#X obj 169 210 route 0 1 2 3;
#X obj 98 251 mayor;
#X obj 151 251 minor;
#X obj 106 273 bng 15 250 50 0 empty empty empty 17 7 0 10 -262144
-1 -1;
#X obj 159 273 bng 15 250 50 0 empty empty empty 17 7 0 10 -262144
-1 -1;
#X floatatom 98 294 5 0 0 0 - - -;
#X floatatom 151 294 5 0 0 0 - - -;
#X obj 169 40 inlet;
#X obj 278 42 inlet;
#X obj 244 105 bng 15 250 50 0 empty empty empty 17 7 0 10 -262144
-1 -1;
#X obj 209 273 bng 15 250 50 0 empty empty empty 17 7 0 10 -262144
-1 -1;
#X floatatom 201 294 5 0 0 0 - - -;
#X obj 201 251 pentatonic;
#X obj 295 273 bng 15 250 50 0 empty empty empty 17 7 0 10 -262144
-1 -1;
#X floatatom 285 293 5 -1 0 0 - - -;
#X obj 285 250 chromatic;
#X obj 172 384 outlet;
#X obj 232 382 outlet;
#X obj 195 345 t b f;
#X connect 0 0 2 1;
#X connect 0 0 12 0;
#X connect 1 0 2 0;
#X connect 2 0 3 0;
#X connect 3 0 4 0;
#X connect 3 1 5 0;
#X connect 3 2 15 0;
#X connect 3 3 18 0;
#X connect 4 0 6 0;
#X connect 4 0 8 0;
#X connect 5 0 7 0;
#X connect 5 0 9 0;
#X connect 8 0 21 0;
#X connect 9 0 21 0;
#X connect 10 0 1 0;
#X connect 11 0 0 0;
#X connect 12 0 1 0;
#X connect 14 0 21 0;
#X connect 15 0 13 0;
#X connect 15 0 14 0;
#X connect 17 0 21 0;
#X connect 18 0 16 0;
#X connect 18 0 17 0;
#X connect 21 0 19 0;
#X connect 21 1 20 0;
#X restore 515 820 pd mode;
#X obj 1419 483 route Knob3;
#X obj 2042 483 route Knob5;
#N canvas 1424 437 490 402 mode 0;
#X obj 278 78 hradio 15 1 0 4 empty empty empty 0 -8 0 10 -262144 -1
-1 0;
#X obj 169 131 nbx 5 14 -1e+037 1e+037 0 0 empty empty empty 0 -8 0
10 -262144 -1 -1 6 256;
#X obj 169 186 list prepend $f1;
#X obj 169 210 route 0 1 2 3;
#X obj 98 251 mayor;
#X obj 151 251 minor;
#X obj 106 273 bng 15 250 50 0 empty empty empty 17 7 0 10 -262144
-1 -1;
#X obj 159 273 bng 15 250 50 0 empty empty empty 17 7 0 10 -262144
-1 -1;
#X floatatom 98 294 5 0 0 0 - - -;
#X floatatom 151 294 5 0 0 0 - - -;
#X obj 169 40 inlet;
#X obj 278 42 inlet;
#X obj 209 273 bng 15 250 50 0 empty empty empty 17 7 0 10 -262144
-1 -1;
#X floatatom 201 294 5 0 0 0 - - -;
#X obj 201 251 pentatonic;
#X obj 295 273 bng 15 250 50 0 empty empty empty 17 7 0 10 -262144
-1 -1;
#X floatatom 285 293 5 -1 0 0 - - -;
#X obj 285 250 chromatic;
#X obj 172 384 outlet;
#X obj 232 382 outlet;
#X obj 195 345 t b f;
#X connect 0 0 2 1;
#X connect 1 0 2 0;
#X connect 2 0 3 0;
#X connect 3 0 4 0;
#X connect 3 1 5 0;
#X connect 3 2 14 0;
#X connect 3 3 17 0;
#X connect 4 0 6 0;
#X connect 4 0 8 0;
#X connect 5 0 7 0;
#X connect 5 0 9 0;
#X connect 8 0 20 0;
#X connect 9 0 20 0;
#X connect 10 0 1 0;
#X connect 11 0 0 0;
#X connect 13 0 20 0;
#X connect 14 0 12 0;
#X connect 14 0 13 0;
#X connect 16 0 20 0;
#X connect 17 0 15 0;
#X connect 17 0 16 0;
#X connect 20 0 18 0;
#X connect 20 1 19 0;
#X restore 618 820 pd mode;
#N canvas 460 73 490 402 mode 0;
#X obj 278 78 hradio 15 1 0 4 empty empty empty 0 -8 0 10 -262144 -1
-1 0;
#X obj 169 131 nbx 5 14 -1e+037 1e+037 0 0 empty empty empty 0 -8 0
10 -262144 -1 -1 0 256;
#X obj 169 186 list prepend $f1;
#X obj 169 210 route 0 1 2 3;
#X obj 98 251 mayor;
#X obj 151 251 minor;
#X obj 106 273 bng 15 250 50 0 empty empty empty 17 7 0 10 -262144
-1 -1;
#X obj 159 273 bng 15 250 50 0 empty empty empty 17 7 0 10 -262144
-1 -1;
#X floatatom 98 294 5 0 0 0 - - -;
#X floatatom 151 294 5 0 0 0 - - -;
#X obj 169 40 inlet;
#X obj 278 42 inlet;
#X obj 244 105 bng 15 250 50 0 empty empty empty 17 7 0 10 -262144
-1 -1;
#X obj 209 273 bng 15 250 50 0 empty empty empty 17 7 0 10 -262144
-1 -1;
#X floatatom 201 294 5 0 0 0 - - -;
#X obj 201 251 pentatonic;
#X obj 295 273 bng 15 250 50 0 empty empty empty 17 7 0 10 -262144
-1 -1;
#X floatatom 285 293 5 -1 0 0 - - -;
#X obj 285 250 chromatic;
#X obj 172 384 outlet;
#X obj 232 382 outlet;
#X obj 195 345 t b f;
#X connect 0 0 2 1;
#X connect 0 0 12 0;
#X connect 1 0 2 0;
#X connect 2 0 3 0;
#X connect 3 0 4 0;
#X connect 3 1 5 0;
#X connect 3 2 15 0;
#X connect 3 3 18 0;
#X connect 4 0 6 0;
#X connect 4 0 8 0;
#X connect 5 0 7 0;
#X connect 5 0 9 0;
#X connect 8 0 21 0;
#X connect 9 0 21 0;
#X connect 10 0 1 0;
#X connect 11 0 0 0;
#X connect 12 0 1 0;
#X connect 14 0 21 0;
#X connect 15 0 13 0;
#X connect 15 0 14 0;
#X connect 17 0 21 0;
#X connect 18 0 16 0;
#X connect 18 0 17 0;
#X connect 21 0 19 0;
#X connect 21 1 20 0;
#X restore 1020 820 pd mode;
#N canvas 460 73 490 402 mode 0;
#X obj 278 78 hradio 15 1 0 4 empty empty empty 0 -8 0 10 -262144 -1
-1 0;
#X obj 169 131 nbx 5 14 -1e+037 1e+037 0 0 empty empty empty 0 -8 0
10 -262144 -1 -1 0 256;
#X obj 169 186 list prepend $f1;
#X obj 169 210 route 0 1 2 3;
#X obj 98 251 mayor;
#X obj 151 251 minor;
#X obj 106 273 bng 15 250 50 0 empty empty empty 17 7 0 10 -262144
-1 -1;
#X obj 159 273 bng 15 250 50 0 empty empty empty 17 7 0 10 -262144
-1 -1;
#X floatatom 98 294 5 0 0 0 - - -;
#X floatatom 151 294 5 0 0 0 - - -;
#X obj 169 40 inlet;
#X obj 278 42 inlet;
#X obj 244 105 bng 15 250 50 0 empty empty empty 17 7 0 10 -262144
-1 -1;
#X obj 209 273 bng 15 250 50 0 empty empty empty 17 7 0 10 -262144
-1 -1;
#X floatatom 201 294 5 0 0 0 - - -;
#X obj 201 251 pentatonic;
#X obj 295 273 bng 15 250 50 0 empty empty empty 17 7 0 10 -262144
-1 -1;
#X floatatom 285 293 5 -1 0 0 - - -;
#X obj 285 250 chromatic;
#X obj 172 384 outlet;
#X obj 232 382 outlet;
#X obj 195 345 t b f;
#X connect 0 0 2 1;
#X connect 0 0 12 0;
#X connect 1 0 2 0;
#X connect 2 0 3 0;
#X connect 3 0 4 0;
#X connect 3 1 5 0;
#X connect 3 2 15 0;
#X connect 3 3 18 0;
#X connect 4 0 6 0;
#X connect 4 0 8 0;
#X connect 5 0 7 0;
#X connect 5 0 9 0;
#X connect 8 0 21 0;
#X connect 9 0 21 0;
#X connect 10 0 1 0;
#X connect 11 0 0 0;
#X connect 12 0 1 0;
#X connect 14 0 21 0;
#X connect 15 0 13 0;
#X connect 15 0 14 0;
#X connect 17 0 21 0;
#X connect 18 0 16 0;
#X connect 18 0 17 0;
#X connect 21 0 19 0;
#X connect 21 1 20 0;
#X restore 1121 820 pd mode;
#N canvas 460 73 490 402 mode 0;
#X obj 278 78 hradio 15 1 0 4 empty empty empty 0 -8 0 10 -262144 -1
-1 0;
#X obj 169 131 nbx 5 14 -1e+037 1e+037 0 0 empty empty empty 0 -8 0
10 -262144 -1 -1 0 256;
#X obj 169 186 list prepend $f1;
#X obj 169 210 route 0 1 2 3;
#X obj 98 251 mayor;
#X obj 151 251 minor;
#X obj 106 273 bng 15 250 50 0 empty empty empty 17 7 0 10 -262144
-1 -1;
#X obj 159 273 bng 15 250 50 0 empty empty empty 17 7 0 10 -262144
-1 -1;
#X floatatom 98 294 5 0 0 0 - - -;
#X floatatom 151 294 5 0 0 0 - - -;
#X obj 169 40 inlet;
#X obj 278 42 inlet;
#X obj 244 105 bng 15 250 50 0 empty empty empty 17 7 0 10 -262144
-1 -1;
#X obj 209 273 bng 15 250 50 0 empty empty empty 17 7 0 10 -262144
-1 -1;
#X floatatom 201 294 5 0 0 0 - - -;
#X obj 201 251 pentatonic;
#X obj 295 273 bng 15 250 50 0 empty empty empty 17 7 0 10 -262144
-1 -1;
#X floatatom 285 293 5 -1 0 0 - - -;
#X obj 285 250 chromatic;
#X obj 172 384 outlet;
#X obj 232 382 outlet;
#X obj 195 345 t b f;
#X connect 0 0 2 1;
#X connect 0 0 12 0;
#X connect 1 0 2 0;
#X connect 2 0 3 0;
#X connect 3 0 4 0;
#X connect 3 1 5 0;
#X connect 3 2 15 0;
#X connect 3 3 18 0;
#X connect 4 0 6 0;
#X connect 4 0 8 0;
#X connect 5 0 7 0;
#X connect 5 0 9 0;
#X connect 8 0 21 0;
#X connect 9 0 21 0;
#X connect 10 0 1 0;
#X connect 11 0 0 0;
#X connect 12 0 1 0;
#X connect 14 0 21 0;
#X connect 15 0 13 0;
#X connect 15 0 14 0;
#X connect 17 0 21 0;
#X connect 18 0 16 0;
#X connect 18 0 17 0;
#X connect 21 0 19 0;
#X connect 21 1 20 0;
#X restore 1219 820 pd mode;
#N canvas 460 73 490 402 mode 0;
#X obj 278 78 hradio 15 1 0 4 empty empty empty 0 -8 0 10 -262144 -1
-1 0;
#X obj 169 131 nbx 5 14 -1e+037 1e+037 0 0 empty empty empty 0 -8 0
10 -262144 -1 -1 0 256;
#X obj 169 186 list prepend $f1;
#X obj 169 210 route 0 1 2 3;
#X obj 98 251 mayor;
#X obj 151 251 minor;
#X obj 106 273 bng 15 250 50 0 empty empty empty 17 7 0 10 -262144
-1 -1;
#X obj 159 273 bng 15 250 50 0 empty empty empty 17 7 0 10 -262144
-1 -1;
#X floatatom 98 294 5 0 0 0 - - -;
#X floatatom 151 294 5 0 0 0 - - -;
#X obj 169 40 inlet;
#X obj 278 42 inlet;
#X obj 244 105 bng 15 250 50 0 empty empty empty 17 7 0 10 -262144
-1 -1;
#X obj 209 273 bng 15 250 50 0 empty empty empty 17 7 0 10 -262144
-1 -1;
#X floatatom 201 294 5 0 0 0 - - -;
#X obj 201 251 pentatonic;
#X obj 295 273 bng 15 250 50 0 empty empty empty 17 7 0 10 -262144
-1 -1;
#X floatatom 285 293 5 -1 0 0 - - -;
#X obj 285 250 chromatic;
#X obj 172 384 outlet;
#X obj 232 382 outlet;
#X obj 195 345 t b f;
#X connect 0 0 2 1;
#X connect 0 0 12 0;
#X connect 1 0 2 0;
#X connect 2 0 3 0;
#X connect 3 0 4 0;
#X connect 3 1 5 0;
#X connect 3 2 15 0;
#X connect 3 3 18 0;
#X connect 4 0 6 0;
#X connect 4 0 8 0;
#X connect 5 0 7 0;
#X connect 5 0 9 0;
#X connect 8 0 21 0;
#X connect 9 0 21 0;
#X connect 10 0 1 0;
#X connect 11 0 0 0;
#X connect 12 0 1 0;
#X connect 14 0 21 0;
#X connect 15 0 13 0;
#X connect 15 0 14 0;
#X connect 17 0 21 0;
#X connect 18 0 16 0;
#X connect 18 0 17 0;
#X connect 21 0 19 0;
#X connect 21 1 20 0;
#X restore 920 820 pd mode;
#N canvas 460 73 490 402 mode 0;
#X obj 278 78 hradio 15 1 0 4 empty empty empty 0 -8 0 10 -262144 -1
-1 0;
#X obj 169 131 nbx 5 14 -1e+037 1e+037 0 0 empty empty empty 0 -8 0
10 -262144 -1 -1 0 256;
#X obj 169 186 list prepend $f1;
#X obj 169 210 route 0 1 2 3;
#X obj 98 251 mayor;
#X obj 151 251 minor;
#X obj 106 273 bng 15 250 50 0 empty empty empty 17 7 0 10 -262144
-1 -1;
#X obj 159 273 bng 15 250 50 0 empty empty empty 17 7 0 10 -262144
-1 -1;
#X floatatom 98 294 5 0 0 0 - - -;
#X floatatom 151 294 5 0 0 0 - - -;
#X obj 169 40 inlet;
#X obj 278 42 inlet;
#X obj 244 105 bng 15 250 50 0 empty empty empty 17 7 0 10 -262144
-1 -1;
#X obj 209 273 bng 15 250 50 0 empty empty empty 17 7 0 10 -262144
-1 -1;
#X floatatom 201 294 5 0 0 0 - - -;
#X obj 201 251 pentatonic;
#X obj 295 273 bng 15 250 50 0 empty empty empty 17 7 0 10 -262144
-1 -1;
#X floatatom 285 293 5 -1 0 0 - - -;
#X obj 285 250 chromatic;
#X obj 172 384 outlet;
#X obj 232 382 outlet;
#X obj 195 345 t b f;
#X connect 0 0 2 1;
#X connect 0 0 12 0;
#X connect 1 0 2 0;
#X connect 2 0 3 0;
#X connect 3 0 4 0;
#X connect 3 1 5 0;
#X connect 3 2 15 0;
#X connect 3 3 18 0;
#X connect 4 0 6 0;
#X connect 4 0 8 0;
#X connect 5 0 7 0;
#X connect 5 0 9 0;
#X connect 8 0 21 0;
#X connect 9 0 21 0;
#X connect 10 0 1 0;
#X connect 11 0 0 0;
#X connect 12 0 1 0;
#X connect 14 0 21 0;
#X connect 15 0 13 0;
#X connect 15 0 14 0;
#X connect 17 0 21 0;
#X connect 18 0 16 0;
#X connect 18 0 17 0;
#X connect 21 0 19 0;
#X connect 21 1 20 0;
#X restore 818 820 pd mode;
#N canvas 460 73 490 402 mode 0;
#X obj 278 78 hradio 15 1 0 4 empty empty empty 0 -8 0 10 -262144 -1
-1 0;
#X obj 169 131 nbx 5 14 -1e+037 1e+037 0 0 empty empty empty 0 -8 0
10 -262144 -1 -1 0 256;
#X obj 169 186 list prepend $f1;
#X obj 169 210 route 0 1 2 3;
#X obj 98 251 mayor;
#X obj 151 251 minor;
#X obj 106 273 bng 15 250 50 0 empty empty empty 17 7 0 10 -262144
-1 -1;
#X obj 159 273 bng 15 250 50 0 empty empty empty 17 7 0 10 -262144
-1 -1;
#X floatatom 98 294 5 0 0 0 - - -;
#X floatatom 151 294 5 0 0 0 - - -;
#X obj 169 40 inlet;
#X obj 278 42 inlet;
#X obj 244 105 bng 15 250 50 0 empty empty empty 17 7 0 10 -262144
-1 -1;
#X obj 209 273 bng 15 250 50 0 empty empty empty 17 7 0 10 -262144
-1 -1;
#X floatatom 201 294 5 0 0 0 - - -;
#X obj 201 251 pentatonic;
#X obj 295 273 bng 15 250 50 0 empty empty empty 17 7 0 10 -262144
-1 -1;
#X floatatom 285 293 5 -1 0 0 - - -;
#X obj 285 250 chromatic;
#X obj 172 384 outlet;
#X obj 232 382 outlet;
#X obj 195 345 t b f;
#X connect 0 0 2 1;
#X connect 0 0 12 0;
#X connect 1 0 2 0;
#X connect 2 0 3 0;
#X connect 3 0 4 0;
#X connect 3 1 5 0;
#X connect 3 2 15 0;
#X connect 3 3 18 0;
#X connect 4 0 6 0;
#X connect 4 0 8 0;
#X connect 5 0 7 0;
#X connect 5 0 9 0;
#X connect 8 0 21 0;
#X connect 9 0 21 0;
#X connect 10 0 1 0;
#X connect 11 0 0 0;
#X connect 12 0 1 0;
#X connect 14 0 21 0;
#X connect 15 0 13 0;
#X connect 15 0 14 0;
#X connect 17 0 21 0;
#X connect 18 0 16 0;
#X connect 18 0 17 0;
#X connect 21 0 19 0;
#X connect 21 1 20 0;
#X restore 716 820 pd mode;
#X obj 1683 483 route Knob4;
#X obj 2382 483 route Knob2;
#N canvas 909 50 793 596 silenceeeeeeeeeeeeeeeeeeeeeee 0;
#X floatatom 142 55 5 -1 0 0 - - -;
#X obj 142 78 >= 0;
#X floatatom 142 102 5 0 0 0 - - -;
#X obj 59 181 bng 15 250 50 0 empty empty empty 17 7 0 10 -262144 -1
-1;
#X obj 59 144 spigot 0;
#X obj 34 61 bng 15 250 50 0 empty empty empty 17 7 0 10 -262144 -1
-1;
#X obj 34 33 inlet;
#X obj 142 31 inlet;
#X obj 59 214 outlet;
#X floatatom 302 56 5 -1 0 0 - - -;
#X obj 302 79 >= 0;
#X floatatom 302 103 5 0 0 0 - - -;
#X obj 219 182 bng 15 250 50 0 empty empty empty 17 7 0 10 -262144
-1 -1;
#X obj 219 145 spigot 0;
#X obj 194 62 bng 15 250 50 0 empty empty empty 17 7 0 10 -262144 -1
-1;
#X obj 194 34 inlet;
#X obj 302 32 inlet;
#X obj 219 215 outlet;
#X floatatom 474 54 5 -1 0 0 - - -;
#X obj 474 77 >= 0;
#X floatatom 474 101 5 0 0 0 - - -;
#X obj 391 180 bng 15 250 50 0 empty empty empty 17 7 0 10 -262144
-1 -1;
#X obj 391 143 spigot 0;
#X obj 366 60 bng 15 250 50 0 empty empty empty 17 7 0 10 -262144 -1
-1;
#X obj 366 32 inlet;
#X obj 474 30 inlet;
#X obj 391 213 outlet;
#X floatatom 634 52 5 -1 0 0 - - -;
#X obj 634 75 >= 0;
#X floatatom 634 99 5 0 0 0 - - -;
#X obj 551 178 bng 15 250 50 0 empty empty empty 17 7 0 10 -262144
-1 -1;
#X obj 551 141 spigot 0;
#X obj 526 58 bng 15 250 50 0 empty empty empty 17 7 0 10 -262144 -1
-1;
#X obj 526 30 inlet;
#X obj 634 28 inlet;
#X obj 551 211 outlet;
#X floatatom 792 51 5 -1 0 0 - - -;
#X obj 792 74 >= 0;
#X floatatom 792 98 5 0 0 0 - - -;
#X obj 709 177 bng 15 250 50 0 empty empty empty 17 7 0 10 -262144
-1 -1;
#X obj 709 140 spigot 0;
#X obj 684 57 bng 15 250 50 0 empty empty empty 17 7 0 10 -262144 -1
-1;
#X obj 684 29 inlet;
#X obj 792 27 inlet;
#X obj 709 210 outlet;
#X floatatom 953 51 5 -1 0 0 - - -;
#X obj 953 74 >= 0;
#X floatatom 953 98 5 0 0 0 - - -;
#X obj 870 177 bng 15 250 50 0 empty empty empty 17 7 0 10 -262144
-1 -1;
#X obj 870 140 spigot 0;
#X obj 845 57 bng 15 250 50 0 empty empty empty 17 7 0 10 -262144 -1
-1;
#X obj 845 29 inlet;
#X obj 953 27 inlet;
#X obj 870 210 outlet;
#X floatatom 1113 50 5 -1 0 0 - - -;
#X obj 1113 73 >= 0;
#X floatatom 1113 97 5 0 0 0 - - -;
#X obj 1030 176 bng 15 250 50 0 empty empty empty 17 7 0 10 -262144
-1 -1;
#X obj 1030 139 spigot 0;
#X obj 1005 56 bng 15 250 50 0 empty empty empty 17 7 0 10 -262144
-1 -1;
#X obj 1005 28 inlet;
#X obj 1113 26 inlet;
#X obj 1030 209 outlet;
#X floatatom 1276 48 5 -1 0 0 - - -;
#X obj 1276 71 >= 0;
#X floatatom 1276 95 5 0 0 0 - - -;
#X obj 1193 174 bng 15 250 50 0 empty empty empty 17 7 0 10 -262144
-1 -1;
#X obj 1193 137 spigot 0;
#X obj 1168 54 bng 15 250 50 0 empty empty empty 17 7 0 10 -262144
-1 -1;
#X obj 1168 26 inlet;
#X obj 1276 24 inlet;
#X obj 1193 207 outlet;
#X connect 0 0 1 0;
#X connect 1 0 2 0;
#X connect 2 0 4 1;
#X connect 3 0 8 0;
#X connect 4 0 3 0;
#X connect 5 0 4 0;
#X connect 6 0 5 0;
#X connect 7 0 0 0;
#X connect 9 0 10 0;
#X connect 10 0 11 0;
#X connect 11 0 13 1;
#X connect 12 0 17 0;
#X connect 13 0 12 0;
#X connect 14 0 13 0;
#X connect 15 0 14 0;
#X connect 16 0 9 0;
#X connect 18 0 19 0;
#X connect 19 0 20 0;
#X connect 20 0 22 1;
#X connect 21 0 26 0;
#X connect 22 0 21 0;
#X connect 23 0 22 0;
#X connect 24 0 23 0;
#X connect 25 0 18 0;
#X connect 27 0 28 0;
#X connect 28 0 29 0;
#X connect 29 0 31 1;
#X connect 30 0 35 0;
#X connect 31 0 30 0;
#X connect 32 0 31 0;
#X connect 33 0 32 0;
#X connect 34 0 27 0;
#X connect 36 0 37 0;
#X connect 37 0 38 0;
#X connect 38 0 40 1;
#X connect 39 0 44 0;
#X connect 40 0 39 0;
#X connect 41 0 40 0;
#X connect 42 0 41 0;
#X connect 43 0 36 0;
#X connect 45 0 46 0;
#X connect 46 0 47 0;
#X connect 47 0 49 1;
#X connect 48 0 53 0;
#X connect 49 0 48 0;
#X connect 50 0 49 0;
#X connect 51 0 50 0;
#X connect 52 0 45 0;
#X connect 54 0 55 0;
#X connect 55 0 56 0;
#X connect 56 0 58 1;
#X connect 57 0 62 0;
#X connect 58 0 57 0;
#X connect 59 0 58 0;
#X connect 60 0 59 0;
#X connect 61 0 54 0;
#X connect 63 0 64 0;
#X connect 64 0 65 0;
#X connect 65 0 67 1;
#X connect 66 0 71 0;
#X connect 67 0 66 0;
#X connect 68 0 67 0;
#X connect 69 0 68 0;
#X connect 70 0 63 0;
#X restore -71 1175 pd silenceeeeeeeeeeeeeeeeeeeeeee;
#X obj 2182 90 oscformat /smc8/connect;
#X obj 515 770 t f b;
#X obj 618 770 t f b;
#X obj 716 770 t f b;
#X obj 818 770 t f b;
#X obj 920 770 t f b;
#X obj 1020 770 t f b;
#X obj 1121 770 t f b;
#X obj 1219 770 t f b;
#X obj 1574 274 bng 15 250 50 0 empty empty empty 17 7 0 10 -262144
-1 -1;
#X obj 1683 729 nbx 4 20 0 1023 0 1 empty empty empty 0 -8 0 10 -262144
-1 -1 12 256;
#X connect 0 0 1 0;
#X connect 1 0 2 0;
#X connect 2 0 170 0;
#X connect 2 1 170 2;
#X connect 2 2 170 4;
#X connect 2 3 170 6;
#X connect 2 4 170 8;
#X connect 2 5 170 10;
#X connect 2 6 170 12;
#X connect 2 7 170 14;
#X connect 3 0 55 1;
#X connect 4 0 55 1;
#X connect 5 0 3 1;
#X connect 6 0 4 1;
#X connect 7 0 13 1;
#X connect 8 0 14 1;
#X connect 9 0 15 1;
#X connect 10 0 16 1;
#X connect 11 0 17 1;
#X connect 12 0 18 1;
#X connect 13 0 55 1;
#X connect 14 0 55 1;
#X connect 15 0 55 1;
#X connect 16 0 55 1;
#X connect 17 0 55 1;
#X connect 18 0 55 1;
#X connect 19 0 91 0;
#X connect 20 0 5 0;
#X connect 21 0 6 0;
#X connect 22 0 7 0;
#X connect 23 0 8 0;
#X connect 24 0 9 0;
#X connect 25 0 10 0;
#X connect 26 0 11 0;
#X connect 27 0 12 0;
#X connect 28 0 29 0;
#X connect 29 0 67 0;
#X connect 30 0 54 0;
#X connect 30 0 54 1;
#X connect 31 0 32 0;
#X connect 32 0 33 0;
#X connect 33 0 30 1;
#X connect 36 0 52 0;
#X connect 36 0 51 0;
#X connect 39 0 38 0;
#X connect 44 0 45 0;
#X connect 46 0 47 0;
#X connect 47 0 57 0;
#X connect 48 0 49 0;
#X connect 51 0 42 0;
#X connect 51 0 43 0;
#X connect 52 0 41 0;
#X connect 52 0 43 0;
#X connect 53 0 55 0;
#X connect 55 0 30 0;
#X connect 56 0 21 0;
#X connect 56 0 22 0;
#X connect 56 0 23 0;
#X connect 56 0 24 0;
#X connect 56 0 25 0;
#X connect 56 0 26 0;
#X connect 56 0 27 0;
#X connect 56 0 20 0;
#X connect 57 0 0 0;
#X connect 57 0 58 0;
#X connect 58 0 57 1;
#X connect 59 0 60 0;
#X connect 60 0 28 0;
#X connect 61 0 55 2;
#X connect 62 0 63 0;
#X connect 64 0 63 0;
#X connect 65 0 64 0;
#X connect 66 0 171 0;
#X connect 67 0 68 0;
#X connect 68 0 69 0;
#X connect 68 0 114 0;
#X connect 68 0 115 0;
#X connect 68 0 180 0;
#X connect 69 0 70 0;
#X connect 69 0 72 0;
#X connect 69 0 92 0;
#X connect 69 0 93 0;
#X connect 69 0 94 0;
#X connect 69 0 95 0;
#X connect 69 0 96 0;
#X connect 69 0 97 0;
#X connect 69 0 98 0;
#X connect 69 0 112 0;
#X connect 70 0 71 0;
#X connect 71 0 76 0;
#X connect 72 0 123 0;
#X connect 72 0 124 0;
#X connect 72 0 56 0;
#X connect 73 0 74 0;
#X connect 73 1 75 1;
#X connect 74 0 75 0;
#X connect 75 0 71 1;
#X connect 75 0 77 1;
#X connect 75 0 79 1;
#X connect 75 0 81 1;
#X connect 75 0 83 1;
#X connect 75 0 85 1;
#X connect 75 0 87 1;
#X connect 75 0 89 1;
#X connect 76 0 172 0;
#X connect 77 0 78 0;
#X connect 78 0 173 0;
#X connect 79 0 80 0;
#X connect 80 0 174 0;
#X connect 81 0 82 0;
#X connect 82 0 175 0;
#X connect 83 0 84 0;
#X connect 84 0 176 0;
#X connect 85 0 86 0;
#X connect 86 0 177 0;
#X connect 87 0 88 0;
#X connect 88 0 178 0;
#X connect 89 0 90 0;
#X connect 90 0 179 0;
#X connect 91 0 20 0;
#X connect 91 0 21 0;
#X connect 91 0 22 0;
#X connect 91 0 23 0;
#X connect 91 0 24 0;
#X connect 91 0 25 0;
#X connect 91 0 26 0;
#X connect 91 0 27 0;
#X connect 92 0 77 0;
#X connect 93 0 79 0;
#X connect 94 0 81 0;
#X connect 95 0 83 0;
#X connect 96 0 85 0;
#X connect 97 0 87 0;
#X connect 98 0 89 0;
#X connect 99 0 126 0;
#X connect 99 0 125 0;
#X connect 100 0 101 0;
#X connect 100 1 102 1;
#X connect 101 0 102 0;
#X connect 102 0 103 1;
#X connect 103 0 104 0;
#X connect 104 0 181 0;
#X connect 105 0 19 0;
#X connect 106 0 127 0;
#X connect 106 0 128 0;
#X connect 107 0 108 0;
#X connect 107 1 109 1;
#X connect 108 0 109 0;
#X connect 109 0 110 1;
#X connect 110 0 111 0;
#X connect 111 0 113 0;
#X connect 112 0 110 0;
#X connect 112 0 106 0;
#X connect 113 0 53 0;
#X connect 114 0 159 0;
#X connect 114 0 160 0;
#X connect 114 0 168 0;
#X connect 115 0 169 0;
#X connect 116 0 129 0;
#X connect 116 0 130 0;
#X connect 117 0 118 0;
#X connect 117 1 119 1;
#X connect 118 0 119 0;
#X connect 119 0 120 1;
#X connect 120 0 122 0;
#X connect 121 0 31 0;
#X connect 122 0 121 0;
#X connect 123 0 74 0;
#X connect 124 0 73 0;
#X connect 125 0 100 0;
#X connect 126 0 101 0;
#X connect 127 0 108 0;
#X connect 128 0 107 0;
#X connect 129 0 118 0;
#X connect 130 0 117 0;
#X connect 131 0 105 1;
#X connect 132 0 139 0;
#X connect 132 0 138 0;
#X connect 133 0 134 0;
#X connect 133 1 135 1;
#X connect 134 0 135 0;
#X connect 135 0 136 1;
#X connect 136 0 137 0;
#X connect 137 0 140 0;
#X connect 138 0 133 0;
#X connect 139 0 134 0;
#X connect 140 0 141 0;
#X connect 140 1 142 0;
#X connect 140 2 143 0;
#X connect 140 3 144 0;
#X connect 140 4 145 0;
#X connect 140 5 146 0;
#X connect 140 6 147 0;
#X connect 141 0 61 0;
#X connect 142 0 61 0;
#X connect 143 0 61 0;
#X connect 144 0 61 0;
#X connect 145 0 61 0;
#X connect 146 0 61 0;
#X connect 147 0 61 0;
#X connect 148 0 154 0;
#X connect 148 0 155 0;
#X connect 149 0 150 0;
#X connect 149 1 151 1;
#X connect 150 0 151 0;
#X connect 151 0 152 1;
#X connect 152 0 156 0;
#X connect 153 0 158 1;
#X connect 153 0 161 1;
#X connect 153 0 167 1;
#X connect 153 0 166 1;
#X connect 153 0 165 1;
#X connect 153 0 162 1;
#X connect 153 0 163 1;
#X connect 153 0 164 1;
#X connect 154 0 150 0;
#X connect 155 0 149 0;
#X connect 156 0 153 0;
#X connect 157 0 63 0;
#X connect 158 0 20 0;
#X connect 158 1 20 1;
#X connect 158 1 170 1;
#X connect 159 0 148 0;
#X connect 159 0 152 0;
#X connect 160 0 136 0;
#X connect 160 0 132 0;
#X connect 161 0 21 0;
#X connect 161 1 21 1;
#X connect 161 1 170 3;
#X connect 162 0 25 0;
#X connect 162 1 25 1;
#X connect 162 1 170 11;
#X connect 163 0 26 0;
#X connect 163 1 26 1;
#X connect 163 1 170 13;
#X connect 164 0 27 0;
#X connect 164 1 27 1;
#X connect 164 1 170 15;
#X connect 165 0 24 0;
#X connect 165 1 24 1;
#X connect 165 1 170 9;
#X connect 166 0 23 0;
#X connect 166 1 23 1;
#X connect 166 1 170 7;
#X connect 167 0 22 0;
#X connect 167 1 22 1;
#X connect 167 1 170 5;
#X connect 168 0 103 0;
#X connect 168 0 99 0;
#X connect 169 0 116 0;
#X connect 169 0 120 0;
#X connect 170 0 3 0;
#X connect 170 1 4 0;
#X connect 170 2 13 0;
#X connect 170 3 14 0;
#X connect 170 4 15 0;
#X connect 170 5 16 0;
#X connect 170 6 17 0;
#X connect 170 7 18 0;
#X connect 171 0 65 0;
#X connect 172 0 158 0;
#X connect 172 1 158 1;
#X connect 173 0 161 0;
#X connect 173 1 161 1;
#X connect 174 0 167 0;
#X connect 174 1 167 1;
#X connect 175 0 166 0;
#X connect 175 1 166 1;
#X connect 176 0 165 0;
#X connect 176 1 165 1;
#X connect 177 0 162 0;
#X connect 177 1 162 1;
#X connect 178 0 163 0;
#X connect 178 1 163 1;
#X connect 179 0 164 0;
#X connect 179 1 164 1;
#X connect 180 0 113 0;
#X connect 180 0 131 0;
#X connect 180 0 181 0;
#X connect 181 0 105 0;
