#N canvas 952 0 958 966 12;
#X obj 328 61 inlet;
#X obj 382 893 outlet~;
#X obj 244 456 vcf~ 1;
#X obj 328 127 mtof;
#X obj 328 165 expr 1000/$f1;
#X obj 61 242 noise~;
#X obj 112 279 *~;
#X obj 167 247 tgl 15 0 empty empty empty 17 7 0 10 -262144 -1 -1 1
1;
#X obj 135 133 t b b, f 10;
#X obj 135 102 bng 15 250 50 0 empty empty empty 17 7 0 10 -262144
-1 -1;
#X msg 135 207 0;
#X msg 202 207 1;
#X floatatom 329 223 5 0 0 0 - - -;
#X obj 155 374 lop~ 5000;
#X obj 199 298 *~ 0.99;
#X obj 530 102 bng 15 250 50 0 empty empty empty 17 7 0 10 -262144
-1 -1;
#X obj 529 362 line~;
#X obj 593 272 pack 0 500;
#X obj 529 411 *~;
#X obj 529 460 *~;
#X obj 593 211 del 25;
#X obj 660 134 r release;
#X msg 529 272 1 15;
#X obj 381 505 *~;
#X obj 135 169 del 20;
#X obj 104 508 delwrite~ \$0-dly 500;
#X obj 273 256 delread4~ \$0-dly;
#X obj 919 224 switch~;
#X obj 927 139 inlet;
#X msg 857 110 0;
#X msg 925 176 1;
#X obj 856 67 r stopAll;
#X obj 330 371 r cutoff;
#X obj 330 406 r resonance;
#X obj 455 610 r~ chorus;
#X obj 455 634 vd~ chorus 1000;
#X obj 454 585 delwrite~ chorus 1000;
#X obj 455 672 *~;
#X obj 618 656 hsl 128 15 0 1 0 0 empty empty empty -2 -8 0 10 -262144
-1 -1 12700 1;
#X obj 381 861 *~ 1;
#X floatatom 615 679 5 0 0 0 - - -;
#X obj 615 606 loadbang;
#X obj 135 675 *~;
#X obj 225 633 hsl 128 15 0 1 0 0 empty empty empty -2 -8 0 10 -262144
-1 -1 6350 1;
#X floatatom 222 656 5 0 0 0 - - -;
#X obj 222 583 loadbang;
#X obj 87 616 vd~ flanger 200;
#X obj 134 715 delwrite~ flanger 200;
#X obj 87 779 *~;
#X obj 105 750 nbx 4 20 0 1023 0 1 empty empty empty 0 -8 0 10 -262144
-1 -1 1 256;
#X obj 87 592 r~ flanger;
#X msg 222 607 0.5;
#X msg 615 630 1;
#X connect 0 0 3 0;
#X connect 0 0 9 0;
#X connect 0 0 15 0;
#X connect 2 0 23 0;
#X connect 2 1 23 0;
#X connect 3 0 4 0;
#X connect 4 0 12 0;
#X connect 5 0 6 0;
#X connect 6 0 25 0;
#X connect 7 0 6 1;
#X connect 8 0 24 0;
#X connect 8 1 11 0;
#X connect 9 0 8 0;
#X connect 10 0 7 0;
#X connect 11 0 7 0;
#X connect 12 0 26 0;
#X connect 13 0 2 0;
#X connect 13 0 25 0;
#X connect 14 0 13 0;
#X connect 15 0 22 0;
#X connect 15 0 20 0;
#X connect 16 0 18 0;
#X connect 16 0 18 1;
#X connect 17 0 16 0;
#X connect 18 0 19 0;
#X connect 18 0 19 1;
#X connect 19 0 23 1;
#X connect 20 0 17 0;
#X connect 21 0 17 1;
#X connect 22 0 16 0;
#X connect 23 0 39 0;
#X connect 23 0 47 0;
#X connect 23 0 36 0;
#X connect 24 0 10 0;
#X connect 26 0 14 0;
#X connect 28 0 30 0;
#X connect 29 0 27 0;
#X connect 30 0 27 0;
#X connect 31 0 29 0;
#X connect 32 0 2 1;
#X connect 33 0 2 2;
#X connect 34 0 35 0;
#X connect 35 0 37 0;
#X connect 37 0 39 0;
#X connect 38 0 37 1;
#X connect 38 0 40 0;
#X connect 39 0 1 0;
#X connect 41 0 52 0;
#X connect 42 0 47 0;
#X connect 43 0 42 1;
#X connect 43 0 44 0;
#X connect 45 0 51 0;
#X connect 46 0 42 0;
#X connect 46 0 48 0;
#X connect 48 0 39 0;
#X connect 49 0 48 1;
#X connect 50 0 46 0;
#X connect 51 0 43 0;
#X connect 52 0 38 0;
