#N canvas 511 65 943 878 12;
#X obj 191 101 inlet;
#X obj 201 463 outlet~;
#X obj 163 255 osc~;
#X obj 223 255 osc~;
#X obj 163 217 * 1.02;
#X obj 103 217 * 2.01;
#X obj 163 404 vcf~ 1;
#X obj 285 255 r cutoff;
#X obj 103 255 phasor~;
#X obj 285 284 r resonance;
#X obj 541 226 switch~;
#X obj 549 141 inlet;
#X msg 479 112 0;
#X msg 547 178 1;
#X obj 478 69 r stopAll;
#X connect 0 0 5 0;
#X connect 0 0 4 0;
#X connect 0 0 3 0;
#X connect 2 0 6 0;
#X connect 3 0 6 0;
#X connect 4 0 2 0;
#X connect 5 0 8 0;
#X connect 6 1 1 0;
#X connect 7 0 6 1;
#X connect 8 0 6 0;
#X connect 9 0 6 2;
#X connect 11 0 13 0;
#X connect 12 0 10 0;
#X connect 13 0 10 0;
#X connect 14 0 12 0;
