#N canvas 301 191 1596 878 12;
#X obj 461 122 bng 15 250 50 0 empty empty empty 17 7 0 10 -262144
-1 -1;
#X obj 41 183 mtof;
#X obj 118 284 phasor~;
#X obj 41 414 vcf~;
#X obj 41 284 phasor~;
#X obj 41 334 +~;
#X obj 41 253 * 2.01;
#X obj 214 173 osc~;
#X obj 214 212 *~;
#X obj 118 253 +~;
#X obj 41 476 *~;
#X obj 461 298 line~;
#X obj 525 253 pack 0 500;
#X obj 461 347 *~;
#X obj 461 396 *~;
#X obj 525 192 del 25;
#X obj 592 192 r release;
#X msg 461 253 1 15;
#X obj 44 49 inlet;
#X obj 41 537 outlet~;
#X obj 832 237 switch~;
#X obj 840 152 inlet;
#X msg 770 123 0;
#X msg 838 189 1;
#X obj 769 80 r stopAll;
#X floatatom 214 143 5 0 0 0 - - -;
#X floatatom 293 163 5 0 0 0 - - -;
#X obj 122 336 r cutoff;
#X obj 143 368 r resonance;
#X connect 0 0 15 0;
#X connect 0 0 17 0;
#X connect 1 0 9 0;
#X connect 1 0 6 0;
#X connect 2 0 5 1;
#X connect 3 0 10 0;
#X connect 3 1 10 0;
#X connect 4 0 5 0;
#X connect 5 0 3 0;
#X connect 6 0 4 0;
#X connect 7 0 8 0;
#X connect 8 0 9 1;
#X connect 9 0 2 0;
#X connect 10 0 19 0;
#X connect 11 0 13 0;
#X connect 11 0 13 1;
#X connect 12 0 11 0;
#X connect 13 0 14 0;
#X connect 13 0 14 1;
#X connect 14 0 10 1;
#X connect 15 0 12 0;
#X connect 16 0 12 1;
#X connect 17 0 11 0;
#X connect 18 0 1 0;
#X connect 18 0 0 0;
#X connect 21 0 23 0;
#X connect 22 0 20 0;
#X connect 23 0 20 0;
#X connect 24 0 22 0;
#X connect 25 0 7 0;
#X connect 26 0 8 1;
#X connect 27 0 3 1;
#X connect 28 0 3 2;
