#N canvas 0 23 1440 800 12;
#X obj 455 146 mod 8;
#X obj 455 180 hradio 15 1 0 8 empty empty empty 0 -8 0 10 -262144
-1 -1 5;
#X obj 453 206 select 0 1 2 3 4 5 6 7;
#X obj 426 441 f;
#X obj 453 441 f;
#X obj 426 297 vsl 15 128 0 127 0 0 empty empty empty 0 -9 0 10 -4034
-1 -1 12700 1;
#X obj 453 297 vsl 15 128 0 127 0 0 empty empty empty 0 -9 0 10 -4034
-1 -1 12700 1;
#X obj 485 297 vsl 15 128 0 127 0 0 empty empty empty 0 -9 0 10 -4034
-1 -1 2200 1;
#X obj 521 297 vsl 15 128 0 127 0 0 empty empty empty 0 -9 0 10 -4034
-1 -1 3400 1;
#X obj 558 297 vsl 15 128 0 127 0 0 empty empty empty 0 -9 0 10 -4034
-1 -1 4200 1;
#X obj 595 297 vsl 15 128 0 127 0 0 empty empty empty 0 -9 0 10 -4034
-1 -1 3400 1;
#X obj 630 297 vsl 15 128 0 127 0 0 empty empty empty 0 -9 0 10 -4034
-1 -1 4500 1;
#X obj 663 297 vsl 15 128 0 127 0 0 empty empty empty 0 -9 0 10 -4034
-1 -1 4500 1;
#X obj 485 441 f;
#X obj 521 441 f;
#X obj 558 441 f;
#X obj 595 441 f;
#X obj 630 441 f;
#X obj 663 441 f;
#X obj 1334 -88 hsl 128 15 0 11 0 0 empty empty empty -2 -8 0 10 -262144
-1 -1 0 1;
#X obj 737 207 +;
#X obj 867 210 +;
#X obj 997 213 +;
#X obj 1095 213 +;
#X obj 1198 213 +;
#X obj 1282 213 +;
#X obj 1382 213 +;
#X obj 1478 213 +;
#X obj 708 -310 oscparse;
#X obj 707 -267 list trim;
#X floatatom 711 -148 5 0 0 0 - - -;
#X obj 766 636 *~;
#X obj 1022 346 vsl 15 128 0 1 0 0 empty empty empty 0 -9 0 10 -258113
-1 -1 10600 1;
#X obj 711 -182 route volume;
#X msg 944 542 \$1 100;
#X obj 942 581 line~;
#X text 966 308 Volume;
#X text 423 -83 BPM;
#X obj 379 -83 nbx 3 20 0 400 0 1 empty empty empty 0 -8 0 10 -262144
-1 -1 54.787 256;
#X obj 525 -80 hsl 128 15 0 0.33 0 0 feel empty 16th-note-feel 20 8
0 10 -262144 -260097 -1 0 0;
#N canvas 526 170 191 127 time-signature 0;
#X obj 19 16 inlet;
#X obj 19 50 == 0;
#X obj 62 50 s signature12/16;
#X obj 19 77 s signature16/16;
#X connect 0 0 1 0;
#X connect 0 0 2 0;
#X connect 1 0 3 0;
#X restore 526 -4 pd time-signature;
#X obj 526 -47 vradio 15 1 1 2 empty empty empty 0 -8 0 10 -262144
-260097 -1 1;
#X text 545 -47 4/4;
#X floatatom 380 4 5 0 0 0 - - -;
#X floatatom 437 4 5 0 0 0 - - -;
#X obj 380 33 s ticks;
#N canvas 472 450 176 103 sixteenths 0;
#X obj 20 24 r ticks;
#X obj 20 57 outlet;
#X connect 0 0 1 0;
#X restore 528 69 pd sixteenths;
#X obj 528 93 bng 15 50 50 0 empty empty empty 17 7 0 10 -262144 -1
-1;
#N canvas 472 450 140 141 eighths 0;
#X obj 20 24 r ticks;
#X obj 20 103 outlet;
#X obj 20 51 >> 1;
#X obj 20 77 change;
#X connect 0 0 2 0;
#X connect 2 0 3 0;
#X connect 3 0 1 0;
#X restore 451 69 pd eighths;
#X obj 450 101 bng 15 50 50 0 empty empty empty 17 7 0 10 -262144 -1
-1;
#N canvas 472 450 140 141 quarts 0;
#X obj 20 24 r ticks;
#X obj 20 103 outlet;
#X obj 20 77 change;
#X obj 20 51 >> 2;
#X connect 0 0 3 0;
#X connect 2 0 1 0;
#X connect 3 0 2 0;
#X restore 382 69 pd quarts;
#X obj 382 95 bng 15 50 50 0 empty empty empty 17 7 0 10 -262144 -1
-1;
#X text 545 -32 12/16;
#N canvas 476 430 171 317 12/16 0;
#X obj 42 41 inlet;
#X obj 15 275 outlet;
#X obj 15 42 tgl 15 0 empty empty empty 17 7 0 10 -262144 -1 -1 0 1
;
#X obj 15 92 metro;
#X obj 15 197 +;
#X obj 15 172 f 1;
#N canvas 0 22 141 214 skipticks 0;
#X obj 26 47 inlet;
#X obj 26 161 outlet;
#X obj 26 79 & 3;
#X obj 26 106 sel 2;
#X msg 26 131 2;
#X msg 55 131 1;
#X connect 0 0 2 0;
#X connect 2 0 3 0;
#X connect 3 0 4 0;
#X connect 3 1 5 0;
#X connect 4 0 1 0;
#X connect 5 0 1 0;
#X restore 30 145 pd skipticks;
#X obj 15 223 & 255;
#N canvas 934 142 156 171 milliseconds 0;
#X obj 19 18 inlet;
#X obj 19 127 outlet;
#X obj 19 46 t b f;
#X obj 19 94 /;
#X text 18 150 1/12 note;
#X msg 19 70 20000;
#X connect 0 0 2 0;
#X connect 2 0 5 0;
#X connect 2 1 3 1;
#X connect 3 0 1 0;
#X connect 5 0 3 0;
#X restore 42 67 pd milliseconds;
#X text 80 41 BPM;
#X floatatom 42 116 5 0 0 0 - - -;
#X obj 15 11 r signature12/16;
#X floatatom 67 250 5 0 0 0 - - -;
#N canvas 197 486 215 265 feel 0;
#X obj 21 86 & 1;
#X obj 21 58 t f f;
#X obj 21 25 inlet;
#X obj 21 221 outlet;
#X obj 21 126 pack;
#X obj 21 152 route 0 1;
#X text 16 170 even;
#X text 56 170 odd;
#X obj 89 152 *;
#X obj 99 125 t b f;
#X floatatom 89 192 5 0 0 0 - - -;
#X obj 46 191 pipe;
#X text 127 192 milliseconds;
#X obj 89 26 inlet;
#X text 19 4 ticks;
#X text 87 5 feel;
#X obj 99 96 r ticklength12;
#X connect 0 0 4 0;
#X connect 1 0 0 0;
#X connect 1 1 4 1;
#X connect 2 0 1 0;
#X connect 4 0 5 0;
#X connect 5 0 3 0;
#X connect 5 1 11 0;
#X connect 8 0 10 0;
#X connect 8 0 11 1;
#X connect 9 0 8 0;
#X connect 9 1 8 1;
#X connect 11 0 3 0;
#X connect 13 0 8 0;
#X connect 16 0 9 0;
#X restore 15 249 pd feel;
#X obj 54 223 r feel;
#X obj 54 92 s ticklength12;
#X connect 0 0 8 0;
#X connect 2 0 3 0;
#X connect 3 0 5 0;
#X connect 4 0 7 0;
#X connect 5 0 4 0;
#X connect 6 0 5 1;
#X connect 7 0 4 1;
#X connect 7 0 6 0;
#X connect 7 0 13 0;
#X connect 8 0 3 1;
#X connect 8 0 10 0;
#X connect 8 0 15 0;
#X connect 11 0 2 0;
#X connect 13 0 1 0;
#X connect 14 0 13 1;
#X connect 14 0 12 0;
#X restore 437 -26 pd 12/16;
#N canvas 653 431 199 282 16/16 0;
#X obj 46 45 inlet;
#X obj 19 251 outlet;
#X obj 19 143 f;
#X obj 19 168 + 1;
#X obj 19 46 tgl 15 0 empty empty empty 17 7 0 10 -262144 -1 -1 1 1
;
#X obj 19 118 metro;
#X floatatom 71 223 5 0 0 0 - - -;
#N canvas 813 182 215 265 feel 0;
#X obj 21 86 & 1;
#X obj 21 58 t f f;
#X obj 21 25 inlet;
#X obj 21 221 outlet;
#X obj 21 126 pack;
#X obj 21 152 route 0 1;
#X text 16 170 even;
#X text 56 170 odd;
#X obj 89 152 *;
#X obj 99 125 t b f;
#X floatatom 89 192 5 0 0 0 - - -;
#X obj 46 191 pipe;
#X text 127 192 milliseconds;
#X obj 89 26 inlet;
#X text 19 4 ticks;
#X text 87 5 feel;
#X obj 99 91 r ticklength16;
#X connect 0 0 4 0;
#X connect 1 0 0 0;
#X connect 1 1 4 1;
#X connect 2 0 1 0;
#X connect 4 0 5 0;
#X connect 5 0 3 0;
#X connect 5 1 11 0;
#X connect 8 0 10 0;
#X connect 8 0 11 1;
#X connect 9 0 8 0;
#X connect 9 1 8 1;
#X connect 11 0 3 0;
#X connect 13 0 8 0;
#X connect 16 0 9 0;
#X restore 19 222 pd feel;
#X obj 58 196 r feel;
#X obj 19 196 & 255;
#N canvas 934 142 164 180 milliseconds 0;
#X obj 19 18 inlet;
#X obj 19 123 outlet;
#X obj 19 46 t b f;
#X obj 19 94 /;
#X text 18 150 1/16 note;
#X msg 19 70 15000;
#X connect 0 0 2 0;
#X connect 2 0 5 0;
#X connect 2 1 3 1;
#X connect 3 0 1 0;
#X connect 5 0 3 0;
#X restore 46 69 pd milliseconds;
#X text 85 46 BPM;
#X obj 60 118 s ticklength16;
#X text 58 140 1/16 note tick length;
#X floatatom 63 93 5 0 0 0 - - -;
#X obj 19 16 r signature16/16;
#X connect 0 0 10 0;
#X connect 2 0 3 0;
#X connect 3 0 9 0;
#X connect 4 0 5 0;
#X connect 5 0 2 0;
#X connect 7 0 1 0;
#X connect 8 0 7 1;
#X connect 8 0 6 0;
#X connect 9 0 2 1;
#X connect 9 0 7 0;
#X connect 10 0 5 1;
#X connect 10 0 12 0;
#X connect 10 0 14 0;
#X connect 15 0 4 0;
#X restore 380 -26 pd 16/16;
#X obj 884 360 hradio 15 1 0 3 empty empty Waveform 50 8 0 10 -257985
-1 -1 2;
#X obj 714 539 tgl 15 0 empty empty empty 17 7 0 10 -262144 -1 -1 0
1;
#X obj 746 680 dac~ 1 2;
#X obj 610 573 synth one;
#X obj 1095 -74 unpack 0 0 0 0 0 0 0 0;
#X obj 1060 -177 route melody;
#X obj 1044 -90 bng 15 250 50 0 empty empty empty 17 7 0 10 -262144
-1 -1;
#X obj 1326 -178 route scale;
#X obj 382 -179 route tempo;
#X obj 573 -182 route wave;
#X obj 330 169 float;
#X obj 244 148 + 1;
#X msg 708 -380 listen 10000;
#X obj 708 -347 netreceive -u -b 10000;
#X floatatom 381 547 5 0 0 0 - - -;
#X connect 0 0 1 0;
#X connect 1 0 2 0;
#X connect 2 0 3 0;
#X connect 2 1 4 0;
#X connect 2 2 13 0;
#X connect 2 3 14 0;
#X connect 2 4 15 0;
#X connect 2 5 16 0;
#X connect 2 6 17 0;
#X connect 2 7 18 0;
#X connect 3 0 58 1;
#X connect 4 0 58 1;
#X connect 5 0 3 1;
#X connect 6 0 4 1;
#X connect 7 0 13 1;
#X connect 8 0 14 1;
#X connect 9 0 15 1;
#X connect 10 0 16 1;
#X connect 11 0 17 1;
#X connect 12 0 18 1;
#X connect 13 0 58 1;
#X connect 14 0 58 1;
#X connect 15 0 58 1;
#X connect 16 0 58 1;
#X connect 17 0 58 1;
#X connect 18 0 58 1;
#X connect 19 0 20 0;
#X connect 19 0 21 0;
#X connect 19 0 22 0;
#X connect 19 0 23 0;
#X connect 19 0 24 0;
#X connect 19 0 25 0;
#X connect 19 0 26 0;
#X connect 19 0 27 0;
#X connect 20 0 5 0;
#X connect 21 0 6 0;
#X connect 22 0 7 0;
#X connect 23 0 8 0;
#X connect 24 0 9 0;
#X connect 25 0 10 0;
#X connect 26 0 11 0;
#X connect 27 0 12 0;
#X connect 28 0 29 0;
#X connect 29 0 33 0;
#X connect 29 0 63 0;
#X connect 29 0 60 0;
#X connect 29 0 62 0;
#X connect 29 0 64 0;
#X connect 30 0 32 0;
#X connect 31 0 57 0;
#X connect 31 0 57 1;
#X connect 32 0 34 0;
#X connect 33 0 30 0;
#X connect 34 0 35 0;
#X connect 35 0 31 1;
#X connect 38 0 54 0;
#X connect 38 0 53 0;
#X connect 41 0 40 0;
#X connect 46 0 47 0;
#X connect 47 0 65 0;
#X connect 48 0 49 0;
#X connect 49 0 65 0;
#X connect 50 0 51 0;
#X connect 51 0 65 0;
#X connect 53 0 44 0;
#X connect 53 0 45 0;
#X connect 54 0 43 0;
#X connect 54 0 45 0;
#X connect 55 0 58 2;
#X connect 56 0 58 3;
#X connect 58 0 31 0;
#X connect 59 0 20 1;
#X connect 59 1 21 1;
#X connect 59 2 22 1;
#X connect 59 3 23 1;
#X connect 59 4 24 1;
#X connect 59 5 25 1;
#X connect 59 6 26 1;
#X connect 59 7 27 1;
#X connect 60 0 59 0;
#X connect 60 0 61 0;
#X connect 61 0 20 0;
#X connect 61 0 21 0;
#X connect 61 0 22 0;
#X connect 61 0 23 0;
#X connect 61 0 24 0;
#X connect 61 0 25 0;
#X connect 61 0 26 0;
#X connect 61 0 27 0;
#X connect 62 0 19 0;
#X connect 63 0 38 0;
#X connect 64 0 55 0;
#X connect 65 0 0 0;
#X connect 65 0 66 0;
#X connect 66 0 65 1;
#X connect 67 0 68 0;
#X connect 68 0 28 0;
#X connect 69 0 58 0;
