#N canvas 101 165 1180 926 12;
#X obj 64 26 inlet;
#X obj 103 513 outlet~;
#X obj 64 469 vcf~ 1;
#X obj 150 384 r cutoff;
#X obj 150 419 r resonance;
#X obj 64 399 osc~;
#X obj 64 369 +~;
#X obj 150 209 *~;
#X obj 150 279 *~;
#X obj 196 248 *~;
#X obj 99 248 osc~;
#X obj 168 131 r harmon;
#X obj 214 170 r mod;
#X obj 168 170 i;
#X obj 214 209 i;
#X obj 405 187 switch~;
#X obj 413 102 inlet;
#X msg 348 84 0;
#X msg 415 137 1;
#X obj 348 60 r stopAll;
#X connect 0 0 7 0;
#X connect 0 0 6 0;
#X connect 2 1 1 0;
#X connect 3 0 2 1;
#X connect 4 0 2 2;
#X connect 5 0 2 0;
#X connect 6 0 5 0;
#X connect 7 0 9 0;
#X connect 7 0 10 0;
#X connect 8 0 6 1;
#X connect 9 0 8 1;
#X connect 10 0 8 0;
#X connect 11 0 13 0;
#X connect 12 0 14 0;
#X connect 13 0 7 1;
#X connect 14 0 9 1;
#X connect 16 0 18 0;
#X connect 17 0 15 0;
#X connect 18 0 15 0;
#X connect 19 0 17 0;
