#N canvas 952 0 958 966 12;
#X obj 664 192 t f b;
#X obj 705 192 s stopAll;
#X obj 226 147 inlet;
#X obj 501 810 outlet~;
#X obj 664 132 inlet;
#X obj 502 773 +~;
#X obj 323 225 +;
#X obj 309 148 inlet;
#X obj 226 206 f;
#X obj 309 187 t b f;
#X floatatom 215 69 5 0 0 0 - - -;
#X floatatom 275 68 5 0 0 0 - - -;
#X floatatom 331 68 5 0 0 0 - - -;
#X obj 664 222 sel 0 1 2 3;
#X obj 731 475 seq_02_synth.cl;
#X obj 252 477 seq_03_synth.cl;
#X obj 1157 471 hsl 128 32 25 3000 0 0 empty empty Release 6 -8 0 10
-204786 -1 -1 6303 1;
#X obj 1194 409 loadbang;
#X obj 1154 533 s release;
#X obj 1370 476 hsl 128 32 25 6000 0 0 empty empty Cutoff 6 -8 0 10
-204786 -1 -1 2817 1;
#X obj 1404 412 loadbang;
#X obj 1549 477 hsl 128 32 1 8 0 0 empty empty Resonance 6 -8 0 10
-204786 -1 -1 9662 1;
#X obj 1592 415 loadbang;
#X msg 1592 441 1;
#X obj 1710 479 hsl 128 32 1 16 0 0 empty empty Harmonic_content 6
-8 0 10 -204786 -1 -1 6997 1;
#X obj 1760 417 loadbang;
#X obj 1866 479 hsl 128 32 1 8 0 0 empty empty Modulation 6 -8 0 10
-204786 -1 -1 5611 1;
#X obj 1937 405 loadbang;
#X msg 1937 444 1;
#X msg 1194 434 1500;
#X msg 1404 437 5000;
#X msg 1760 442 4;
#X obj 17 477 seq_01_synth.cl;
#X obj 366 476 seq_04_synth.cl;
#X obj 136 477 seq_02_synth.cl;
#X obj 601 474 seq_01_synth.cl;
#X obj 845 475 seq_03_synth.cl;
#X obj 959 475 seq_04_synth.cl;
#X obj 1443 275 r toggle0;
#X obj 1443 302 tgl 15 0 empty empty empty 17 7 0 10 -262144 -1 -1
0 1;
#X obj 1386 124 osc~;
#X obj 1386 98 nbx 4 20 0 1023 0 1 empty empty empty 0 -8 0 10 -262144
-1 -1 1 256;
#X obj 1385 179 *~;
#X obj 1403 151 nbx 6 20 0 100000 0 1 empty empty empty 0 -8 0 10 -262144
-1 -1 1000 256;
#X obj 1368 63 nbx 6 20 0 100000 0 1 empty empty empty 0 -8 0 10 -262144
-1 -1 2000 256;
#X obj 1368 214 +~;
#X obj 1367 375 snapshot~;
#X obj 1404 247 bng 15 250 50 0 empty empty empty 17 7 0 10 -262144
-1 -1;
#X obj 1404 219 loadbang;
#X obj 1404 326 spigot;
#X obj 1622 304 tgl 15 0 empty empty empty 17 7 0 10 -262144 -1 -1
0 1;
#X obj 1565 126 osc~;
#X obj 1565 100 nbx 4 20 0 1023 0 1 empty empty empty 0 -8 0 10 -262144
-1 -1 1 256;
#X obj 1564 181 *~;
#X obj 1582 153 nbx 6 20 0 100000 0 1 empty empty empty 0 -8 0 10 -262144
-1 -1 2 256;
#X obj 1547 65 nbx 6 20 0 100000 0 1 empty empty empty 0 -8 0 10 -262144
-1 -1 4.5 256;
#X obj 1547 216 +~;
#X obj 1546 377 snapshot~;
#X obj 1583 249 bng 15 250 50 0 empty empty empty 17 7 0 10 -262144
-1 -1;
#X obj 1583 221 loadbang;
#X obj 1583 328 spigot;
#X obj 1783 304 tgl 15 0 empty empty empty 17 7 0 10 -262144 -1 -1
0 1;
#X obj 1726 126 osc~;
#X obj 1726 100 nbx 4 20 0 1023 0 1 empty empty empty 0 -8 0 10 -262144
-1 -1 1 256;
#X obj 1725 181 *~;
#X obj 1743 153 nbx 6 20 0 100000 0 1 empty empty empty 0 -8 0 10 -262144
-1 -1 2 256;
#X obj 1708 65 nbx 6 20 0 100000 0 1 empty empty empty 0 -8 0 10 -262144
-1 -1 8.5 256;
#X obj 1708 216 +~;
#X obj 1707 377 snapshot~;
#X obj 1744 249 bng 15 250 50 0 empty empty empty 17 7 0 10 -262144
-1 -1;
#X obj 1744 221 loadbang;
#X obj 1744 328 spigot;
#X obj 1939 308 tgl 15 0 empty empty empty 17 7 0 10 -262144 -1 -1
0 1;
#X obj 1882 130 osc~;
#X obj 1882 104 nbx 4 20 0 1023 0 1 empty empty empty 0 -8 0 10 -262144
-1 -1 1 256;
#X obj 1881 185 *~;
#X obj 1899 157 nbx 6 20 0 100000 0 1 empty empty empty 0 -8 0 10 -262144
-1 -1 2 256;
#X obj 1864 69 nbx 6 20 0 100000 0 1 empty empty empty 0 -8 0 10 -262144
-1 -1 4.5 256;
#X obj 1864 220 +~;
#X obj 1863 381 snapshot~;
#X obj 1900 253 bng 15 250 50 0 empty empty empty 17 7 0 10 -262144
-1 -1;
#X obj 1900 225 loadbang;
#X obj 1900 332 spigot;
#X obj 1622 277 r toggle1;
#X obj 1783 277 r toggle2;
#X obj 1939 281 r toggle3;
#X obj 1367 536 s cutoff;
#X obj 1546 539 s resonance;
#X obj 1707 541 s harmon;
#X obj 1863 541 s mod;
#X obj 1611 247 delay 5;
#X obj 1772 247 delay 5;
#X obj 1928 251 delay 5;
#X obj 1432 245 delay 5;
#X obj 1154 372 r release;
#X obj 555 112 r crossfade;
#X obj 473 710 *~;
#X obj 537 711 *~;
#X obj 490 167 -~;
#X floatatom 584 165 5 0 0 0 - - -;
#X floatatom 1326 536 5 0 0 0 - - -;
#X obj 489 125 sig~;
#X obj 489 85 nbx 6 20 0 100000 0 1 empty empty empty 0 -8 0 10 -262144
-1 -1 1 256;
#X obj 489 58 loadbang;
#X connect 0 0 13 0;
#X connect 0 1 1 0;
#X connect 2 0 8 0;
#X connect 2 0 10 0;
#X connect 4 0 0 0;
#X connect 5 0 3 0;
#X connect 6 0 12 0;
#X connect 6 0 37 0;
#X connect 6 0 14 0;
#X connect 6 0 36 0;
#X connect 6 0 35 0;
#X connect 7 0 11 0;
#X connect 7 0 9 0;
#X connect 8 0 6 0;
#X connect 8 0 32 0;
#X connect 8 0 34 0;
#X connect 8 0 15 0;
#X connect 8 0 33 0;
#X connect 9 0 8 0;
#X connect 9 1 6 1;
#X connect 13 0 35 1;
#X connect 13 0 32 1;
#X connect 13 1 14 1;
#X connect 13 1 34 1;
#X connect 13 2 36 1;
#X connect 13 2 15 1;
#X connect 13 3 37 1;
#X connect 13 3 33 1;
#X connect 14 0 97 0;
#X connect 15 0 96 0;
#X connect 16 0 18 0;
#X connect 17 0 29 0;
#X connect 19 0 86 0;
#X connect 19 0 100 0;
#X connect 20 0 30 0;
#X connect 21 0 87 0;
#X connect 22 0 23 0;
#X connect 23 0 21 0;
#X connect 24 0 88 0;
#X connect 25 0 31 0;
#X connect 26 0 89 0;
#X connect 27 0 28 0;
#X connect 28 0 26 0;
#X connect 29 0 16 0;
#X connect 30 0 19 0;
#X connect 31 0 24 0;
#X connect 32 0 96 0;
#X connect 33 0 96 0;
#X connect 34 0 96 0;
#X connect 35 0 97 0;
#X connect 36 0 97 0;
#X connect 37 0 97 0;
#X connect 38 0 39 0;
#X connect 39 0 49 1;
#X connect 40 0 42 0;
#X connect 41 0 40 0;
#X connect 42 0 45 1;
#X connect 43 0 42 1;
#X connect 44 0 45 0;
#X connect 45 0 46 0;
#X connect 46 0 19 0;
#X connect 47 0 49 0;
#X connect 47 0 93 0;
#X connect 48 0 47 0;
#X connect 49 0 46 0;
#X connect 50 0 60 1;
#X connect 51 0 53 0;
#X connect 52 0 51 0;
#X connect 53 0 56 1;
#X connect 54 0 53 1;
#X connect 55 0 56 0;
#X connect 56 0 57 0;
#X connect 57 0 21 0;
#X connect 58 0 60 0;
#X connect 58 0 90 0;
#X connect 59 0 58 0;
#X connect 60 0 57 0;
#X connect 61 0 71 1;
#X connect 62 0 64 0;
#X connect 63 0 62 0;
#X connect 64 0 67 1;
#X connect 65 0 64 1;
#X connect 66 0 67 0;
#X connect 67 0 68 0;
#X connect 68 0 24 0;
#X connect 69 0 71 0;
#X connect 69 0 91 0;
#X connect 70 0 69 0;
#X connect 71 0 68 0;
#X connect 72 0 82 1;
#X connect 73 0 75 0;
#X connect 74 0 73 0;
#X connect 75 0 78 1;
#X connect 76 0 75 1;
#X connect 77 0 78 0;
#X connect 78 0 79 0;
#X connect 79 0 26 0;
#X connect 80 0 82 0;
#X connect 80 0 92 0;
#X connect 81 0 80 0;
#X connect 82 0 79 0;
#X connect 83 0 50 0;
#X connect 84 0 61 0;
#X connect 85 0 72 0;
#X connect 90 0 58 0;
#X connect 91 0 69 0;
#X connect 92 0 80 0;
#X connect 93 0 47 0;
#X connect 94 0 16 0;
#X connect 95 0 99 0;
#X connect 95 0 98 1;
#X connect 95 0 97 1;
#X connect 96 0 5 0;
#X connect 97 0 5 1;
#X connect 98 0 96 1;
#X connect 101 0 98 0;
#X connect 102 0 101 0;
#X connect 103 0 102 0;
