#N canvas 797 26 1164 935 12;
#X obj 439 168 mtof;
#X obj 585 789 *~;
#N canvas 0 23 450 300 cosine 0;
#X obj 219 140 inlet~;
#X obj 225 260 outlet~;
#X obj 315 197 switch~;
#X obj 323 112 inlet;
#X obj 222 201 osc~;
#X msg 258 94 0;
#X msg 325 147 1;
#X obj 258 70 r stopAll;
#X connect 0 0 4 0;
#X connect 3 0 6 0;
#X connect 4 0 1 0;
#X connect 5 0 2 0;
#X connect 6 0 2 0;
#X connect 7 0 5 0;
#X restore 82 476 pd cosine;
#N canvas 0 22 450 300 sawtooth 0;
#X obj 212 191 phasor~;
#X obj 209 130 inlet~;
#X obj 215 250 outlet~;
#X obj 305 187 switch~;
#X obj 313 102 inlet;
#X msg 268 104 0;
#X msg 322 145 1;
#X obj 269 80 r stopAll;
#X connect 0 0 2 0;
#X connect 1 0 0 0;
#X connect 4 0 6 0;
#X connect 5 0 3 0;
#X connect 6 0 3 0;
#X connect 7 0 5 0;
#X restore 584 476 pd sawtooth;
#X obj 152 184 t f b;
#X obj 193 184 s stopAll;
#X obj 439 54 inlet;
#X obj 586 862 outlet~;
#X obj 152 124 inlet;
#X obj 539 655 +~;
#N canvas 0 23 450 300 cosine 0;
#X obj 219 140 inlet~;
#X obj 225 260 outlet~;
#X obj 315 197 switch~;
#X obj 323 112 inlet;
#X obj 222 201 osc~;
#X msg 258 94 0;
#X msg 325 147 1;
#X obj 258 70 r stopAll;
#X connect 0 0 4 0;
#X connect 3 0 6 0;
#X connect 4 0 1 0;
#X connect 5 0 2 0;
#X connect 6 0 2 0;
#X connect 7 0 5 0;
#X restore 511 476 pd cosine;
#N canvas 0 22 450 300 sawtooth 0;
#X obj 212 191 phasor~;
#X obj 209 130 inlet~;
#X obj 215 250 outlet~;
#X obj 305 187 switch~;
#X obj 313 102 inlet;
#X msg 268 104 0;
#X msg 322 145 1;
#X obj 269 80 r stopAll;
#X connect 0 0 2 0;
#X connect 1 0 0 0;
#X connect 4 0 6 0;
#X connect 5 0 3 0;
#X connect 6 0 3 0;
#X connect 7 0 5 0;
#X restore 158 476 pd sawtooth;
#X obj 536 149 mtof;
#X obj 536 121 +;
#X obj 522 55 inlet;
#X obj 538 702 /~;
#X obj 439 102 f;
#X obj 522 83 t b f;
#X floatatom 687 72 5 0 0 0 - - -;
#X floatatom 686 94 5 0 0 0 - - -;
#X floatatom 685 115 5 0 0 0 - - -;
#X obj 152 214 sel 0 1 2 3;
#X obj 591 668 sig~ 2;
#X obj 369 476 detuned_sawtooths;
#X obj 785 476 detuned_sawtooths;
#N canvas 0 23 450 300 square 0;
#X obj 201 169 expr~ $v1 > 0.5;
#X obj 241 136 phasor~;
#X obj 238 89 inlet~;
#X obj 244 209 outlet~;
#X obj 334 146 switch~;
#X obj 342 61 inlet;
#X msg 272 32 0;
#X msg 340 98 1;
#X obj 273 8 r stopAll;
#X connect 0 0 3 0;
#X connect 1 0 0 0;
#X connect 2 0 1 0;
#X connect 5 0 7 0;
#X connect 6 0 4 0;
#X connect 7 0 4 0;
#X connect 8 0 6 0;
#X restore 909 82 pd square;
#X obj 245 476 seq_02_synth.cl;
#X obj 670 476 seq_02_synth.cl;
#X obj 957 269 bng 15 250 50 0 empty empty empty 17 7 0 10 -262144
-1 -1;
#X obj 957 394 line~;
#X obj 1021 352 pack 0 500;
#X obj 957 443 *~;
#X obj 957 492 *~;
#X obj 1021 309 del 25;
#X obj 1088 317 r release;
#X msg 957 353 1 15;
#X obj 1116 522 hsl 128 32 25 3000 0 0 empty empty Release 6 -8 0 10
-204786 -1 -1 2000 1;
#X obj 1113 434 loadbang;
#X obj 1113 584 s release;
#X msg 1113 473 500;
#X obj 1116 731 hsl 128 32 25 6000 0 0 empty empty Cutoff 6 -8 0 10
-204786 -1 -1 8200 1;
#X obj 1113 643 loadbang;
#X msg 1113 682 800;
#X obj 1113 793 s cutoff;
#X obj 1276 731 hsl 128 32 1 8 0 0 empty empty Resonance 6 -8 0 10
-204786 -1 -1 4700 1;
#X obj 1273 643 loadbang;
#X obj 1273 793 s resonance;
#X msg 1273 682 1;
#X connect 0 0 2 0;
#X connect 0 0 11 0;
#X connect 0 0 26 0;
#X connect 0 0 23 0;
#X connect 1 0 7 0;
#X connect 2 0 9 0;
#X connect 3 0 9 1;
#X connect 4 0 21 0;
#X connect 4 1 5 0;
#X connect 6 0 16 0;
#X connect 6 0 18 0;
#X connect 6 0 28 0;
#X connect 8 0 4 0;
#X connect 9 0 15 0;
#X connect 10 0 9 1;
#X connect 11 0 9 0;
#X connect 12 0 10 0;
#X connect 12 0 3 0;
#X connect 12 0 27 0;
#X connect 12 0 24 0;
#X connect 13 0 12 0;
#X connect 13 0 20 0;
#X connect 14 0 17 0;
#X connect 14 0 19 0;
#X connect 15 0 1 0;
#X connect 16 0 0 0;
#X connect 16 0 13 0;
#X connect 17 0 16 0;
#X connect 17 1 13 1;
#X connect 21 0 2 1;
#X connect 21 0 10 1;
#X connect 21 1 3 1;
#X connect 21 1 11 1;
#X connect 21 2 26 1;
#X connect 21 2 27 1;
#X connect 21 3 24 1;
#X connect 21 3 23 1;
#X connect 22 0 15 1;
#X connect 23 0 9 0;
#X connect 24 0 9 1;
#X connect 26 0 9 0;
#X connect 27 0 9 1;
#X connect 28 0 35 0;
#X connect 28 0 33 0;
#X connect 29 0 31 0;
#X connect 29 0 31 1;
#X connect 30 0 29 0;
#X connect 31 0 32 0;
#X connect 31 0 32 1;
#X connect 32 0 1 1;
#X connect 33 0 30 0;
#X connect 34 0 30 1;
#X connect 35 0 29 0;
#X connect 36 0 38 0;
#X connect 37 0 39 0;
#X connect 39 0 36 0;
#X connect 40 0 43 0;
#X connect 41 0 42 0;
#X connect 42 0 40 0;
#X connect 44 0 46 0;
#X connect 45 0 47 0;
#X connect 47 0 44 0;
