#N canvas 698 26 1164 935 12;
#X obj 439 168 mtof;
#X obj 585 789 *~;
#N canvas 0 23 450 300 cosine 0;
#X obj 219 140 inlet~;
#X obj 225 260 outlet~;
#X obj 315 197 switch~;
#X obj 323 112 inlet;
#X obj 222 201 osc~;
#X msg 258 94 0;
#X msg 325 147 1;
#X obj 258 70 r stopAll;
#X connect 0 0 4 0;
#X connect 3 0 6 0;
#X connect 4 0 1 0;
#X connect 5 0 2 0;
#X connect 6 0 2 0;
#X connect 7 0 5 0;
#X restore 32 476 pd cosine;
#X obj 152 184 t f b;
#X obj 193 184 s stopAll;
#X obj 439 54 inlet;
#X obj 586 862 outlet~;
#X obj 152 124 inlet;
#X obj 539 655 +~;
#N canvas 0 23 450 300 cosine 0;
#X obj 219 140 inlet~;
#X obj 225 260 outlet~;
#X obj 315 197 switch~;
#X obj 323 112 inlet;
#X obj 222 201 osc~;
#X msg 258 94 0;
#X msg 325 147 1;
#X obj 258 70 r stopAll;
#X connect 0 0 4 0;
#X connect 3 0 6 0;
#X connect 4 0 1 0;
#X connect 5 0 2 0;
#X connect 6 0 2 0;
#X connect 7 0 5 0;
#X restore 518 476 pd cosine;
#X obj 536 149 mtof;
#X obj 536 121 +;
#X obj 522 55 inlet;
#X obj 538 702 /~;
#X obj 439 102 f;
#X obj 522 83 t b f;
#X floatatom 687 72 5 0 0 0 - - -;
#X floatatom 686 94 5 0 0 0 - - -;
#X floatatom 685 115 5 0 0 0 - - -;
#X obj 152 214 sel 0 1 2 3;
#X obj 591 668 sig~ 2;
#X obj 369 476 detuned_sawtooths;
#X obj 855 476 detuned_sawtooths;
#N canvas 0 23 450 300 square 0;
#X obj 201 169 expr~ $v1 > 0.5;
#X obj 241 136 phasor~;
#X obj 238 89 inlet~;
#X obj 244 209 outlet~;
#X obj 334 146 switch~;
#X obj 342 61 inlet;
#X msg 272 32 0;
#X msg 340 98 1;
#X obj 273 8 r stopAll;
#X connect 0 0 3 0;
#X connect 1 0 0 0;
#X connect 2 0 1 0;
#X connect 5 0 7 0;
#X connect 6 0 4 0;
#X connect 7 0 4 0;
#X connect 8 0 6 0;
#X restore 909 82 pd square;
#X obj 245 476 seq_02_synth.cl;
#X obj 710 476 seq_02_synth.cl;
#X obj 1012 351 bng 15 250 50 0 empty empty empty 17 7 0 10 -262144
-1 -1;
#X obj 1012 476 line~;
#X obj 1076 434 pack 0 500;
#X obj 1011 525 *~;
#X obj 1007 571 *~;
#X obj 1076 391 del 25;
#X obj 1143 399 r release;
#X msg 1012 435 1 15;
#X obj 120 476 seq_03_synth.cl;
#X obj 593 476 seq_03_synth.cl;
#X obj 1237 168 hsl 128 32 25 3000 0 0 empty empty Release 6 -8 0 10
-204786 -1 -1 3200 1;
#X obj 1234 80 loadbang;
#X obj 1234 230 s release;
#X obj 1237 377 hsl 128 32 25 6000 0 0 empty empty Cutoff 6 -8 0 10
-204786 -1 -1 4000 1;
#X obj 1234 289 loadbang;
#X obj 1234 439 s cutoff;
#X obj 1397 377 hsl 128 32 1 8 0 0 empty empty Resonance 6 -8 0 10
-204786 -1 -1 2300 1;
#X obj 1394 289 loadbang;
#X obj 1394 439 s resonance;
#X msg 1394 328 1;
#X obj 1237 587 hsl 128 32 1 16 0 0 empty empty Harmonic_content 6
-8 0 10 -204786 -1 -1 6040 1;
#X obj 1234 499 loadbang;
#X obj 1397 587 hsl 128 32 1 8 0 0 empty empty Modulation 6 -8 0 10
-204786 -1 -1 1900 1;
#X obj 1394 499 loadbang;
#X msg 1394 538 1;
#X obj 1234 649 s harmon;
#X obj 1394 649 s mod;
#X msg 1234 119 1500;
#X msg 1234 328 5000;
#X msg 1234 538 4;
#X connect 0 0 2 0;
#X connect 0 0 24 0;
#X connect 0 0 21 0;
#X connect 0 0 34 0;
#X connect 1 0 6 0;
#X connect 2 0 8 0;
#X connect 3 0 19 0;
#X connect 3 1 4 0;
#X connect 5 0 14 0;
#X connect 5 0 16 0;
#X connect 5 0 26 0;
#X connect 7 0 3 0;
#X connect 8 0 13 0;
#X connect 9 0 8 1;
#X connect 10 0 9 0;
#X connect 10 0 25 0;
#X connect 10 0 22 0;
#X connect 10 0 35 0;
#X connect 11 0 10 0;
#X connect 11 0 18 0;
#X connect 12 0 15 0;
#X connect 12 0 17 0;
#X connect 13 0 1 0;
#X connect 14 0 0 0;
#X connect 14 0 11 0;
#X connect 15 0 14 0;
#X connect 15 1 11 1;
#X connect 19 0 2 1;
#X connect 19 0 9 1;
#X connect 19 1 35 1;
#X connect 19 1 34 1;
#X connect 19 2 24 1;
#X connect 19 2 25 1;
#X connect 19 3 22 1;
#X connect 19 3 21 1;
#X connect 20 0 13 1;
#X connect 21 0 8 0;
#X connect 22 0 8 1;
#X connect 24 0 8 0;
#X connect 25 0 8 1;
#X connect 26 0 33 0;
#X connect 26 0 31 0;
#X connect 27 0 29 0;
#X connect 27 0 29 1;
#X connect 28 0 27 0;
#X connect 29 0 30 0;
#X connect 29 0 30 1;
#X connect 30 0 1 1;
#X connect 31 0 28 0;
#X connect 32 0 28 1;
#X connect 33 0 27 0;
#X connect 34 0 8 0;
#X connect 35 0 8 1;
#X connect 36 0 38 0;
#X connect 37 0 53 0;
#X connect 39 0 41 0;
#X connect 40 0 54 0;
#X connect 42 0 44 0;
#X connect 43 0 45 0;
#X connect 45 0 42 0;
#X connect 46 0 51 0;
#X connect 47 0 55 0;
#X connect 48 0 52 0;
#X connect 49 0 50 0;
#X connect 50 0 48 0;
#X connect 53 0 36 0;
#X connect 54 0 39 0;
#X connect 55 0 46 0;
