#N canvas 682 3 1164 935 12;
#X obj 439 168 mtof;
#X obj 616 789 *~;
#X obj 152 184 t f b;
#X obj 193 184 s stopAll;
#X obj 439 54 inlet;
#X obj 617 862 outlet~;
#X obj 152 124 inlet;
#X obj 570 655 +~;
#X obj 536 149 mtof;
#X obj 536 121 +;
#X obj 522 55 inlet;
#X obj 569 702 /~;
#X obj 439 102 f;
#X obj 522 83 t b f;
#X floatatom 687 72 5 0 0 0 - - -;
#X floatatom 686 94 5 0 0 0 - - -;
#X floatatom 685 115 5 0 0 0 - - -;
#X obj 152 214 sel 0 1 2 3;
#X obj 622 668 sig~ 2;
#X obj 7 476 detuned_sawtooths;
#X obj 541 474 detuned_sawtooths;
#N canvas 0 23 450 300 square 0;
#X obj 201 169 expr~ $v1 > 0.5;
#X obj 241 136 phasor~;
#X obj 238 89 inlet~;
#X obj 244 209 outlet~;
#X obj 334 146 switch~;
#X obj 342 61 inlet;
#X msg 272 32 0;
#X msg 340 98 1;
#X obj 273 8 r stopAll;
#X connect 0 0 3 0;
#X connect 1 0 0 0;
#X connect 2 0 1 0;
#X connect 5 0 7 0;
#X connect 6 0 4 0;
#X connect 7 0 4 0;
#X connect 8 0 6 0;
#X restore 909 82 pd square;
#X obj 136 477 seq_02_synth.cl;
#X obj 671 475 seq_02_synth.cl;
#X obj 1043 351 bng 15 250 50 0 empty empty empty 17 7 0 10 -262144
-1 -1;
#X obj 1043 476 line~;
#X obj 1107 434 pack 0 500;
#X obj 1042 525 *~;
#X obj 1038 571 *~;
#X obj 1107 391 del 25;
#X obj 1174 399 r release;
#X msg 1043 435 1 15;
#X obj 252 477 seq_03_synth.cl;
#X obj 785 475 seq_03_synth.cl;
#X obj 1314 168 hsl 128 32 25 3000 0 0 empty empty Release 6 -8 0 10
-204786 -1 -1 2000 1;
#X obj 1311 80 loadbang;
#X obj 1311 230 s release;
#X obj 1314 377 hsl 128 32 25 6000 0 0 empty empty Cutoff 6 -8 0 10
-204786 -1 -1 8300 1;
#X obj 1311 289 loadbang;
#X obj 1311 439 s cutoff;
#X obj 1474 377 hsl 128 32 1 8 0 0 empty empty Resonance 6 -8 0 10
-204786 -1 -1 2200 1;
#X obj 1471 289 loadbang;
#X obj 1471 439 s resonance;
#X msg 1471 328 1;
#X obj 1314 587 hsl 128 32 1 16 0 0 empty empty Harmonic_content 6
-8 0 10 -204786 -1 -1 2440 1;
#X obj 1311 499 loadbang;
#X obj 1474 587 hsl 128 32 1 8 0 0 empty empty Modulation 6 -8 0 10
-204786 -1 -1 0 1;
#X obj 1471 499 loadbang;
#X msg 1471 538 1;
#X obj 1311 649 s harmon;
#X obj 1471 649 s mod;
#X msg 1311 119 1500;
#X msg 1311 328 5000;
#X msg 1311 538 4;
#N canvas 1290 148 574 693 seq_04_synth 0;
#X obj 318 61 inlet;
#X obj 289 508 outlet~;
#X obj 234 456 vcf~ 1;
#X obj 320 371 r cutoff;
#X obj 320 406 r resonance;
#X obj 318 165 expr 1000/$f1;
#X obj 51 242 noise~;
#X obj 102 279 *~;
#X obj 157 247 tgl 15 0 empty empty empty 17 7 0 10 -262144 -1 -1 1
1;
#X obj 125 133 t b b, f 10;
#X obj 125 102 bng 15 250 50 0 empty empty empty 17 7 0 10 -262144
-1 -1;
#X msg 125 207 0;
#X msg 192 207 1;
#X floatatom 319 223 5 0 0 0 - - -;
#X obj 263 256 delread4~ dly;
#X obj 94 508 delwrite~ dly 500;
#X obj 145 374 lop~ 5000;
#X obj 189 298 *~ 0.99;
#X obj 125 170 del 40;
#X obj 541 226 switch~;
#X obj 549 141 inlet;
#X msg 479 112 0;
#X msg 547 178 1;
#X obj 478 69 r stopAll;
#X connect 0 0 10 0;
#X connect 0 0 5 0;
#X connect 2 0 1 0;
#X connect 3 0 2 1;
#X connect 4 0 2 2;
#X connect 5 0 13 0;
#X connect 6 0 7 0;
#X connect 7 0 15 0;
#X connect 8 0 7 1;
#X connect 9 0 18 0;
#X connect 9 1 12 0;
#X connect 10 0 9 0;
#X connect 11 0 8 0;
#X connect 12 0 8 0;
#X connect 13 0 14 0;
#X connect 14 0 17 0;
#X connect 16 0 2 0;
#X connect 16 0 15 0;
#X connect 17 0 16 0;
#X connect 18 0 11 0;
#X connect 20 0 22 0;
#X connect 21 0 19 0;
#X connect 22 0 19 0;
#X connect 23 0 21 0;
#X restore 366 476 pd seq_04_synth;
#N canvas 0 23 450 300 cosine 0;
#X obj 219 140 inlet~;
#X obj 225 260 outlet~;
#X obj 315 197 switch~;
#X obj 323 112 inlet;
#X obj 222 201 osc~;
#X msg 258 94 0;
#X msg 325 147 1;
#X obj 258 70 r stopAll;
#X connect 0 0 4 0;
#X connect 3 0 6 0;
#X connect 4 0 1 0;
#X connect 5 0 2 0;
#X connect 6 0 2 0;
#X connect 7 0 5 0;
#X restore 911 112 pd cosine;
#N canvas 621 97 574 693 seq_04_synth 0;
#X obj 318 61 inlet;
#X obj 289 508 outlet~;
#X obj 234 456 vcf~ 1;
#X obj 320 371 r cutoff;
#X obj 320 406 r resonance;
#X obj 318 165 expr 1000/$f1;
#X obj 51 242 noise~;
#X obj 102 279 *~;
#X obj 157 247 tgl 15 0 empty empty empty 17 7 0 10 -262144 -1 -1 1
1;
#X obj 125 133 t b b, f 10;
#X obj 125 102 bng 15 250 50 0 empty empty empty 17 7 0 10 -262144
-1 -1;
#X msg 125 207 0;
#X msg 192 207 1;
#X floatatom 319 223 5 0 0 0 - - -;
#X obj 263 256 delread4~ dly;
#X obj 94 508 delwrite~ dly 500;
#X obj 145 374 lop~ 5000;
#X obj 189 298 *~ 0.99;
#X obj 125 170 del 40;
#X obj 541 226 switch~;
#X obj 549 141 inlet;
#X msg 479 112 0;
#X msg 547 178 1;
#X obj 478 69 r stopAll;
#X connect 0 0 10 0;
#X connect 0 0 5 0;
#X connect 2 0 1 0;
#X connect 3 0 2 1;
#X connect 4 0 2 2;
#X connect 5 0 13 0;
#X connect 6 0 7 0;
#X connect 7 0 15 0;
#X connect 8 0 7 1;
#X connect 9 0 18 0;
#X connect 9 1 12 0;
#X connect 10 0 9 0;
#X connect 11 0 8 0;
#X connect 12 0 8 0;
#X connect 13 0 14 0;
#X connect 14 0 17 0;
#X connect 16 0 2 0;
#X connect 16 0 15 0;
#X connect 17 0 16 0;
#X connect 18 0 11 0;
#X connect 20 0 22 0;
#X connect 21 0 19 0;
#X connect 22 0 19 0;
#X connect 23 0 21 0;
#X restore 899 475 pd seq_04_synth;
#X connect 0 0 22 0;
#X connect 0 0 19 0;
#X connect 0 0 32 0;
#X connect 0 0 54 0;
#X connect 1 0 5 0;
#X connect 2 0 17 0;
#X connect 2 1 3 0;
#X connect 4 0 12 0;
#X connect 4 0 14 0;
#X connect 4 0 24 0;
#X connect 6 0 2 0;
#X connect 7 0 11 0;
#X connect 8 0 23 0;
#X connect 8 0 20 0;
#X connect 8 0 33 0;
#X connect 8 0 56 0;
#X connect 9 0 8 0;
#X connect 9 0 16 0;
#X connect 10 0 13 0;
#X connect 10 0 15 0;
#X connect 11 0 1 0;
#X connect 12 0 0 0;
#X connect 12 0 9 0;
#X connect 13 0 12 0;
#X connect 13 1 9 1;
#X connect 17 0 19 1;
#X connect 17 0 20 1;
#X connect 17 1 22 1;
#X connect 17 1 23 1;
#X connect 17 2 32 1;
#X connect 17 2 33 1;
#X connect 17 3 54 1;
#X connect 17 3 56 1;
#X connect 18 0 11 1;
#X connect 19 0 7 0;
#X connect 20 0 7 1;
#X connect 22 0 7 0;
#X connect 23 0 7 1;
#X connect 24 0 31 0;
#X connect 24 0 29 0;
#X connect 25 0 27 0;
#X connect 25 0 27 1;
#X connect 26 0 25 0;
#X connect 27 0 28 0;
#X connect 27 0 28 1;
#X connect 28 0 1 1;
#X connect 29 0 26 0;
#X connect 30 0 26 1;
#X connect 31 0 25 0;
#X connect 32 0 7 0;
#X connect 33 0 7 1;
#X connect 34 0 36 0;
#X connect 35 0 51 0;
#X connect 37 0 39 0;
#X connect 38 0 52 0;
#X connect 40 0 42 0;
#X connect 41 0 43 0;
#X connect 43 0 40 0;
#X connect 44 0 49 0;
#X connect 45 0 53 0;
#X connect 46 0 50 0;
#X connect 47 0 48 0;
#X connect 48 0 46 0;
#X connect 51 0 34 0;
#X connect 52 0 37 0;
#X connect 53 0 44 0;
#X connect 54 0 7 0;
#X connect 56 0 7 1;
