#N canvas 718 341 1019 799 12;
#X obj 320 134 mtof;
#X obj 442 573 *~;
#N canvas 0 23 450 300 cosine 0;
#X obj 219 140 inlet~;
#X obj 225 260 outlet~;
#X obj 315 197 switch~;
#X obj 323 112 inlet;
#X obj 222 201 osc~;
#X msg 258 94 0;
#X msg 325 147 1;
#X obj 258 70 r stopAll;
#X connect 0 0 4 0;
#X connect 3 0 6 0;
#X connect 4 0 1 0;
#X connect 5 0 2 0;
#X connect 6 0 2 0;
#X connect 7 0 5 0;
#X restore 344 246 pd cosine;
#N canvas 0 22 450 300 sawtooth 0;
#X obj 212 191 phasor~;
#X obj 209 130 inlet~;
#X obj 215 250 outlet~;
#X obj 305 187 switch~;
#X obj 313 102 inlet;
#X msg 268 104 0;
#X msg 322 145 1;
#X obj 269 80 r stopAll;
#X connect 0 0 2 0;
#X connect 1 0 0 0;
#X connect 4 0 6 0;
#X connect 5 0 3 0;
#X connect 6 0 3 0;
#X connect 7 0 5 0;
#X restore 433 246 pd sawtooth;
#N canvas 0 23 450 300 square 0;
#X obj 201 169 expr~ $v1 > 0.5;
#X obj 241 136 phasor~;
#X obj 238 89 inlet~;
#X obj 244 209 outlet~;
#X obj 334 146 switch~;
#X obj 342 61 inlet;
#X msg 272 32 0;
#X msg 340 98 1;
#X obj 273 8 r stopAll;
#X connect 0 0 3 0;
#X connect 1 0 0 0;
#X connect 2 0 1 0;
#X connect 5 0 7 0;
#X connect 6 0 4 0;
#X connect 7 0 4 0;
#X connect 8 0 6 0;
#X restore 525 245 pd square;
#X obj 131 113 t f b;
#X obj 124 143 sel 0 1 2;
#X obj 172 113 s stopAll;
#X text 432 510 Env. Generator;
#X obj 598 329 vsl 15 128 0 400 0 0 empty empty empty 0 -9 0 10 -261682
-1 -1 1100 1;
#X obj 627 329 vsl 15 128 0 400 0 0 empty empty empty 0 -9 0 10 -261682
-1 -1 3900 1;
#X obj 656 329 vsl 15 128 0 400 0 0 empty empty empty 0 -9 0 10 -261682
-1 -1 6500 1;
#X obj 685 330 vsl 15 128 0 400 0 0 empty empty empty 0 -9 0 10 -261682
-1 -1 10700 1;
#X text 599 305 A;
#X text 627 305 D;
#X text 656 305 S;
#X text 686 304 R;
#X obj 320 53 inlet;
#X obj 443 646 outlet~;
#X obj 124 53 inlet;
#X obj 541 472 inlet;
#X obj 289 380 +~;
#N canvas 0 23 450 300 cosine 0;
#X obj 219 140 inlet~;
#X obj 225 260 outlet~;
#X obj 315 197 switch~;
#X obj 323 112 inlet;
#X obj 222 201 osc~;
#X msg 258 94 0;
#X msg 325 147 1;
#X obj 258 70 r stopAll;
#X connect 0 0 4 0;
#X connect 3 0 6 0;
#X connect 4 0 1 0;
#X connect 5 0 2 0;
#X connect 6 0 2 0;
#X connect 7 0 5 0;
#X restore 79 247 pd cosine;
#N canvas 0 22 450 300 sawtooth 0;
#X obj 212 191 phasor~;
#X obj 209 130 inlet~;
#X obj 215 250 outlet~;
#X obj 305 187 switch~;
#X obj 313 102 inlet;
#X msg 268 104 0;
#X msg 322 145 1;
#X obj 269 80 r stopAll;
#X connect 0 0 2 0;
#X connect 1 0 0 0;
#X connect 4 0 6 0;
#X connect 5 0 3 0;
#X connect 6 0 3 0;
#X connect 7 0 5 0;
#X restore 168 247 pd sawtooth;
#N canvas 0 23 450 300 square 0;
#X obj 201 169 expr~ $v1 > 0.5;
#X obj 241 136 phasor~;
#X obj 238 89 inlet~;
#X obj 244 209 outlet~;
#X obj 334 146 switch~;
#X obj 342 61 inlet;
#X msg 272 32 0;
#X msg 340 98 1;
#X obj 273 8 r stopAll;
#X connect 0 0 3 0;
#X connect 1 0 0 0;
#X connect 2 0 1 0;
#X connect 5 0 7 0;
#X connect 6 0 4 0;
#X connect 7 0 4 0;
#X connect 8 0 6 0;
#X restore 260 246 pd square;
#X obj 386 135 mtof;
#X obj 386 107 +;
#X obj 404 54 inlet;
#X obj 541 509 adsr 1 400 100 100 20;
#X connect 0 0 2 0;
#X connect 0 0 3 0;
#X connect 0 0 4 0;
#X connect 1 0 18 0;
#X connect 2 0 21 1;
#X connect 3 0 21 1;
#X connect 4 0 21 1;
#X connect 5 0 6 0;
#X connect 5 1 7 0;
#X connect 6 0 2 1;
#X connect 6 0 22 1;
#X connect 6 1 3 1;
#X connect 6 1 23 1;
#X connect 6 2 4 1;
#X connect 6 2 24 1;
#X connect 9 0 28 2;
#X connect 10 0 28 3;
#X connect 11 0 28 4;
#X connect 12 0 28 5;
#X connect 17 0 0 0;
#X connect 17 0 26 0;
#X connect 19 0 5 0;
#X connect 20 0 28 0;
#X connect 21 0 1 0;
#X connect 22 0 21 0;
#X connect 23 0 21 0;
#X connect 24 0 21 0;
#X connect 25 0 22 0;
#X connect 25 0 23 0;
#X connect 25 0 24 0;
#X connect 26 0 25 0;
#X connect 27 0 26 1;
#X connect 28 0 1 1;
