#N canvas 951 0 895 966 12;
#X obj 664 192 t f b;
#X obj 705 192 s stopAll;
#X obj 226 147 inlet;
#X obj 568 734 outlet~;
#X obj 664 132 inlet;
#X obj 570 655 +~;
#X obj 323 225 +;
#X obj 309 148 inlet;
#X obj 569 702 /~;
#X obj 226 206 f;
#X obj 309 187 t b f;
#X floatatom 215 69 5 0 0 0 - - -;
#X floatatom 275 68 5 0 0 0 - - -;
#X floatatom 331 68 5 0 0 0 - - -;
#X obj 664 222 sel 0 1 2 3;
#X obj 622 668 sig~ 2;
#X obj 671 475 seq_02_synth.cl;
#X obj 252 477 seq_03_synth.cl;
#X obj 1157 471 hsl 128 32 25 3000 0 0 empty empty Release 6 -8 0 10
-204786 -1 -1 6297 1;
#X obj 1154 383 loadbang;
#X obj 1154 533 s release;
#X obj 1370 476 hsl 128 32 25 6000 0 0 empty empty Cutoff 6 -8 0 10
-204786 -1 -1 10574 1;
#X obj 1367 388 loadbang;
#X obj 1544 477 hsl 128 32 1 8 0 0 empty empty Resonance 6 -8 0 10
-204786 -1 -1 0 1;
#X obj 1541 389 loadbang;
#X msg 1541 428 1;
#X obj 1700 479 hsl 128 32 1 16 0 0 empty empty Harmonic_content 6
-8 0 10 -204786 -1 -1 2540 1;
#X obj 1697 391 loadbang;
#X obj 1861 479 hsl 128 32 1 8 0 0 empty empty Modulation 6 -8 0 10
-204786 -1 -1 0 1;
#X obj 1858 391 loadbang;
#X msg 1858 430 1;
#X msg 1154 422 1500;
#X msg 1367 427 5000;
#X msg 1697 430 4;
#X obj 17 477 seq_01_synth.cl;
#X obj 366 476 seq_04_synth.cl;
#X obj 136 477 seq_02_synth.cl;
#X obj 541 474 seq_01_synth.cl;
#X obj 785 475 seq_03_synth.cl;
#X obj 899 475 seq_04_synth.cl;
#X obj 1358 150 r toggle0;
#X obj 1358 177 tgl 15 0 empty empty empty 17 7 0 10 -262144 -1 -1
1 1;
#X obj 1376 224 osc~;
#X obj 1376 198 nbx 4 20 0 1023 0 1 empty empty empty 0 -8 0 10 -262144
-1 -1 1 256;
#X obj 1375 279 *~;
#X obj 1393 251 nbx 6 20 0 100000 0 1 empty empty empty 0 -8 0 10 -262144
-1 -1 2800 256;
#X obj 1341 118 nbx 6 20 0 100000 0 1 empty empty empty 0 -8 0 10 -262144
-1 -1 3000 256;
#X obj 1341 353 +~;
#X obj 1342 536 s~ cutoff;
#X obj 1358 317 *~;
#X obj 1533 178 tgl 15 0 empty empty empty 17 7 0 10 -262144 -1 -1
1 1;
#X obj 1551 225 osc~;
#X obj 1551 199 nbx 4 20 0 1023 0 1 empty empty empty 0 -8 0 10 -262144
-1 -1 5 256;
#X obj 1550 280 *~;
#X obj 1568 252 nbx 6 20 0 100000 0 1 empty empty empty 0 -8 0 10 -262144
-1 -1 4 256;
#X obj 1516 119 nbx 6 20 0 100000 0 1 empty empty empty 0 -8 0 10 -262144
-1 -1 3.5 256;
#X obj 1516 354 +~;
#X obj 1533 318 *~;
#X obj 1694 182 tgl 15 0 empty empty empty 17 7 0 10 -262144 -1 -1
0 1;
#X obj 1712 229 osc~;
#X obj 1712 203 nbx 4 20 0 1023 0 1 empty empty empty 0 -8 0 10 -262144
-1 -1 1 256;
#X obj 1711 284 *~;
#X obj 1729 256 nbx 6 20 0 100000 0 1 empty empty empty 0 -8 0 10 -262144
-1 -1 8 256;
#X obj 1677 123 nbx 6 20 0 100000 0 1 empty empty empty 0 -8 0 10 -262144
-1 -1 7.5 256;
#X obj 1677 358 +~;
#X obj 1694 322 *~;
#X obj 1853 183 tgl 15 0 empty empty empty 17 7 0 10 -262144 -1 -1
0 1;
#X obj 1871 230 osc~;
#X obj 1871 203 nbx 4 20 0 1023 0 1 empty empty empty 0 -8 0 10 -262144
-1 -1 1 256;
#X obj 1870 285 *~;
#X obj 1888 257 nbx 6 20 0 100000 0 1 empty empty empty 0 -8 0 10 -262144
-1 -1 3.5 256;
#X obj 1836 124 nbx 6 20 0 100000 0 1 empty empty empty 0 -8 0 10 -262144
-1 -1 4 256;
#X obj 1836 359 +~;
#X obj 1853 323 *~;
#X obj 1517 539 s~ resonance;
#X obj 1676 541 s~ harmon;
#X obj 1836 541 s~ mod;
#X obj 1533 151 r toggle1;
#X obj 1694 155 r toggle2;
#X obj 1853 156 r toggle3;
#X connect 0 0 14 0;
#X connect 0 1 1 0;
#X connect 2 0 9 0;
#X connect 2 0 11 0;
#X connect 4 0 0 0;
#X connect 5 0 8 0;
#X connect 6 0 13 0;
#X connect 6 0 39 0;
#X connect 6 0 16 0;
#X connect 6 0 38 0;
#X connect 6 0 37 0;
#X connect 7 0 12 0;
#X connect 7 0 10 0;
#X connect 8 0 3 0;
#X connect 9 0 6 0;
#X connect 9 0 35 0;
#X connect 9 0 36 0;
#X connect 9 0 34 0;
#X connect 9 0 17 0;
#X connect 10 0 9 0;
#X connect 10 1 6 1;
#X connect 14 0 34 1;
#X connect 14 0 37 1;
#X connect 14 1 16 1;
#X connect 14 1 36 1;
#X connect 14 2 38 1;
#X connect 14 2 17 1;
#X connect 14 3 39 1;
#X connect 14 3 35 1;
#X connect 15 0 8 1;
#X connect 16 0 5 1;
#X connect 17 0 5 0;
#X connect 18 0 20 0;
#X connect 19 0 31 0;
#X connect 21 0 48 0;
#X connect 22 0 32 0;
#X connect 23 0 74 0;
#X connect 24 0 25 0;
#X connect 25 0 23 0;
#X connect 26 0 75 0;
#X connect 27 0 33 0;
#X connect 28 0 76 0;
#X connect 29 0 30 0;
#X connect 30 0 28 0;
#X connect 31 0 18 0;
#X connect 32 0 21 0;
#X connect 33 0 26 0;
#X connect 34 0 5 0;
#X connect 35 0 5 0;
#X connect 36 0 5 0;
#X connect 37 0 5 1;
#X connect 38 0 5 1;
#X connect 39 0 5 1;
#X connect 40 0 41 0;
#X connect 41 0 49 0;
#X connect 42 0 44 0;
#X connect 43 0 42 0;
#X connect 44 0 49 1;
#X connect 45 0 44 1;
#X connect 46 0 47 0;
#X connect 47 0 48 0;
#X connect 49 0 47 1;
#X connect 50 0 57 0;
#X connect 51 0 53 0;
#X connect 52 0 51 0;
#X connect 53 0 57 1;
#X connect 54 0 53 1;
#X connect 55 0 56 0;
#X connect 56 0 74 0;
#X connect 57 0 56 1;
#X connect 58 0 65 0;
#X connect 59 0 61 0;
#X connect 60 0 59 0;
#X connect 61 0 65 1;
#X connect 62 0 61 1;
#X connect 63 0 64 0;
#X connect 64 0 75 0;
#X connect 65 0 64 1;
#X connect 66 0 73 0;
#X connect 67 0 69 0;
#X connect 68 0 67 0;
#X connect 69 0 73 1;
#X connect 70 0 69 1;
#X connect 71 0 72 0;
#X connect 72 0 76 0;
#X connect 73 0 72 1;
#X connect 77 0 50 0;
#X connect 78 0 58 0;
#X connect 79 0 66 0;
