#N canvas 968 0 958 966 12;
#X obj 664 192 t f b;
#X obj 705 192 s stopAll;
#X obj 229 93 inlet;
#X obj 501 810 outlet~;
#X obj 664 132 inlet;
#X obj 502 773 +~;
#X obj 342 178 +;
#X obj 342 95 inlet;
#X obj 229 127 f;
#X floatatom 218 15 5 0 0 0 - - -;
#X floatatom 278 14 5 0 0 0 - - -;
#X floatatom 323 13 5 0 0 0 - - -;
#X obj 664 222 sel 0 1 2 3;
#X obj 731 475 seq_02_synth.cl;
#X obj 252 477 seq_03_synth.cl;
#X obj 163 1207 hsl 128 32 25 6000 0 0 empty empty Cutoff 6 -8 0 10
-204786 -1 -1 1647 1;
#X obj 197 1143 loadbang;
#X obj 1095 1215 hsl 128 32 1 8 0 0 empty empty Resonance 6 -8 0 10
-204786 -1 -1 0 1;
#X obj 1138 1153 loadbang;
#X msg 1138 1179 1;
#X obj 453 1704 hsl 128 32 1 16 0 0 empty empty Harmonic_content 6
-8 0 10 -204786 -1 -1 2540 1;
#X obj 503 1642 loadbang;
#X obj 1426 1708 hsl 128 32 1 8 0 0 empty empty Modulation 6 -8 0 10
-204786 -1 -1 0 1;
#X obj 1497 1634 loadbang;
#X msg 1497 1673 1;
#X msg 503 1667 4;
#X obj 17 477 seq_01_synth.cl;
#X obj 366 476 seq_04_synth.cl;
#X obj 136 477 seq_02_synth.cl;
#X obj 601 474 seq_01_synth.cl;
#X obj 845 475 seq_03_synth.cl;
#X obj 959 475 seq_04_synth.cl;
#X obj 236 952 r toggle0;
#X obj 236 979 tgl 15 0 empty empty empty 17 7 0 10 -262144 -1 -1 0
1;
#X obj 178 946 *~;
#X obj 196 918 nbx 6 20 0 100000 0 1 empty empty empty 0 -8 0 10 -262144
-1 -1 3000 256;
#X obj 161 830 nbx 6 20 0 100000 0 1 empty empty empty 0 -8 0 10 -262144
-1 -1 3300 256;
#X obj 161 981 +~;
#X obj 160 1106 snapshot~;
#X obj 197 1057 spigot;
#X obj 1168 988 tgl 15 0 empty empty empty 17 7 0 10 -262144 -1 -1
0 1;
#X obj 1110 955 *~;
#X obj 1128 927 nbx 6 20 0 100000 0 1 empty empty empty 0 -8 0 10 -262144
-1 -1 4 256;
#X obj 1093 839 nbx 6 20 0 100000 0 1 empty empty empty 0 -8 0 10 -262144
-1 -1 5 256;
#X obj 1093 990 +~;
#X obj 1092 1115 snapshot~;
#X obj 1129 1066 spigot;
#X obj 468 1443 *~;
#X obj 486 1415 nbx 6 20 0 100000 0 1 empty empty empty 0 -8 0 10 -262144
-1 -1 2 256;
#X obj 451 1327 nbx 6 20 0 100000 0 1 empty empty empty 0 -8 0 10 -262144
-1 -1 8.5 256;
#X obj 451 1478 +~;
#X obj 450 1602 snapshot~;
#X obj 1441 1448 *~;
#X obj 1459 1420 nbx 6 20 0 100000 0 1 empty empty empty 0 -8 0 10
-262144 -1 -1 2 256;
#X obj 1424 1332 nbx 6 20 0 100000 0 1 empty empty empty 0 -8 0 10
-262144 -1 -1 4.5 256;
#X obj 1424 1483 +~;
#X obj 1423 1610 snapshot~;
#X obj 1168 961 r toggle1;
#X obj 160 1267 s cutoff;
#X obj 1092 1277 s resonance;
#X obj 1423 1770 s mod;
#X obj 555 112 r crossfade;
#X obj 473 710 *~;
#X obj 537 711 *~;
#X obj 490 167 -~;
#X floatatom 584 165 5 0 0 0 - - -;
#X obj 489 125 sig~;
#X obj 489 85 nbx 6 20 0 100000 0 1 empty empty empty 0 -8 0 10 -262144
-1 -1 1 256;
#X obj 489 58 loadbang;
#X obj 197 1029 bng 15 250 50 0 empty empty empty 17 7 0 10 -262144
-1 -1;
#X obj 197 1004 metro 10;
#X obj 1129 1040 bng 15 250 50 0 empty empty empty 17 7 0 10 -262144
-1 -1;
#X obj 1129 1015 metro 10;
#X obj 653 923 hsl 128 32 0 3000 0 0 empty empty Release 6 -8 0 10
-204786 -1 -1 4233 1;
#X obj 687 859 loadbang;
#X obj 650 825 r release1;
#X obj 650 983 s release;
#X msg 687 884 1000;
#X obj 303 1704 hsl 128 32 0 1000 0 0 empty empty Ring 6 -8 0 10 -204786
-1 -1 0 1;
#X obj 355 1649 loadbang;
#X obj 1288 1708 hsl 128 32 1 1000 1 0 empty empty Fuzz 6 -8 0 10 -204786
-1 -1 0 1;
#X obj 1315 1648 loadbang;
#X msg 1315 1675 1;
#X obj 1285 1770 s fuzz;
#X obj 300 1766 s ring;
#X obj 318 1440 *~;
#X obj 336 1412 nbx 6 20 0 100000 0 1 empty empty empty 0 -8 0 10 -262144
-1 -1 500 256;
#X obj 301 1324 nbx 6 20 0 100000 0 1 empty empty empty 0 -8 0 10 -262144
-1 -1 500 256;
#X obj 301 1475 +~;
#X obj 300 1605 snapshot~;
#X obj 337 1526 bng 15 250 50 0 empty empty empty 17 7 0 10 -262144
-1 -1;
#X obj 1303 1449 *~;
#X obj 1321 1421 nbx 6 20 0 100000 0 1 empty empty empty 0 -8 0 10
-262144 -1 -1 30 256;
#X obj 1286 1333 nbx 6 20 0 100000 0 1 empty empty empty 0 -8 0 10
-262144 -1 -1 32 256;
#X obj 1286 1484 +~;
#X obj 1285 1611 snapshot~;
#X obj 1302 1395 osc~;
#X obj 1302 1367 nbx 4 20 0 1023 0 1 empty empty empty 0 -8 0 10 -262144
-1 -1 1 256;
#X obj 1440 1389 osc~;
#X obj 1440 1361 nbx 4 20 0 1023 0 1 empty empty empty 0 -8 0 10 -262144
-1 -1 1 256;
#X obj 467 1385 osc~;
#X obj 467 1357 nbx 4 20 0 1023 0 1 empty empty empty 0 -8 0 10 -262144
-1 -1 1 256;
#X obj 319 1384 osc~;
#X obj 319 1356 nbx 4 20 0 1023 0 1 empty empty empty 0 -8 0 10 -262144
-1 -1 1 256;
#X obj 1110 901 osc~;
#X obj 1110 873 nbx 4 20 0 1023 0 1 empty empty empty 0 -8 0 10 -262144
-1 -1 1 256;
#X obj 179 894 osc~;
#X obj 179 866 nbx 4 20 0 1023 0 1 empty empty empty 0 -8 0 10 -262144
-1 -1 1 256;
#X obj 596 1703 hsl 128 32 1 16 0 0 empty empty Chorus 6 -8 0 10 -204786
-1 -1 2540 1;
#X obj 646 1641 loadbang;
#X msg 646 1666 4;
#X obj 669 1471 tgl 15 0 empty empty empty 17 7 0 10 -262144 -1 -1
0 1;
#X obj 611 1442 *~;
#X obj 629 1414 nbx 6 20 0 100000 0 1 empty empty empty 0 -8 0 10 -262144
-1 -1 1 256;
#X obj 594 1326 nbx 6 20 0 100000 0 1 empty empty empty 0 -8 0 10 -262144
-1 -1 10 256;
#X obj 594 1477 +~;
#X obj 669 1444 r toggle2;
#X obj 610 1384 osc~;
#X obj 610 1356 nbx 4 20 0 1023 0 1 empty empty empty 0 -8 0 10 -262144
-1 -1 2 256;
#X obj 593 1745 sig~;
#X obj 593 1774 s~ chorus;
#X obj 669 1515 line~;
#X obj 595 1605 *~;
#X msg 669 1491 \$1 100;
#X msg 355 1675 0;
#X obj 1568 1709 hsl 128 32 1 16 0 0 empty empty Flanger 6 -8 0 10
-204786 -1 -1 2540 1;
#X obj 1618 1647 loadbang;
#X msg 1618 1672 4;
#X obj 1641 1477 tgl 15 0 empty empty empty 17 7 0 10 -262144 -1 -1
0 1;
#X obj 1583 1448 *~;
#X obj 1601 1420 nbx 6 20 0 100000 0 1 empty empty empty 0 -8 0 10
-262144 -1 -1 10 256;
#X obj 1566 1332 nbx 6 20 0 100000 0 1 empty empty empty 0 -8 0 10
-262144 -1 -1 6 256;
#X obj 1566 1483 +~;
#X obj 1582 1362 nbx 4 20 0 1023 0 1 empty empty empty 0 -8 0 10 -262144
-1 -1 2 256;
#X obj 1565 1751 sig~;
#X obj 1641 1521 line~;
#X obj 1567 1611 *~;
#X msg 1641 1497 \$1 100;
#X obj 1565 1780 s~ flanger;
#X obj 1641 1450 r toggle3;
#X obj 1582 1390 osc~;
#X floatatom 1356 1748 5 0 0 0 - - -;
#X msg 197 1168 800;
#X floatatom 1031 1172 5 0 0 0 - - -;
#X floatatom 1239 1654 5 0 0 0 - - -;
#X obj 160 1703 hsl 128 32 0 1200 0 0 empty empty LFO_freq 6 -8 0 10
-204786 -1 -1 1 1;
#X obj 212 1648 loadbang;
#X obj 233 1470 tgl 15 0 empty empty empty 17 7 0 10 -262144 -1 -1
0 1;
#X obj 175 1439 *~;
#X obj 193 1411 nbx 6 20 0 100000 0 1 empty empty empty 0 -8 0 10 -262144
-1 -1 600 256;
#X obj 158 1323 nbx 6 20 0 100000 0 1 empty empty empty 0 -8 0 10 -262144
-1 -1 600.1 256;
#X obj 158 1474 +~;
#X obj 157 1604 snapshot~;
#X obj 194 1555 spigot;
#X obj 233 1443 r toggle2;
#X obj 194 1525 bng 15 250 50 0 empty empty empty 17 7 0 10 -262144
-1 -1;
#X obj 194 1500 metro 10;
#X obj 176 1383 osc~;
#X obj 176 1355 nbx 4 20 0 1023 0 1 empty empty empty 0 -8 0 10 -262144
-1 -1 1 256;
#X msg 212 1674 0.1;
#X obj 157 1765 s LFOfreq;
#X obj 1099 1709 hsl 128 32 1 1000 1 0 empty empty LFO_gain 6 -8 0
10 -204786 -1 -1 0 1;
#X obj 1126 1649 loadbang;
#X msg 1126 1676 1;
#X obj 1150 1483 tgl 15 0 empty empty empty 17 7 0 10 -262144 -1 -1
0 1;
#X obj 1114 1450 *~;
#X obj 1132 1422 nbx 6 20 0 100000 0 1 empty empty empty 0 -8 0 10
-262144 -1 -1 500 256;
#X obj 1097 1334 nbx 6 20 0 100000 0 1 empty empty empty 0 -8 0 10
-262144 -1 -1 500 256;
#X obj 1097 1485 +~;
#X obj 1096 1612 snapshot~;
#X obj 1111 1567 spigot;
#X obj 1150 1456 r toggle3;
#X obj 1111 1541 bng 15 250 50 0 empty empty empty 17 7 0 10 -262144
-1 -1;
#X obj 1111 1517 metro 10;
#X obj 1113 1396 osc~;
#X obj 1113 1368 nbx 4 20 0 1023 0 1 empty empty empty 0 -8 0 10 -262144
-1 -1 1 256;
#X floatatom 1167 1749 5 0 0 0 - - -;
#X obj 1096 1771 s LFOgain;
#X obj 815 1705 hsl 128 32 1 16 0 0 empty empty Harmonic_content 6
-8 0 10 -204786 -1 -1 10160 1;
#X obj 865 1643 loadbang;
#X msg 865 1668 4;
#X obj 812 1767 s harmon;
#X obj 812 1622 r LDR4;
#X connect 0 0 12 0;
#X connect 0 1 1 0;
#X connect 2 0 8 0;
#X connect 4 0 0 0;
#X connect 5 0 3 0;
#X connect 6 0 11 0;
#X connect 6 0 29 0;
#X connect 6 0 13 0;
#X connect 6 0 31 0;
#X connect 6 0 30 0;
#X connect 7 0 10 0;
#X connect 7 0 6 0;
#X connect 8 0 14 0;
#X connect 8 0 28 0;
#X connect 8 0 27 0;
#X connect 8 0 26 0;
#X connect 8 0 9 0;
#X connect 8 0 6 1;
#X connect 12 0 29 1;
#X connect 12 0 26 1;
#X connect 12 1 13 1;
#X connect 12 1 28 1;
#X connect 12 2 14 1;
#X connect 12 2 30 1;
#X connect 12 3 27 1;
#X connect 12 3 31 1;
#X connect 13 0 63 0;
#X connect 14 0 62 0;
#X connect 15 0 58 0;
#X connect 16 0 142 0;
#X connect 17 0 59 0;
#X connect 18 0 19 0;
#X connect 19 0 17 0;
#X connect 21 0 25 0;
#X connect 22 0 60 0;
#X connect 23 0 24 0;
#X connect 24 0 22 0;
#X connect 25 0 20 0;
#X connect 26 0 62 0;
#X connect 27 0 62 0;
#X connect 28 0 62 0;
#X connect 29 0 63 0;
#X connect 30 0 63 0;
#X connect 31 0 63 0;
#X connect 32 0 33 0;
#X connect 33 0 39 1;
#X connect 33 0 70 0;
#X connect 33 0 142 0;
#X connect 34 0 37 1;
#X connect 35 0 34 1;
#X connect 36 0 37 0;
#X connect 37 0 38 0;
#X connect 38 0 15 0;
#X connect 39 0 38 0;
#X connect 40 0 46 1;
#X connect 40 0 72 0;
#X connect 40 0 19 0;
#X connect 41 0 44 1;
#X connect 42 0 41 1;
#X connect 43 0 44 0;
#X connect 44 0 45 0;
#X connect 45 0 17 0;
#X connect 45 0 143 0;
#X connect 46 0 45 0;
#X connect 47 0 50 1;
#X connect 48 0 47 1;
#X connect 49 0 50 0;
#X connect 50 0 51 0;
#X connect 51 0 20 0;
#X connect 52 0 55 1;
#X connect 53 0 52 1;
#X connect 54 0 55 0;
#X connect 55 0 56 0;
#X connect 56 0 22 0;
#X connect 57 0 40 0;
#X connect 61 0 65 0;
#X connect 61 0 64 1;
#X connect 61 0 63 1;
#X connect 62 0 5 0;
#X connect 63 0 5 1;
#X connect 64 0 62 1;
#X connect 66 0 64 0;
#X connect 67 0 66 0;
#X connect 68 0 67 0;
#X connect 69 0 39 0;
#X connect 70 0 69 0;
#X connect 71 0 46 0;
#X connect 72 0 71 0;
#X connect 73 0 76 0;
#X connect 74 0 77 0;
#X connect 75 0 73 0;
#X connect 77 0 73 0;
#X connect 78 0 84 0;
#X connect 79 0 124 0;
#X connect 80 0 83 0;
#X connect 80 0 141 0;
#X connect 81 0 82 0;
#X connect 82 0 80 0;
#X connect 85 0 88 1;
#X connect 86 0 85 1;
#X connect 87 0 88 0;
#X connect 88 0 89 0;
#X connect 89 0 78 0;
#X connect 91 0 94 1;
#X connect 92 0 91 1;
#X connect 93 0 94 0;
#X connect 94 0 95 0;
#X connect 95 0 80 0;
#X connect 95 0 144 0;
#X connect 96 0 91 0;
#X connect 97 0 96 0;
#X connect 98 0 52 0;
#X connect 99 0 98 0;
#X connect 100 0 47 0;
#X connect 101 0 100 0;
#X connect 102 0 85 0;
#X connect 103 0 102 0;
#X connect 104 0 41 0;
#X connect 105 0 104 0;
#X connect 106 0 34 0;
#X connect 107 0 106 0;
#X connect 108 0 119 0;
#X connect 109 0 110 0;
#X connect 110 0 108 0;
#X connect 111 0 123 0;
#X connect 111 0 110 0;
#X connect 112 0 115 1;
#X connect 113 0 112 1;
#X connect 114 0 115 0;
#X connect 115 0 122 0;
#X connect 116 0 111 0;
#X connect 117 0 112 0;
#X connect 118 0 117 0;
#X connect 121 0 122 1;
#X connect 122 0 120 0;
#X connect 123 0 121 0;
#X connect 124 0 78 0;
#X connect 125 0 134 0;
#X connect 126 0 127 0;
#X connect 127 0 125 0;
#X connect 128 0 137 0;
#X connect 128 0 127 0;
#X connect 129 0 132 1;
#X connect 130 0 129 1;
#X connect 131 0 132 0;
#X connect 132 0 136 0;
#X connect 133 0 140 0;
#X connect 135 0 136 1;
#X connect 136 0 138 0;
#X connect 137 0 135 0;
#X connect 139 0 128 0;
#X connect 140 0 129 0;
#X connect 142 0 15 0;
#X connect 145 0 160 0;
#X connect 146 0 159 0;
#X connect 147 0 153 1;
#X connect 147 0 156 0;
#X connect 147 0 159 0;
#X connect 147 0 124 0;
#X connect 147 0 25 0;
#X connect 148 0 151 1;
#X connect 149 0 148 1;
#X connect 150 0 151 0;
#X connect 151 0 152 0;
#X connect 152 0 145 0;
#X connect 153 0 152 0;
#X connect 153 0 89 0;
#X connect 153 0 51 0;
#X connect 154 0 147 0;
#X connect 155 0 153 0;
#X connect 156 0 155 0;
#X connect 157 0 148 0;
#X connect 158 0 157 0;
#X connect 159 0 145 0;
#X connect 161 0 176 0;
#X connect 161 0 177 0;
#X connect 162 0 163 0;
#X connect 163 0 161 0;
#X connect 164 0 170 1;
#X connect 164 0 173 0;
#X connect 164 0 163 0;
#X connect 164 0 82 0;
#X connect 164 0 24 0;
#X connect 165 0 168 1;
#X connect 166 0 165 1;
#X connect 167 0 168 0;
#X connect 168 0 169 0;
#X connect 169 0 161 0;
#X connect 170 0 169 0;
#X connect 170 0 95 0;
#X connect 170 0 56 0;
#X connect 171 0 164 0;
#X connect 172 0 170 0;
#X connect 173 0 172 0;
#X connect 174 0 165 0;
#X connect 175 0 174 0;
#X connect 178 0 181 0;
#X connect 179 0 180 0;
#X connect 180 0 178 0;
#X connect 182 0 178 0;
