#N canvas 229 81 1054 524 12;
#X obj 320 134 mtof;
#X obj 335 514 *~;
#N canvas 0 23 450 300 cosine 0;
#X obj 219 140 inlet~;
#X obj 225 260 outlet~;
#X obj 315 197 switch~;
#X obj 323 112 inlet;
#X obj 222 201 osc~;
#X msg 258 94 0;
#X msg 325 147 1;
#X obj 258 70 r stopAll;
#X connect 0 0 4 0;
#X connect 3 0 6 0;
#X connect 4 0 1 0;
#X connect 5 0 2 0;
#X connect 6 0 2 0;
#X connect 7 0 5 0;
#X restore 417 250 pd cosine;
#N canvas 0 22 450 300 sawtooth 0;
#X obj 212 191 phasor~;
#X obj 209 130 inlet~;
#X obj 215 250 outlet~;
#X obj 305 187 switch~;
#X obj 313 102 inlet;
#X msg 268 104 0;
#X msg 322 145 1;
#X obj 269 80 r stopAll;
#X connect 0 0 2 0;
#X connect 1 0 0 0;
#X connect 4 0 6 0;
#X connect 5 0 3 0;
#X connect 6 0 3 0;
#X connect 7 0 5 0;
#X restore 506 250 pd sawtooth;
#N canvas 0 23 450 300 square 0;
#X obj 201 169 expr~ $v1 > 0.5;
#X obj 241 136 phasor~;
#X obj 238 89 inlet~;
#X obj 244 209 outlet~;
#X obj 334 146 switch~;
#X obj 342 61 inlet;
#X msg 272 32 0;
#X msg 340 98 1;
#X obj 273 8 r stopAll;
#X connect 0 0 3 0;
#X connect 1 0 0 0;
#X connect 2 0 1 0;
#X connect 5 0 7 0;
#X connect 6 0 4 0;
#X connect 7 0 4 0;
#X connect 8 0 6 0;
#X restore 606 249 pd square;
#X obj 124 113 t f b;
#X obj 165 113 s stopAll;
#X obj 320 20 inlet;
#X obj 336 587 outlet~;
#X obj 124 53 inlet;
#X obj 289 380 +~;
#N canvas 0 23 450 300 cosine 0;
#X obj 219 140 inlet~;
#X obj 225 260 outlet~;
#X obj 315 197 switch~;
#X obj 323 112 inlet;
#X obj 222 201 osc~;
#X msg 258 94 0;
#X msg 325 147 1;
#X obj 258 70 r stopAll;
#X connect 0 0 4 0;
#X connect 3 0 6 0;
#X connect 4 0 1 0;
#X connect 5 0 2 0;
#X connect 6 0 2 0;
#X connect 7 0 5 0;
#X restore -55 250 pd cosine;
#N canvas 0 22 450 300 sawtooth 0;
#X obj 212 191 phasor~;
#X obj 209 130 inlet~;
#X obj 215 250 outlet~;
#X obj 305 187 switch~;
#X obj 313 102 inlet;
#X msg 268 104 0;
#X msg 322 145 1;
#X obj 269 80 r stopAll;
#X connect 0 0 2 0;
#X connect 1 0 0 0;
#X connect 4 0 6 0;
#X connect 5 0 3 0;
#X connect 6 0 3 0;
#X connect 7 0 5 0;
#X restore 34 250 pd sawtooth;
#N canvas 0 23 450 300 square 0;
#X obj 201 169 expr~ $v1 > 0.5;
#X obj 241 136 phasor~;
#X obj 238 89 inlet~;
#X obj 244 209 outlet~;
#X obj 334 146 switch~;
#X obj 342 61 inlet;
#X msg 272 32 0;
#X msg 340 98 1;
#X obj 273 8 r stopAll;
#X connect 0 0 3 0;
#X connect 1 0 0 0;
#X connect 2 0 1 0;
#X connect 5 0 7 0;
#X connect 6 0 4 0;
#X connect 7 0 4 0;
#X connect 8 0 6 0;
#X restore 126 249 pd square;
#X obj 417 115 mtof;
#X obj 417 87 +;
#X obj 403 21 inlet;
#X obj 483 436 vline~;
#X obj 845 281 vline~;
#X obj 866 27 vsl 15 128 20 500 0 0 empty empty empty 0 -9 0 10 -261682
-1 -1 0 1;
#X obj 892 28 vsl 15 128 0 5000 0 0 empty empty empty 0 -9 0 10 -261682
-1 -1 0 1;
#X obj 916 27 vsl 15 128 0 1 0 0 empty empty empty 0 -9 0 10 -261682
-1 -1 0 1;
#X obj 940 28 vsl 15 128 0 500 0 0 empty empty empty 0 -9 0 10 -261682
-1 -1 0 1;
#X text 869 3 A;
#X text 892 3 D;
#X text 916 3 S;
#X text 941 2 R;
#X obj 845 209 pack f f f f f;
#X msg 845 250 1 \$2 \, \$4 \$3 \$2 \, 0 \$5 1000;
#X obj 288 427 /~;
#X obj 333 377 nbx 4 20 0 1023 0 1 empty empty empty 0 -8 0 10 -262144
-1 -1 2 256;
#X obj 320 68 f;
#X obj 403 49 t b f;
#X msg 483 412 1 30 \, 0 200 30 \, 0 0 1000;
#X floatatom 568 38 5 0 0 0 - - -;
#X floatatom 567 60 5 0 0 0 - - -;
#X floatatom 566 81 5 0 0 0 - - -;
#X obj 124 143 sel 0 1 2 3;
#X obj 693 250 detuned_sawtooths 1;
#X obj 211 248 detuned_sawtooths 2;
#X connect 0 0 2 0;
#X connect 0 0 3 0;
#X connect 0 0 4 0;
#X connect 0 0 38 0;
#X connect 0 0 39 0;
#X connect 1 0 8 0;
#X connect 2 0 10 1;
#X connect 3 0 10 1;
#X connect 4 0 10 1;
#X connect 5 0 37 0;
#X connect 5 1 6 0;
#X connect 7 0 33 0;
#X connect 7 0 31 0;
#X connect 7 0 34 0;
#X connect 7 0 38 1;
#X connect 7 0 39 1;
#X connect 9 0 5 0;
#X connect 10 0 29 0;
#X connect 11 0 10 0;
#X connect 12 0 10 0;
#X connect 13 0 10 0;
#X connect 14 0 11 0;
#X connect 14 0 12 0;
#X connect 14 0 13 0;
#X connect 15 0 14 0;
#X connect 15 0 36 0;
#X connect 16 0 32 0;
#X connect 16 0 35 0;
#X connect 17 0 1 1;
#X connect 19 0 27 1;
#X connect 20 0 27 2;
#X connect 21 0 27 3;
#X connect 22 0 27 4;
#X connect 27 0 28 0;
#X connect 28 0 18 0;
#X connect 29 0 1 0;
#X connect 30 0 29 1;
#X connect 31 0 0 0;
#X connect 31 0 15 0;
#X connect 32 0 31 0;
#X connect 32 1 15 1;
#X connect 33 0 17 0;
#X connect 37 0 2 1;
#X connect 37 0 11 1;
#X connect 37 1 3 1;
#X connect 37 1 12 1;
#X connect 37 2 4 1;
#X connect 37 2 13 1;
#X connect 37 3 38 2;
#X connect 37 3 39 2;
#X connect 38 0 10 1;
#X connect 39 0 10 0;
