#N canvas 0 36 1280 721 12;
#X obj 31 1036 select 0 1 2 3 4 5 6 7;
#X obj 768 1060 vsl 15 128 0 12 0 0 empty empty empty 0 -9 0 10 -4034
-1 -1 0 1;
#X obj 800 1061 vsl 15 128 0 12 0 0 empty empty empty 0 -9 0 10 -4034
-1 -1 0 1;
#X obj 830 1061 vsl 15 128 0 12 0 0 empty empty empty 0 -9 0 10 -4034
-1 -1 0 1;
#X obj 861 1061 vsl 15 128 0 12 0 0 empty empty empty 0 -9 0 10 -4034
-1 -1 0 1;
#X obj 892 1061 vsl 15 128 0 12 0 0 empty empty empty 0 -9 0 10 -4034
-1 -1 0 1;
#X obj 923 1060 vsl 15 128 0 12 0 0 empty empty empty 0 -9 0 10 -4034
-1 -1 0 1;
#X obj 952 1061 vsl 15 128 0 12 0 0 empty empty empty 0 -9 0 10 -4034
-1 -1 0 1;
#X obj 982 1062 vsl 15 128 0 12 0 0 empty empty empty 0 -9 0 10 -4034
-1 -1 0 1;
#X obj 1155 1476 *~;
#X obj 1447 1203 vsl 15 128 0 1 0 0 empty empty empty 0 -9 0 10 -258113
-1 -1 0 1;
#X msg 1445 1364 \$1 100;
#X obj 1445 1401 line~;
#X text 1395 1213 Volume;
#X floatatom 1863 759 5 0 0 0 - - -;
#X obj 1708 175 route smc8;
#X obj 515 698 *;
#X obj 403 515 bng 15 250 50 0 empty empty empty 17 7 0 10 -262144
-1 -1;
#X obj 457 583 t b f;
#X obj 427 583 f;
#X obj 446 611 /;
#X obj 515 727 i;
#X obj 618 700 *;
#X obj 618 729 i;
#X obj 716 698 *;
#X obj 716 727 i;
#X obj 818 697 *;
#X obj 818 726 i;
#X obj 920 694 *;
#X obj 920 723 i;
#X obj 1020 694 *;
#X obj 1020 723 i;
#X obj 1121 692 *;
#X obj 1121 721 i;
#X obj 1219 690 *;
#X obj 1219 719 i;
#X obj 1667 471 bng 15 250 50 0 empty empty empty 17 7 0 10 -262144
-1 -1;
#X obj 1655 534 t b f;
#X obj 1625 534 f;
#X obj 1644 562 /;
#X obj 1600 611 *;
#X floatatom 1467 1108 5 0 0 0 - - -;
#X obj 1600 640 f;
#X obj 416 548 nbx 3 20 0 400 0 1 empty empty empty 0 -8 0 10 -262144
-1 -1 13 256;
#X obj 465 549 nbx 4 20 0 1023 0 1 empty empty empty 0 -8 0 10 -262144
-1 -1 1023 256;
#X obj 1622 497 nbx 4 20 0 1023 0 1 empty empty empty 0 -8 0 10 -262144
-1 -1 1 256;
#X obj 1681 507 nbx 4 20 0 1023 0 1 empty empty empty 0 -8 0 10 -262144
-1 -1 1023 256;
#X obj 1846 453 bng 15 250 50 0 empty empty empty 17 7 0 10 -262144
-1 -1;
#X obj 1879 523 t b f;
#X obj 1849 523 f;
#X obj 1868 551 /;
#X obj 1798 594 *;
#X obj 1798 623 i;
#X obj 1877 487 nbx 4 20 0 1023 0 1 empty empty empty 0 -8 0 10 -262144
-1 -1 1023 256;
#X obj 1823 484 nbx 4 20 0 1023 0 1 empty empty empty 0 -8 0 10 -262144
-1 -1 6 256;
#X obj 1798 662 route 0 1 2 3 4 5 6;
#X msg 1740 710 -12;
#X msg 1779 709 -7;
#X msg 1820 709 -3;
#X msg 1855 709 0;
#X msg 1893 709 3;
#X msg 1929 710 7;
#X msg 1966 710 12;
#X obj 1794 412 route Knob5;
#X obj 752 1254 i;
#X obj 782 1254 i;
#X obj 812 1254 i;
#X obj 843 1254 i;
#X obj 874 1254 i;
#X obj 904 1254 i;
#X obj 933 1254 i;
#X obj 964 1254 i;
#X obj 953 1301 drum_synth 1;
#X obj 333 1404 drum_synth 2;
#X obj 1139 1445 +~;
#X obj 527 1420 *~;
#X obj 548 1306 change;
#X obj 548 1333 sel 1;
#X obj 547 1364 f 0;
#X obj 598 1364 == 0;
#X floatatom 546 1392 5 0 0 0 - - -;
#X obj 547 1262 tgl 15 0 empty empty empty 17 7 0 10 -262144 -1 -1
0 1;
#X obj 544 1224 bng 15 250 50 0 empty empty empty 17 7 0 10 -262144
-1 -1;
#X obj 1549 342 route Button0;
#X obj 516 484 route Slider0;
#X obj 615 483 route Slider1;
#X obj 716 483 route Slider2;
#X obj 823 484 route Slider3;
#X obj 928 485 route Slider4;
#X obj 1044 484 route Slider5;
#X obj 1150 486 route Slider6;
#X obj 1260 484 route Slider7;
#X obj 1607 417 route Knob1;
#X obj 22 935 inlet;
#X obj 31 1256 nbx 3 20 0 400 0 1 empty empty empty 0 -8 0 10 -262144
-1 -1 2 256;
#X obj 82 1257 nbx 3 20 0 400 0 1 empty empty empty 0 -8 0 10 -262144
-1 -1 3 256;
#X obj 132 1257 nbx 3 20 0 400 0 1 empty empty empty 0 -8 0 10 -262144
-1 -1 3 256;
#X obj 180 1255 nbx 3 20 0 400 0 1 empty empty empty 0 -8 0 10 -262144
-1 -1 3 256;
#X obj 227 1256 nbx 3 20 0 400 0 1 empty empty empty 0 -8 0 10 -262144
-1 -1 2 256;
#X obj 324 1256 nbx 3 20 0 400 0 1 empty empty empty 0 -8 0 10 -262144
-1 -1 1 256;
#X obj 276 1255 nbx 3 20 0 400 0 1 empty empty empty 0 -8 0 10 -262144
-1 -1 3 256;
#X obj 379 1255 nbx 3 20 0 400 0 1 empty empty empty 0 -8 0 10 -262144
-1 -1 5 256;
#X obj 1148 1506 outlet~;
#X obj 1708 131 inlet;
#X obj 1230 1278 hsl 128 15 0 1 0 0 empty empty empty -2 -8 0 10 -262144
-1 -1 0 1;
#X obj 989 1352 *~;
#X obj 1171 1422 *~;
#X obj 1143 1381 -~;
#X obj 1116 1344 sig~ 1;
#X obj 325 1010 random 3;
#X obj 130 1209 +;
#X obj 431 1050 random 2;
#X obj 324 1181 -;
#X obj 1710 205 route Rhythm1;
#X obj 744 289 route Sequencer1;
#X obj 1683 282 route PerformanceModifiers1;
#X connect 0 0 94 0;
#X connect 0 0 64 0;
#X connect 0 1 65 0;
#X connect 0 1 95 0;
#X connect 0 2 96 0;
#X connect 0 2 66 0;
#X connect 0 3 97 0;
#X connect 0 3 67 0;
#X connect 0 4 98 0;
#X connect 0 4 68 0;
#X connect 0 5 100 0;
#X connect 0 5 69 0;
#X connect 0 6 99 0;
#X connect 0 6 70 0;
#X connect 0 7 101 0;
#X connect 0 7 71 0;
#X connect 1 0 64 1;
#X connect 2 0 65 1;
#X connect 3 0 66 1;
#X connect 4 0 67 1;
#X connect 5 0 68 1;
#X connect 6 0 69 1;
#X connect 7 0 70 1;
#X connect 8 0 71 1;
#X connect 9 0 102 0;
#X connect 10 0 11 0;
#X connect 11 0 12 0;
#X connect 12 0 9 1;
#X connect 15 0 113 0;
#X connect 16 0 21 0;
#X connect 17 0 43 0;
#X connect 17 0 44 0;
#X connect 18 0 19 0;
#X connect 18 1 20 1;
#X connect 19 0 20 0;
#X connect 20 0 16 1;
#X connect 20 0 22 1;
#X connect 20 0 24 1;
#X connect 20 0 26 1;
#X connect 20 0 28 1;
#X connect 20 0 30 1;
#X connect 20 0 32 1;
#X connect 20 0 34 1;
#X connect 21 0 1 0;
#X connect 22 0 23 0;
#X connect 23 0 2 0;
#X connect 24 0 25 0;
#X connect 25 0 3 0;
#X connect 26 0 27 0;
#X connect 27 0 4 0;
#X connect 28 0 29 0;
#X connect 29 0 5 0;
#X connect 30 0 31 0;
#X connect 31 0 6 0;
#X connect 32 0 33 0;
#X connect 33 0 7 0;
#X connect 34 0 35 0;
#X connect 35 0 8 0;
#X connect 36 0 45 0;
#X connect 36 0 46 0;
#X connect 37 0 38 0;
#X connect 37 1 39 1;
#X connect 38 0 39 0;
#X connect 39 0 40 1;
#X connect 40 0 42 0;
#X connect 41 0 10 0;
#X connect 42 0 41 0;
#X connect 43 0 19 0;
#X connect 44 0 18 0;
#X connect 45 0 38 0;
#X connect 46 0 37 0;
#X connect 47 0 54 0;
#X connect 47 0 53 0;
#X connect 48 0 49 0;
#X connect 48 1 50 1;
#X connect 49 0 50 0;
#X connect 50 0 51 1;
#X connect 51 0 52 0;
#X connect 52 0 55 0;
#X connect 53 0 48 0;
#X connect 54 0 49 0;
#X connect 55 0 56 0;
#X connect 55 1 57 0;
#X connect 55 2 58 0;
#X connect 55 3 59 0;
#X connect 55 4 60 0;
#X connect 55 5 61 0;
#X connect 55 6 62 0;
#X connect 56 0 14 0;
#X connect 57 0 14 0;
#X connect 58 0 14 0;
#X connect 59 0 14 0;
#X connect 60 0 14 0;
#X connect 61 0 14 0;
#X connect 62 0 14 0;
#X connect 63 0 51 0;
#X connect 63 0 47 0;
#X connect 64 0 72 0;
#X connect 65 0 72 0;
#X connect 66 0 72 0;
#X connect 67 0 72 0;
#X connect 68 0 72 0;
#X connect 69 0 72 0;
#X connect 70 0 72 0;
#X connect 71 0 72 0;
#X connect 72 0 105 0;
#X connect 73 0 75 0;
#X connect 74 0 9 0;
#X connect 75 0 106 0;
#X connect 76 0 77 0;
#X connect 77 0 78 0;
#X connect 78 0 79 0;
#X connect 78 0 80 0;
#X connect 79 0 78 1;
#X connect 80 0 75 1;
#X connect 81 0 76 0;
#X connect 82 0 81 0;
#X connect 82 0 109 0;
#X connect 82 0 111 0;
#X connect 83 0 82 0;
#X connect 84 0 16 0;
#X connect 85 0 22 0;
#X connect 86 0 24 0;
#X connect 87 0 26 0;
#X connect 88 0 28 0;
#X connect 89 0 30 0;
#X connect 90 0 32 0;
#X connect 91 0 34 0;
#X connect 92 0 36 0;
#X connect 92 0 40 0;
#X connect 93 0 0 0;
#X connect 94 0 73 0;
#X connect 95 0 73 0;
#X connect 96 0 73 0;
#X connect 97 0 73 0;
#X connect 98 0 73 0;
#X connect 99 0 73 0;
#X connect 100 0 73 0;
#X connect 101 0 73 0;
#X connect 103 0 15 0;
#X connect 104 0 105 1;
#X connect 104 0 107 1;
#X connect 105 0 74 0;
#X connect 106 0 74 1;
#X connect 107 0 106 1;
#X connect 108 0 107 0;
#X connect 109 0 94 0;
#X connect 109 0 98 0;
#X connect 109 0 110 0;
#X connect 109 0 112 0;
#X connect 110 0 95 0;
#X connect 110 0 96 0;
#X connect 111 0 110 1;
#X connect 111 0 112 1;
#X connect 112 0 99 0;
#X connect 113 0 114 0;
#X connect 113 0 115 0;
#X connect 114 0 17 0;
#X connect 114 0 84 0;
#X connect 114 0 85 0;
#X connect 114 0 86 0;
#X connect 114 0 87 0;
#X connect 114 0 88 0;
#X connect 114 0 89 0;
#X connect 114 0 90 0;
#X connect 114 0 91 0;
#X connect 114 0 92 0;
#X connect 115 0 63 0;
#X connect 115 0 83 0;
