#N canvas 798 180 943 878 12;
#X obj 272 696 outlet~;
#X obj 163 295 osc~;
#X obj 223 295 osc~;
#X obj 420 159 bng 15 250 50 0 empty empty empty 17 7 0 10 -262144
-1 -1;
#X obj 420 387 line~;
#X obj 484 297 pack 0 500;
#X obj 420 436 *~;
#X obj 420 485 *~;
#X obj 484 236 del 25;
#X obj 272 550 *~;
#X obj 551 159 r release;
#X obj 163 257 * 1.02;
#X obj 103 257 * 2.01;
#X obj 163 444 vcf~ 1;
#X obj 103 295 phasor~;
#X msg 420 297 1 15;
#X obj 273 76 mtof;
#X obj 273 14 inlet;
#X obj 785 194 switch~;
#X obj 793 109 inlet;
#X msg 723 80 0;
#X msg 791 146 1;
#X obj 722 37 r stopAll;
#X obj 285 295 r cutoff;
#X obj 285 324 r resonance;
#X connect 1 0 13 0;
#X connect 2 0 13 0;
#X connect 3 0 15 0;
#X connect 3 0 8 0;
#X connect 4 0 6 0;
#X connect 4 0 6 1;
#X connect 5 0 4 0;
#X connect 6 0 7 0;
#X connect 6 0 7 1;
#X connect 7 0 9 1;
#X connect 8 0 5 0;
#X connect 9 0 0 0;
#X connect 10 0 5 1;
#X connect 11 0 1 0;
#X connect 12 0 14 0;
#X connect 13 0 9 0;
#X connect 13 1 9 0;
#X connect 14 0 13 0;
#X connect 15 0 4 0;
#X connect 16 0 12 0;
#X connect 16 0 11 0;
#X connect 16 0 2 0;
#X connect 16 0 3 0;
#X connect 17 0 16 0;
#X connect 19 0 21 0;
#X connect 20 0 18 0;
#X connect 21 0 18 0;
#X connect 22 0 20 0;
#X connect 23 0 13 1;
#X connect 24 0 13 2;
